<?xml version="1.0" encoding="UTF-8" standalone="no"?>
<!DOCTYPE svg PUBLIC "-//W3C//DTD SVG 1.0//EN" "http://www.w3.org/TR/2001/PR-SVG-20010719/DTD/svg10.dtd">
<svg width="38cm" height="27cm" viewBox="-35 -65 758 527" xmlns="http://www.w3.org/2000/svg" xmlns:xlink="http://www.w3.org/1999/xlink">
  <g>
    <rect style="fill: #ffffff" x="-33.8" y="65" width="63.6" height="38"/>
    <rect style="fill: none; fill-opacity:0; stroke-width: 2; stroke: #000000" x="-33.8" y="65" width="63.6" height="38"/>
    <text font-size="12.8" style="fill: #000000;text-anchor:middle;font-family:sans-serif;font-style:normal;font-weight:normal" x="-2" y="87.9">
      <tspan x="-2" y="87.9">Noppa</tspan>
    </text>
  </g>
  <g>
    <rect style="fill: #ffffff" x="291.6" y="67" width="78.8" height="38"/>
    <rect style="fill: none; fill-opacity:0; stroke-width: 2; stroke: #000000" x="291.6" y="67" width="78.8" height="38"/>
    <text font-size="12.8" style="fill: #000000;text-anchor:middle;font-family:sans-serif;font-style:normal;font-weight:normal" x="331" y="89.9">
      <tspan x="331" y="89.9">Peliruutu</tspan>
    </text>
  </g>
  <g>
    <rect style="fill: #ffffff" x="84.7" y="66" width="76.6" height="38"/>
    <rect style="fill: none; fill-opacity:0; stroke-width: 2; stroke: #000000" x="84.7" y="66" width="76.6" height="38"/>
    <text font-size="12.8" style="fill: #000000;text-anchor:middle;font-family:sans-serif;font-style:normal;font-weight:normal" x="123" y="88.9">
      <tspan x="123" y="88.9">Pelilauta</tspan>
    </text>
  </g>
  <g>
    <polyline style="fill: none; fill-opacity:0; stroke-width: 2; stroke: #000000" points="123,104 123,178.5 113.825,178.5 113.825,253 "/>
    <text font-size="9.6" style="fill: #000000;text-anchor:start;font-family:monospace;font-style:normal;font-weight:normal" x="127" y="116">1</text>
    <text font-size="9.6" style="fill: #000000;text-anchor:start;font-family:monospace;font-style:normal;font-weight:normal" x="117.825" y="249">2..8</text>
  </g>
  <g>
    <polyline style="fill: none; fill-opacity:0; stroke-width: 2; stroke: #000000" points="161.3,85 226.45,85 226.45,86 291.6,86 "/>
    <text font-size="9.6" style="fill: #000000;text-anchor:start;font-family:monospace;font-style:normal;font-weight:normal" x="165.3" y="81">1</text>
    <text font-size="9.6" style="fill: #000000;text-anchor:end;font-family:monospace;font-style:normal;font-weight:normal" x="287.6" y="82">40</text>
  </g>
  <g>
    <polyline style="fill: none; fill-opacity:0; stroke-width: 2; stroke: #000000" points="84.7,85 57.25,85 57.25,84 29.8,84 "/>
    <text font-size="9.6" style="fill: #000000;text-anchor:end;font-family:monospace;font-style:normal;font-weight:normal" x="80.7" y="81">1</text>
    <text font-size="9.6" style="fill: #000000;text-anchor:start;font-family:monospace;font-style:normal;font-weight:normal" x="33.8" y="80">2</text>
  </g>
  <g>
    <rect style="fill: #ffffff" x="167" y="141" width="96" height="38"/>
    <rect style="fill: none; fill-opacity:0; stroke-width: 2; stroke: #000000" x="167" y="141" width="96" height="38"/>
    <text font-size="12.8" style="fill: #000000;text-anchor:middle;font-family:sans-serif;font-style:normal;font-weight:normal" x="215" y="163.9">
      <tspan x="215" y="163.9">Pelinappula</tspan>
    </text>
  </g>
  <g>
    <polyline style="fill: none; fill-opacity:0; stroke-width: 2; stroke: #000000" points="161.475,253 161.475,216 215,216 215,179 "/>
    <text font-size="9.6" style="fill: #000000;text-anchor:start;font-family:monospace;font-style:normal;font-weight:normal" x="165.475" y="249">1</text>
    <text font-size="9.6" style="fill: #000000;text-anchor:start;font-family:monospace;font-style:normal;font-weight:normal" x="219" y="191">1</text>
  </g>
  <g>
    <polyline style="fill: none; fill-opacity:0; stroke-width: 2; stroke: #000000" points="311.3,105 311.3,123 215,123 215,141 "/>
    <text font-size="9.6" style="fill: #000000;text-anchor:start;font-family:monospace;font-style:normal;font-weight:normal" x="315.3" y="117">1</text>
    <text font-size="9.6" style="fill: #000000;text-anchor:start;font-family:monospace;font-style:normal;font-weight:normal" x="219" y="137">*</text>
  </g>
  <g>
    <line style="fill: none; fill-opacity:0; stroke-width: 2; stroke-dasharray: 6; stroke: #000000" x1="90" y1="281" x2="2.47033" y2="111.649"/>
    <polygon style="fill: #000000" points="-0.973306,104.986 8.06,111.574 2.47033,111.649 -0.823583,116.166 "/>
    <polygon style="fill: none; fill-opacity:0; stroke-width: 2; stroke: #000000" points="-0.973306,104.986 8.06,111.574 2.47033,111.649 -0.823583,116.166 "/>
  </g>
  <g>
    <rect style="fill: #ffffff" x="271" y="-63" width="100" height="38"/>
    <rect style="fill: none; fill-opacity:0; stroke-width: 2; stroke: #000000" x="271" y="-63" width="100" height="38"/>
    <text font-size="12.7998" style="fill: #000000;text-anchor:middle;font-family:sans-serif;font-style:normal;font-weight:normal" x="321" y="-40.1">
      <tspan x="321" y="-40.1">Aloitusruutu</tspan>
    </text>
  </g>
  <g>
    <rect style="fill: #ffffff" x="242.975" y="-9" width="68.05" height="38"/>
    <rect style="fill: none; fill-opacity:0; stroke-width: 2; stroke: #000000" x="242.975" y="-9" width="68.05" height="38"/>
    <text font-size="12.7998" style="fill: #000000;text-anchor:middle;font-family:sans-serif;font-style:normal;font-weight:normal" x="277" y="13.9">
      <tspan x="277" y="13.9">Vankila</tspan>
    </text>
  </g>
  <g>
    <rect style="fill: #ffffff" x="558.575" y="-22" width="162.85" height="38"/>
    <rect style="fill: none; fill-opacity:0; stroke-width: 2; stroke: #000000" x="558.575" y="-22" width="162.85" height="38"/>
    <text font-size="12.7998" style="fill: #000000;text-anchor:middle;font-family:sans-serif;font-style:normal;font-weight:normal" x="640" y="0.9">
      <tspan x="640" y="0.9">Sattuma ja yhteismaa</tspan>
    </text>
  </g>
  <g>
    <rect style="fill: #ffffff" x="397.575" y="-60" width="144.85" height="38"/>
    <rect style="fill: none; fill-opacity:0; stroke-width: 2; stroke: #000000" x="397.575" y="-60" width="144.85" height="38"/>
    <text font-size="12.7998" style="fill: #000000;text-anchor:middle;font-family:sans-serif;font-style:normal;font-weight:normal" x="470" y="-37.1">
      <tspan x="470" y="-37.1">Asemat ja laitokset</tspan>
    </text>
  </g>
  <g>
    <line style="fill: none; fill-opacity:0; stroke-width: 2; stroke: #000000" x1="375.35" y1="251" x2="339.549" y2="117.807"/>
    <polygon style="fill: none; fill-opacity:0; stroke-width: 2; stroke: #000000" points="344.378,116.509 336.954,108.15 334.721,119.105 "/>
  </g>
  <g>
    <line style="fill: none; fill-opacity:0; stroke-width: 2; stroke: #000000" x1="448.103" y1="-20.9935" x2="361.93" y2="57.74"/>
    <polygon style="fill: none; fill-opacity:0; stroke-width: 2; stroke: #000000" points="358.558,54.0487 354.548,64.4852 365.303,61.4313 "/>
  </g>
  <g>
    <line style="fill: none; fill-opacity:0; stroke-width: 2; stroke: #000000" x1="570.558" y1="17.0011" x2="383.165" y2="70.975"/>
    <polygon style="fill: none; fill-opacity:0; stroke-width: 2; stroke: #000000" points="381.781,66.1704 373.556,73.7428 384.549,75.7797 "/>
  </g>
  <g>
    <line style="fill: none; fill-opacity:0; stroke-width: 2; stroke: #000000" x1="291.199" y1="29.9834" x2="309.714" y2="56.042"/>
    <polygon style="fill: none; fill-opacity:0; stroke-width: 2; stroke: #000000" points="305.638,58.938 315.506,64.1938 313.79,53.146 "/>
  </g>
  <g>
    <line style="fill: none; fill-opacity:0; stroke-width: 2; stroke: #000000" x1="322.539" y1="-23.9969" x2="328.523" y2="53.7969"/>
    <polygon style="fill: none; fill-opacity:0; stroke-width: 2; stroke: #000000" points="323.538,54.1804 329.29,63.7675 333.508,53.4134 "/>
  </g>
  <g>
    <polyline style="fill: none; fill-opacity:0; stroke-width: 2; stroke: #000000" points="103.85,66 103.85,-44 271,-44 "/>
    <text font-size="9.59961" style="fill: #000000;text-anchor:start;font-family:monospace;font-style:normal;font-weight:normal" x="107.85" y="62">1</text>
    <text font-size="9.59961" style="fill: #000000;text-anchor:end;font-family:monospace;font-style:normal;font-weight:normal" x="267" y="-48">1</text>
  </g>
  <g>
    <polyline style="fill: none; fill-opacity:0; stroke-width: 2; stroke: #000000" points="142.15,66 142.15,10 242.975,10 "/>
    <text font-size="9.59961" style="fill: #000000;text-anchor:start;font-family:monospace;font-style:normal;font-weight:normal" x="146.15" y="62">1</text>
    <text font-size="9.59961" style="fill: #000000;text-anchor:end;font-family:monospace;font-style:normal;font-weight:normal" x="238.975" y="6">1</text>
  </g>
  <g>
    <rect style="fill: #ffffff" x="463" y="73" width="76" height="38"/>
    <rect style="fill: none; fill-opacity:0; stroke-width: 2; stroke: #000000" x="463" y="73" width="76" height="38"/>
    <text font-size="12.7998" style="fill: #000000;text-anchor:middle;font-family:sans-serif;font-style:normal;font-weight:normal" x="501" y="95.9">
      <tspan x="501" y="95.9">Toiminto</tspan>
    </text>
  </g>
  <g>
    <polyline style="fill: none; fill-opacity:0; stroke-width: 2; stroke: #000000" points="370.4,95.5 416.7,95.5 416.7,92 463,92 "/>
    <text font-size="9.59961" style="fill: #000000;text-anchor:start;font-family:monospace;font-style:normal;font-weight:normal" x="374.4" y="91.5">*</text>
    <text font-size="9.59961" style="fill: #000000;text-anchor:end;font-family:monospace;font-style:normal;font-weight:normal" x="459" y="88">1</text>
  </g>
  <g>
    <rect style="fill: #ffffff" x="612.8" y="69" width="56.4" height="38"/>
    <rect style="fill: none; fill-opacity:0; stroke-width: 2; stroke: #000000" x="612.8" y="69" width="56.4" height="38"/>
    <text font-size="12.7998" style="fill: #000000;text-anchor:middle;font-family:sans-serif;font-style:normal;font-weight:normal" x="641" y="91.9">
      <tspan x="641" y="91.9">Kortti</tspan>
    </text>
  </g>
  <g>
    <polyline style="fill: none; fill-opacity:0; stroke-width: 2; stroke: #000000" points="640,16 640,42.5 641,42.5 641,69 "/>
    <text font-size="9.59961" style="fill: #000000;text-anchor:start;font-family:monospace;font-style:normal;font-weight:normal" x="644" y="28">1</text>
    <text font-size="9.59961" style="fill: #000000;text-anchor:start;font-family:monospace;font-style:normal;font-weight:normal" x="645" y="65">*</text>
  </g>
  <g>
    <polyline style="fill: none; fill-opacity:0; stroke-width: 2; stroke: #000000" points="539,92 575.9,92 575.9,88 612.8,88 "/>
    <text font-size="9.59961" style="fill: #000000;text-anchor:start;font-family:monospace;font-style:normal;font-weight:normal" x="543" y="88">1</text>
    <text font-size="9.59961" style="fill: #000000;text-anchor:end;font-family:monospace;font-style:normal;font-weight:normal" x="608.8" y="84">*</text>
  </g>
  <g>
    <rect style="fill: #ffffff" x="313.525" y="423" width="46.95" height="38"/>
    <rect style="fill: none; fill-opacity:0; stroke-width: 2; stroke: #000000" x="313.525" y="423" width="46.95" height="38"/>
    <text font-size="12.7998" style="fill: #000000;text-anchor:middle;font-family:sans-serif;font-style:normal;font-weight:normal" x="337" y="445.9">
      <tspan x="337" y="445.9">Talo</tspan>
    </text>
  </g>
  <g>
    <rect style="fill: #ffffff" x="391.475" y="421" width="63.05" height="38"/>
    <rect style="fill: none; fill-opacity:0; stroke-width: 2; stroke: #000000" x="391.475" y="421" width="63.05" height="38"/>
    <text font-size="12.7998" style="fill: #000000;text-anchor:middle;font-family:sans-serif;font-style:normal;font-weight:normal" x="423" y="443.9">
      <tspan x="423" y="443.9">Hotelli</tspan>
    </text>
  </g>
  <g>
    <line style="fill: none; fill-opacity:0; stroke-width: 2; stroke: #000000" x1="409.846" y1="419.995" x2="394.877" y2="397.229"/>
    <polygon style="fill: none; fill-opacity:0; stroke-width: 2; stroke: #000000" points="399.055,394.482 389.383,388.874 390.699,399.976 "/>
  </g>
  <g>
    <polyline style="fill: none; fill-opacity:0; stroke-width: 2; stroke: #000000" points="375.35,289 375.35,312 375,312 375,348 "/>
    <text font-size="9.59961" style="fill: #000000;text-anchor:start;font-family:monospace;font-style:normal;font-weight:normal" x="379.35" y="301">1</text>
    <text font-size="9.59961" style="fill: #000000;text-anchor:start;font-family:monospace;font-style:normal;font-weight:normal" x="379" y="344">0..4</text>
  </g>
  <g>
    <rect style="fill: #ffffff" x="332.875" y="348" width="84.25" height="38"/>
    <rect style="fill: none; fill-opacity:0; stroke-width: 2; stroke: #000000" x="332.875" y="348" width="84.25" height="38"/>
    <text font-size="12.7998" style="fill: #000000;text-anchor:middle;font-family:sans-serif;font-style:normal;font-weight:normal" x="375" y="370.9">
      <tspan x="375" y="370.9">Rakennus</tspan>
    </text>
  </g>
  <g>
    <line style="fill: none; fill-opacity:0; stroke-width: 2; stroke: #000000" x1="347.135" y1="421.996" x2="359.334" y2="397.919"/>
    <polygon style="fill: none; fill-opacity:0; stroke-width: 2; stroke: #000000" points="363.794,400.179 363.854,388.999 354.874,395.659 "/>
  </g>
  <g>
    <polyline style="fill: none; fill-opacity:0; stroke-width: 2; stroke: #000000" points="185.3,262 252.65,262 252.65,260 320,260 "/>
    <text font-size="9.59961" style="fill: #000000;text-anchor:start;font-family:monospace;font-style:normal;font-weight:normal" x="189.3" y="258">0..1</text>
    <text font-size="9.59961" style="fill: #000000;text-anchor:end;font-family:monospace;font-style:normal;font-weight:normal" x="316" y="256">*</text>
  </g>
  <g>
    <rect style="fill: #ffffff" x="90" y="253" width="95.3" height="18"/>
    <rect style="fill: none; fill-opacity:0; stroke-width: 2; stroke: #000000" x="90" y="253" width="95.3" height="18"/>
    <text font-size="11.2" style="fill: #000000;text-anchor:middle;font-family:sans-serif;font-style:normal;font-weight:700" x="137.65" y="267">Pelaaja</text>
    <rect style="fill: #ffffff" x="90" y="271" width="95.3" height="20"/>
    <rect style="fill: none; fill-opacity:0; stroke-width: 2; stroke: #000000" x="90" y="271" width="95.3" height="20"/>
    <ellipse style="fill: #000000" cx="95" cy="281" rx="2" ry="2"/>
    <text font-size="12.8" style="fill: #000000;text-anchor:start;font-family:monospace;font-style:normal;font-weight:normal" x="99" y="287">rahaa:</text>
    <text font-size="12.8" style="fill: #000000;text-anchor:start;font-family:monospace;font-style:normal;font-weight:normal" x="155.2" y="287">int</text>
  </g>
  <g>
    <rect style="fill: #ffffff" x="320" y="251" width="110.7" height="18"/>
    <rect style="fill: none; fill-opacity:0; stroke-width: 2; stroke: #000000" x="320" y="251" width="110.7" height="18"/>
    <text font-size="11.2" style="fill: #000000;text-anchor:middle;font-family:sans-serif;font-style:normal;font-weight:700" x="375.35" y="265">Normaali katu</text>
    <rect style="fill: #ffffff" x="320" y="269" width="110.7" height="20"/>
    <rect style="fill: none; fill-opacity:0; stroke-width: 2; stroke: #000000" x="320" y="269" width="110.7" height="20"/>
    <ellipse style="fill: #000000" cx="325" cy="279" rx="2" ry="2"/>
    <text font-size="12.8" style="fill: #000000;text-anchor:start;font-family:monospace;font-style:normal;font-weight:normal" x="329" y="285">nimi:</text>
    <text font-size="12.8" style="fill: #000000;text-anchor:start;font-family:monospace;font-style:normal;font-weight:normal" x="377.5" y="285">String</text>
  </g>
</svg>
