<?xml version="1.0" encoding="UTF-8" standalone="no"?>
<!DOCTYPE svg PUBLIC "-//W3C//DTD SVG 1.0//EN" "http://www.w3.org/TR/2001/PR-SVG-20010719/DTD/svg10.dtd">
<svg width="12cm" height="10cm" viewBox="316 181 223 195" xmlns="http://www.w3.org/2000/svg" xmlns:xlink="http://www.w3.org/1999/xlink">
  <g>
    <rect style="fill: #ffffff" x="339" y="185" width="46" height="18"/>
    <rect style="fill: none; fill-opacity:0; stroke-width: 2; stroke: #000000" x="339" y="185" width="46" height="18"/>
    <text font-size="11.2" style="fill: #000000;text-anchor:middle;font-family:sans-serif;font-style:normal;font-weight:700" x="362" y="199">Game</text>
    <rect style="fill: #ffffff" x="339" y="203" width="46" height="4"/>
    <rect style="fill: none; fill-opacity:0; stroke-width: 2; stroke: #000000" x="339" y="203" width="46" height="4"/>
  </g>
  <g>
    <rect style="fill: #ffffff" x="424.511" y="257.296" width="86.95" height="18"/>
    <rect style="fill: none; fill-opacity:0; stroke-width: 2; stroke: #000000" x="424.511" y="257.296" width="86.95" height="18"/>
    <text font-size="11.2" style="fill: #000000;text-anchor:middle;font-family:sans-serif;font-style:normal;font-weight:700" x="467.986" y="271.296">GameObject</text>
    <rect style="fill: #ffffff" x="424.511" y="275.296" width="86.95" height="4"/>
    <rect style="fill: none; fill-opacity:0; stroke-width: 2; stroke: #000000" x="424.511" y="275.296" width="86.95" height="4"/>
  </g>
  <g>
    <rect style="fill: #ffffff" x="342.36" y="262.565" width="43.5" height="18"/>
    <rect style="fill: none; fill-opacity:0; stroke-width: 2; stroke: #000000" x="342.36" y="262.565" width="43.5" height="18"/>
    <text font-size="11.2" style="fill: #000000;text-anchor:middle;font-family:sans-serif;font-style:normal;font-weight:700" x="364.11" y="276.565">Level</text>
    <rect style="fill: #ffffff" x="342.36" y="280.565" width="43.5" height="4"/>
    <rect style="fill: none; fill-opacity:0; stroke-width: 2; stroke: #000000" x="342.36" y="280.565" width="43.5" height="4"/>
  </g>
  <g>
    <rect style="fill: #ffffff" x="347.598" y="332.326" width="32.95" height="18"/>
    <rect style="fill: none; fill-opacity:0; stroke-width: 2; stroke: #000000" x="347.598" y="332.326" width="32.95" height="18"/>
    <text font-size="11.2" style="fill: #000000;text-anchor:middle;font-family:sans-serif;font-style:normal;font-weight:700" x="364.073" y="346.326">Tile</text>
    <rect style="fill: #ffffff" x="347.598" y="350.326" width="32.95" height="4"/>
    <rect style="fill: none; fill-opacity:0; stroke-width: 2; stroke: #000000" x="347.598" y="350.326" width="32.95" height="4"/>
  </g>
  <g>
    <polyline style="fill: none; fill-opacity:0; stroke-width: 2; stroke: #000000" points="362,207 362,234.782 364.11,234.782 364.11,262.565 "/>
    <text font-size="9.59961" style="fill: #000000;text-anchor:start;font-family:monospace;font-style:normal;font-weight:normal" x="366" y="219">1</text>
    <text font-size="9.59961" style="fill: #000000;text-anchor:start;font-family:monospace;font-style:normal;font-weight:normal" x="368.11" y="258.565">*</text>
  </g>
  <g>
    <polyline style="fill: none; fill-opacity:0; stroke-width: 2; stroke: #000000" points="364.11,284.565 364.11,308.445 364.073,308.445 364.073,332.326 "/>
    <text font-size="9.59961" style="fill: #000000;text-anchor:start;font-family:monospace;font-style:normal;font-weight:normal" x="368.11" y="296.565">1</text>
    <text font-size="9.59961" style="fill: #000000;text-anchor:start;font-family:monospace;font-style:normal;font-weight:normal" x="368.073" y="328.326">*</text>
  </g>
  <g>
    <polyline style="fill: none; fill-opacity:0; stroke-width: 2; stroke: #000000" points="380.548,341.326 446.249,341.326 446.249,279.296 "/>
    <text font-size="9.59961" style="fill: #000000;text-anchor:start;font-family:monospace;font-style:normal;font-weight:normal" x="384.548" y="337.326">0..1</text>
    <text font-size="9.59961" style="fill: #000000;text-anchor:start;font-family:monospace;font-style:normal;font-weight:normal" x="450.249" y="291.296">*</text>
  </g>
  <g>
    <rect style="fill: #ffffff" x="443.265" y="185.742" width="49.65" height="18"/>
    <rect style="fill: none; fill-opacity:0; stroke-width: 2; stroke: #000000" x="443.265" y="185.742" width="49.65" height="18"/>
    <text font-size="11.2" style="fill: #000000;text-anchor:middle;font-family:sans-serif;font-style:normal;font-weight:700" x="468.09" y="199.742">Player</text>
    <rect style="fill: #ffffff" x="443.265" y="203.742" width="49.65" height="4"/>
    <rect style="fill: none; fill-opacity:0; stroke-width: 2; stroke: #000000" x="443.265" y="203.742" width="49.65" height="4"/>
  </g>
  <g>
    <polyline style="fill: none; fill-opacity:0; stroke-width: 2; stroke: #000000" points="385,194 414.132,194 414.132,194.742 443.265,194.742 "/>
    <text font-size="9.59961" style="fill: #000000;text-anchor:start;font-family:monospace;font-style:normal;font-weight:normal" x="389" y="190">1</text>
    <text font-size="9.59961" style="fill: #000000;text-anchor:end;font-family:monospace;font-style:normal;font-weight:normal" x="439.265" y="190.742">1</text>
  </g>
  <g>
    <line style="fill: none; fill-opacity:0; stroke-width: 2; stroke: #000000" x1="468.09" y1="207.742" x2="468.012" y2="245.06"/>
    <polygon style="fill: none; fill-opacity:0; stroke-width: 2; stroke: #000000" points="463.012,245.05 467.991,255.06 473.012,245.071 "/>
  </g>
  <g>
    <polyline style="fill: none; fill-opacity:0; stroke-width: 2; stroke: #000000" points="489.724,257.296 489.724,230.29 538.724,230.29 538.724,303.829 489.724,303.829 489.724,279.296 "/>
    <text font-size="9.59961" style="fill: #000000;text-anchor:start;font-family:monospace;font-style:normal;font-weight:normal" x="493.724" y="253.296">0..1</text>
    <text font-size="9.59961" style="fill: #000000;text-anchor:start;font-family:monospace;font-style:normal;font-weight:normal" x="493.724" y="291.296">*</text>
  </g>
  <g>
    <polyline style="fill: none; fill-opacity:0; stroke-width: 2; stroke: #000000" points="347.598,341.326 316.693,341.326 316.693,375.387 355.835,375.387 355.835,354.326 "/>
    <text font-size="9.59961" style="fill: #000000;text-anchor:end;font-family:monospace;font-style:normal;font-weight:normal" x="343.598" y="337.326">0..1</text>
    <text font-size="9.59961" style="fill: #000000;text-anchor:start;font-family:monospace;font-style:normal;font-weight:normal" x="359.835" y="366.326">0..1</text>
  </g>
</svg>
