<?xml version="1.0" encoding="UTF-8" standalone="no"?>
<!DOCTYPE svg PUBLIC "-//W3C//DTD SVG 1.0//EN" "http://www.w3.org/TR/2001/PR-SVG-20010719/DTD/svg10.dtd">
<svg width="44cm" height="23cm" viewBox="-59 55 871 444" xmlns="http://www.w3.org/2000/svg" xmlns:xlink="http://www.w3.org/1999/xlink">
  <g>
    <rect style="fill: #ffffff" x="122.2" y="74.45" width="189.1" height="28"/>
    <rect style="fill: none; fill-opacity:0; stroke-width: 2; stroke: #000000" x="122.2" y="74.45" width="189.1" height="28"/>
    <rect style="fill: #ffffff" x="122.2" y="56.45" width="30" height="18"/>
    <rect style="fill: none; fill-opacity:0; stroke-width: 2; stroke: #000000" x="122.2" y="56.45" width="30" height="18"/>
    <text font-size="12.8" style="fill: #000000;text-anchor:start;font-family:monospace;font-style:normal;font-weight:normal" x="128.2" y="92.35">
      <tspan x="128.2" y="92.35">fishingrodofdestiny.ui </tspan>
    </text>
  </g>
  <g>
    <rect style="fill: #ffffff" x="110.65" y="348.9" width="212.2" height="28"/>
    <rect style="fill: none; fill-opacity:0; stroke-width: 2; stroke: #000000" x="110.65" y="348.9" width="212.2" height="28"/>
    <rect style="fill: #ffffff" x="110.65" y="330.9" width="30" height="18"/>
    <rect style="fill: none; fill-opacity:0; stroke-width: 2; stroke: #000000" x="110.65" y="330.9" width="30" height="18"/>
    <text font-size="12.8" style="fill: #000000;text-anchor:start;font-family:monospace;font-style:normal;font-weight:normal" x="116.65" y="366.8">
      <tspan x="116.65" y="366.8">fishingrodofdestiny.world </tspan>
    </text>
  </g>
  <g>
    <line style="fill: none; fill-opacity:0; stroke-width: 2; stroke-dasharray: 4; stroke: #000000" x1="216.75" y1="102.387" x2="216.75" y2="320.156"/>
    <polygon style="fill: #000000" points="216.75,327.656 211.75,317.656 216.75,320.156 221.75,317.656 "/>
    <polygon style="fill: none; fill-opacity:0; stroke-width: 2; stroke: #000000" points="216.75,327.656 211.75,317.656 216.75,320.156 221.75,317.656 "/>
  </g>
  <g>
    <rect style="fill: #ffffff" x="-57.9" y="214.475" width="235.3" height="28"/>
    <rect style="fill: none; fill-opacity:0; stroke-width: 2; stroke: #000000" x="-57.9" y="214.475" width="235.3" height="28"/>
    <rect style="fill: #ffffff" x="-57.9" y="196.475" width="30" height="18"/>
    <rect style="fill: none; fill-opacity:0; stroke-width: 2; stroke: #000000" x="-57.9" y="196.475" width="30" height="18"/>
    <text font-size="12.8" style="fill: #000000;text-anchor:start;font-family:monospace;font-style:normal;font-weight:normal" x="-51.9" y="232.375">
      <tspan x="-51.9" y="232.375">fishingrodofdestiny.settings </tspan>
    </text>
  </g>
  <g>
    <line style="fill: none; fill-opacity:0; stroke-width: 2; stroke-dasharray: 4; stroke: #000000" x1="199.942" y1="103.44" x2="104.014" y2="188.997"/>
    <polygon style="fill: #000000" points="98.4169,193.989 102.552,183.601 104.014,188.997 109.208,191.064 "/>
    <polygon style="fill: none; fill-opacity:0; stroke-width: 2; stroke: #000000" points="98.4169,193.989 102.552,183.601 104.014,188.997 109.208,191.064 "/>
  </g>
  <g>
    <line style="fill: none; fill-opacity:0; stroke-width: 2; stroke-dasharray: 4; stroke: #000000" x1="77.2764" y1="243.481" x2="170.833" y2="323.585"/>
    <polygon style="fill: #000000" points="176.53,328.463 165.682,325.757 170.833,323.585 172.186,318.161 "/>
    <polygon style="fill: none; fill-opacity:0; stroke-width: 2; stroke: #000000" points="176.53,328.463 165.682,325.757 170.833,323.585 172.186,318.161 "/>
  </g>
  <g>
    <rect style="fill: #ffffff" x="99.1" y="469.9" width="235.3" height="28"/>
    <rect style="fill: none; fill-opacity:0; stroke-width: 2; stroke: #000000" x="99.1" y="469.9" width="235.3" height="28"/>
    <rect style="fill: #ffffff" x="99.1" y="451.9" width="30" height="18"/>
    <rect style="fill: none; fill-opacity:0; stroke-width: 2; stroke: #000000" x="99.1" y="451.9" width="30" height="18"/>
    <text font-size="12.8" style="fill: #000000;text-anchor:start;font-family:monospace;font-style:normal;font-weight:normal" x="105.1" y="487.8">
      <tspan x="105.1" y="487.8">fishingrodofdestiny.observer </tspan>
    </text>
  </g>
  <g>
    <line style="fill: none; fill-opacity:0; stroke-width: 2; stroke-dasharray: 4; stroke: #000000" x1="216.75" y1="377.848" x2="216.75" y2="441.159"/>
    <polygon style="fill: #000000" points="216.75,448.659 211.75,438.659 216.75,441.159 221.75,438.659 "/>
    <polygon style="fill: none; fill-opacity:0; stroke-width: 2; stroke: #000000" points="216.75,448.659 211.75,438.659 216.75,441.159 221.75,438.659 "/>
  </g>
  <g>
    <rect style="fill: #ffffff" x="586.95" y="214.475" width="196.8" height="28"/>
    <rect style="fill: none; fill-opacity:0; stroke-width: 2; stroke: #000000" x="586.95" y="214.475" width="196.8" height="28"/>
    <rect style="fill: #ffffff" x="586.95" y="196.475" width="30" height="18"/>
    <rect style="fill: none; fill-opacity:0; stroke-width: 2; stroke: #000000" x="586.95" y="196.475" width="30" height="18"/>
    <text font-size="12.7998" style="fill: #000000;text-anchor:start;font-family:monospace;font-style:normal;font-weight:normal" x="592.95" y="232.375">
      <tspan x="592.95" y="232.375">fishingrodofdestiny.dao </tspan>
    </text>
  </g>
  <g>
    <rect style="fill: #ffffff" x="560" y="74.45" width="250.7" height="28"/>
    <rect style="fill: none; fill-opacity:0; stroke-width: 2; stroke: #000000" x="560" y="74.45" width="250.7" height="28"/>
    <rect style="fill: #ffffff" x="560" y="56.45" width="30" height="18"/>
    <rect style="fill: none; fill-opacity:0; stroke-width: 2; stroke: #000000" x="560" y="56.45" width="30" height="18"/>
    <text font-size="12.7998" style="fill: #000000;text-anchor:start;font-family:monospace;font-style:normal;font-weight:normal" x="566" y="92.35">
      <tspan x="566" y="92.35">fishingrodofdestiny.highscores </tspan>
    </text>
  </g>
  <g>
    <rect style="fill: #ffffff" x="270" y="214.475" width="243" height="28"/>
    <rect style="fill: none; fill-opacity:0; stroke-width: 2; stroke: #000000" x="270" y="214.475" width="243" height="28"/>
    <rect style="fill: #ffffff" x="270" y="196.475" width="30" height="18"/>
    <rect style="fill: none; fill-opacity:0; stroke-width: 2; stroke: #000000" x="270" y="196.475" width="30" height="18"/>
    <text font-size="12.7998" style="fill: #000000;text-anchor:start;font-family:monospace;font-style:normal;font-weight:normal" x="276" y="232.375">
      <tspan x="276" y="232.375">fishingrodofdestiny.resources </tspan>
    </text>
  </g>
  <g>
    <line style="fill: none; fill-opacity:0; stroke-width: 2; stroke-dasharray: 4; stroke: #000000" x1="685.35" y1="113.177" x2="685.35" y2="185.741"/>
    <polygon style="fill: #000000" points="685.35,105.677 690.35,115.677 685.35,113.177 680.35,115.677 "/>
    <polygon style="fill: none; fill-opacity:0; stroke-width: 2; stroke: #000000" points="685.35,105.677 690.35,115.677 685.35,113.177 680.35,115.677 "/>
    <polygon style="fill: #000000" points="685.35,193.241 680.35,183.241 685.35,185.741 690.35,183.241 "/>
    <polygon style="fill: none; fill-opacity:0; stroke-width: 2; stroke: #000000" points="685.35,193.241 680.35,183.241 685.35,185.741 690.35,183.241 "/>
  </g>
  <g>
    <line style="fill: none; fill-opacity:0; stroke-width: 2; stroke-dasharray: 4; stroke: #000000" x1="514.006" y1="228.475" x2="576.208" y2="228.475"/>
    <polygon style="fill: #000000" points="583.708,228.475 573.708,233.475 576.208,228.475 573.708,223.475 "/>
    <polygon style="fill: none; fill-opacity:0; stroke-width: 2; stroke: #000000" points="583.708,228.475 573.708,233.475 576.208,228.475 573.708,223.475 "/>
  </g>
  <g>
    <line style="fill: none; fill-opacity:0; stroke-width: 2; stroke-dasharray: 4; stroke: #000000" x1="235.458" y1="103.44" x2="342.721" y2="189.389"/>
    <polygon style="fill: #000000" points="348.574,194.079 337.644,191.728 342.721,189.389 343.897,183.924 "/>
    <polygon style="fill: none; fill-opacity:0; stroke-width: 2; stroke: #000000" points="348.574,194.079 337.644,191.728 342.721,189.389 343.897,183.924 "/>
  </g>
  <g>
    <line style="fill: none; fill-opacity:0; stroke-width: 2; stroke-dasharray: 4; stroke: #000000" x1="259.627" y1="329.917" x2="364.275" y2="249.418"/>
    <polygon style="fill: #000000" points="370.22,244.845 365.342,254.905 364.275,249.418 359.245,246.979 "/>
    <polygon style="fill: none; fill-opacity:0; stroke-width: 2; stroke: #000000" points="370.22,244.845 365.342,254.905 364.275,249.418 359.245,246.979 "/>
  </g>
  <g>
    <line style="fill: none; fill-opacity:0; stroke-width: 2; stroke-dasharray: 4; stroke: #000000" x1="312.292" y1="88.45" x2="549.283" y2="88.45"/>
    <polygon style="fill: #000000" points="556.783,88.45 546.783,93.45 549.283,88.45 546.783,83.45 "/>
    <polygon style="fill: none; fill-opacity:0; stroke-width: 2; stroke: #000000" points="556.783,88.45 546.783,93.45 549.283,88.45 546.783,83.45 "/>
  </g>
  <g>
    <line style="fill: none; fill-opacity:0; stroke-width: 2; stroke-dasharray: 4; stroke: #000000" x1="460.748" y1="195.477" x2="645.103" y2="107.629"/>
    <polygon style="fill: #000000" points="651.873,104.402 644.997,113.218 645.103,107.629 640.695,104.19 "/>
    <polygon style="fill: none; fill-opacity:0; stroke-width: 2; stroke: #000000" points="651.873,104.402 644.997,113.218 645.103,107.629 640.695,104.19 "/>
  </g>
</svg>
