<?xml version="1.0" encoding="UTF-8" standalone="no"?>
<!DOCTYPE svg PUBLIC "-//W3C//DTD SVG 1.0//EN" "http://www.w3.org/TR/2001/PR-SVG-20010719/DTD/svg10.dtd">
<svg width="30cm" height="9cm" viewBox="263 227 590 178" xmlns="http://www.w3.org/2000/svg" xmlns:xlink="http://www.w3.org/1999/xlink">
  <g>
    <rect style="fill: #ffffff" x="274" y="246" width="181.4" height="28"/>
    <rect style="fill: none; fill-opacity:0; stroke-width: 2; stroke: #000000" x="274" y="246" width="181.4" height="28"/>
    <rect style="fill: #ffffff" x="274" y="228" width="30" height="18"/>
    <rect style="fill: none; fill-opacity:0; stroke-width: 2; stroke: #000000" x="274" y="228" width="30" height="18"/>
    <text font-size="12.8" style="fill: #000000;text-anchor:start;font-family:monospace;font-style:normal;font-weight:normal" x="280" y="263.9">
      <tspan x="280" y="263.9">fishingrodofdestiny.ui</tspan>
    </text>
  </g>
  <g>
    <rect style="fill: #ffffff" x="558" y="249" width="243" height="28"/>
    <rect style="fill: none; fill-opacity:0; stroke-width: 2; stroke: #000000" x="558" y="249" width="243" height="28"/>
    <rect style="fill: #ffffff" x="558" y="231" width="30" height="18"/>
    <rect style="fill: none; fill-opacity:0; stroke-width: 2; stroke: #000000" x="558" y="231" width="30" height="18"/>
    <text font-size="12.8" style="fill: #000000;text-anchor:start;font-family:monospace;font-style:normal;font-weight:normal" x="564" y="266.9">
      <tspan x="564" y="266.9">fishingrodofdestiny.ui.widgets</tspan>
    </text>
  </g>
  <g>
    <rect style="fill: #ffffff" x="264" y="375" width="204.5" height="28"/>
    <rect style="fill: none; fill-opacity:0; stroke-width: 2; stroke: #000000" x="264" y="375" width="204.5" height="28"/>
    <rect style="fill: #ffffff" x="264" y="357" width="30" height="18"/>
    <rect style="fill: none; fill-opacity:0; stroke-width: 2; stroke: #000000" x="264" y="357" width="30" height="18"/>
    <text font-size="12.8" style="fill: #000000;text-anchor:start;font-family:monospace;font-style:normal;font-weight:normal" x="270" y="392.9">
      <tspan x="270" y="392.9">fishingrodofdestiny.world</tspan>
    </text>
  </g>
  <g>
    <rect style="fill: #ffffff" x="555" y="376" width="296.9" height="28"/>
    <rect style="fill: none; fill-opacity:0; stroke-width: 2; stroke: #000000" x="555" y="376" width="296.9" height="28"/>
    <rect style="fill: #ffffff" x="555" y="358" width="30" height="18"/>
    <rect style="fill: none; fill-opacity:0; stroke-width: 2; stroke: #000000" x="555" y="358" width="30" height="18"/>
    <text font-size="12.8" style="fill: #000000;text-anchor:start;font-family:monospace;font-style:normal;font-weight:normal" x="561" y="393.9">
      <tspan x="561" y="393.9">fishingrodofdestiny.world.gameobjects</tspan>
    </text>
  </g>
  <g>
    <line style="fill: none; fill-opacity:0; stroke-width: 2; stroke-dasharray: 4; stroke: #000000" x1="456.398" y1="260.874" x2="547.334" y2="261.74"/>
    <polygon style="fill: #000000" points="554.833,261.812 544.786,266.716 547.334,261.74 544.881,256.717 "/>
    <polygon style="fill: none; fill-opacity:0; stroke-width: 2; stroke: #000000" points="554.833,261.812 544.786,266.716 547.334,261.74 544.881,256.717 "/>
  </g>
  <g>
    <line style="fill: none; fill-opacity:0; stroke-width: 2; stroke-dasharray: 4; stroke: #000000" x1="364.902" y1="275" x2="366.119" y2="365.265"/>
    <polygon style="fill: #000000" points="366.22,372.764 361.086,362.832 366.119,365.265 371.085,362.698 "/>
    <polygon style="fill: none; fill-opacity:0; stroke-width: 2; stroke: #000000" points="366.22,372.764 361.086,362.832 366.119,365.265 371.085,362.698 "/>
  </g>
  <g>
    <line style="fill: none; fill-opacity:0; stroke-width: 2; stroke-dasharray: 4; stroke: #000000" x1="469.495" y1="389.306" x2="544.275" y2="389.528"/>
    <polygon style="fill: #000000" points="551.775,389.55 541.76,394.521 544.275,389.528 541.79,384.521 "/>
    <polygon style="fill: none; fill-opacity:0; stroke-width: 2; stroke: #000000" points="551.775,389.55 541.76,394.521 544.275,389.528 541.79,384.521 "/>
  </g>
  <g>
    <line style="fill: none; fill-opacity:0; stroke-width: 2; stroke-dasharray: 4; stroke: #000000" x1="389.277" y1="274.981" x2="546.687" y2="370.932"/>
    <polygon style="fill: #000000" points="553.091,374.836 541.95,373.901 546.687,370.932 547.154,365.362 "/>
    <polygon style="fill: none; fill-opacity:0; stroke-width: 2; stroke: #000000" points="553.091,374.836 541.95,373.901 546.687,370.932 547.154,365.362 "/>
  </g>
</svg>
