<?xml version="1.0" encoding="UTF-8" standalone="no"?>
<!DOCTYPE svg PUBLIC "-//W3C//DTD SVG 1.0//EN" "http://www.w3.org/TR/2001/PR-SVG-20010719/DTD/svg10.dtd">
<svg width="15cm" height="9cm" viewBox="345 226 283 170" xmlns="http://www.w3.org/2000/svg" xmlns:xlink="http://www.w3.org/1999/xlink">
  <g>
    <rect style="fill: #ffffff" x="347" y="246" width="50" height="28"/>
    <rect style="fill: none; fill-opacity:0; stroke-width: 2; stroke: #000000" x="347" y="246" width="50" height="28"/>
    <rect style="fill: #ffffff" x="347" y="228" width="30" height="18"/>
    <rect style="fill: none; fill-opacity:0; stroke-width: 2; stroke: #000000" x="347" y="228" width="30" height="18"/>
    <text font-size="12.7998" style="fill: #000000;text-anchor:start;font-family:monospace;font-style:normal;font-weight:normal" x="353" y="263.9">
      <tspan x="353" y="263.9">ui</tspan>
    </text>
  </g>
  <g>
    <rect style="fill: #ffffff" x="490" y="246" width="89" height="28"/>
    <rect style="fill: none; fill-opacity:0; stroke-width: 2; stroke: #000000" x="490" y="246" width="89" height="28"/>
    <rect style="fill: #ffffff" x="490" y="228" width="30" height="18"/>
    <rect style="fill: none; fill-opacity:0; stroke-width: 2; stroke: #000000" x="490" y="228" width="30" height="18"/>
    <text font-size="12.7998" style="fill: #000000;text-anchor:start;font-family:monospace;font-style:normal;font-weight:normal" x="496" y="263.9">
      <tspan x="496" y="263.9">ui.widgets</tspan>
    </text>
  </g>
  <g>
    <rect style="fill: #ffffff" x="346" y="367" width="50.5" height="28"/>
    <rect style="fill: none; fill-opacity:0; stroke-width: 2; stroke: #000000" x="346" y="367" width="50.5" height="28"/>
    <rect style="fill: #ffffff" x="346" y="349" width="30" height="18"/>
    <rect style="fill: none; fill-opacity:0; stroke-width: 2; stroke: #000000" x="346" y="349" width="30" height="18"/>
    <text font-size="12.7998" style="fill: #000000;text-anchor:start;font-family:monospace;font-style:normal;font-weight:normal" x="352" y="384.9">
      <tspan x="352" y="384.9">world</tspan>
    </text>
  </g>
  <g>
    <rect style="fill: #ffffff" x="484" y="368" width="142.9" height="28"/>
    <rect style="fill: none; fill-opacity:0; stroke-width: 2; stroke: #000000" x="484" y="368" width="142.9" height="28"/>
    <rect style="fill: #ffffff" x="484" y="350" width="30" height="18"/>
    <rect style="fill: none; fill-opacity:0; stroke-width: 2; stroke: #000000" x="484" y="350" width="30" height="18"/>
    <text font-size="12.7998" style="fill: #000000;text-anchor:start;font-family:monospace;font-style:normal;font-weight:normal" x="490" y="385.9">
      <tspan x="490" y="385.9">world.gameobjects</tspan>
    </text>
  </g>
  <g>
    <line style="fill: none; fill-opacity:0; stroke-width: 2; stroke-dasharray: 4; stroke: #000000" x1="397.996" y1="260" x2="479.279" y2="260"/>
    <polygon style="fill: #000000" points="486.779,260 476.779,265 479.279,260 476.779,255 "/>
    <polygon style="fill: none; fill-opacity:0; stroke-width: 2; stroke: #000000" points="486.779,260 476.779,265 479.279,260 476.779,255 "/>
  </g>
  <g>
    <line style="fill: none; fill-opacity:0; stroke-width: 2; stroke-dasharray: 4; stroke: #000000" x1="371.907" y1="274.948" x2="371.515" y2="338.259"/>
    <polygon style="fill: #000000" points="371.468,345.759 366.531,335.728 371.515,338.259 376.53,335.79 "/>
    <polygon style="fill: none; fill-opacity:0; stroke-width: 2; stroke: #000000" points="371.468,345.759 366.531,335.728 371.515,338.259 376.53,335.79 "/>
  </g>
  <g>
    <line style="fill: none; fill-opacity:0; stroke-width: 2; stroke-dasharray: 4; stroke: #000000" x1="397.333" y1="381.142" x2="473.261" y2="381.554"/>
    <polygon style="fill: #000000" points="480.761,381.595 470.734,386.54 473.261,381.554 470.788,376.54 "/>
    <polygon style="fill: none; fill-opacity:0; stroke-width: 2; stroke: #000000" points="480.761,381.595 470.734,386.54 473.261,381.554 470.788,376.54 "/>
  </g>
  <g>
    <line style="fill: none; fill-opacity:0; stroke-width: 2; stroke-dasharray: 4; stroke: #000000" x1="394.394" y1="274.893" x2="497.808" y2="343.666"/>
    <polygon style="fill: #000000" points="504.053,347.819 492.957,346.445 497.808,343.666 498.495,338.118 "/>
    <polygon style="fill: none; fill-opacity:0; stroke-width: 2; stroke: #000000" points="504.053,347.819 492.957,346.445 497.808,343.666 498.495,338.118 "/>
  </g>
</svg>
