<?xml version="1.0" encoding="UTF-8" standalone="no"?>
<!DOCTYPE svg PUBLIC "-//W3C//DTD SVG 1.0//EN" "http://www.w3.org/TR/2001/PR-SVG-20010719/DTD/svg10.dtd">
<svg width="48cm" height="17cm" viewBox="240 223 956 339" xmlns="http://www.w3.org/2000/svg" xmlns:xlink="http://www.w3.org/1999/xlink">
  <g>
    <rect style="fill: #ffffff" x="274" y="246" width="181.4" height="28"/>
    <rect style="fill: none; fill-opacity:0; stroke-width: 2; stroke: #000000" x="274" y="246" width="181.4" height="28"/>
    <rect style="fill: #ffffff" x="274" y="228" width="30" height="18"/>
    <rect style="fill: none; fill-opacity:0; stroke-width: 2; stroke: #000000" x="274" y="228" width="30" height="18"/>
    <text font-size="12.8" style="fill: #000000;text-anchor:start;font-family:monospace;font-style:normal;font-weight:normal" x="280" y="263.9">
      <tspan x="280" y="263.9">fishingrodofdestiny.ui</tspan>
    </text>
  </g>
  <g>
    <rect style="fill: #ffffff" x="952" y="301" width="243" height="28"/>
    <rect style="fill: none; fill-opacity:0; stroke-width: 2; stroke: #000000" x="952" y="301" width="243" height="28"/>
    <rect style="fill: #ffffff" x="952" y="283" width="30" height="18"/>
    <rect style="fill: none; fill-opacity:0; stroke-width: 2; stroke: #000000" x="952" y="283" width="30" height="18"/>
    <text font-size="12.8" style="fill: #000000;text-anchor:start;font-family:monospace;font-style:normal;font-weight:normal" x="958" y="318.9">
      <tspan x="958" y="318.9">fishingrodofdestiny.ui.widgets</tspan>
    </text>
  </g>
  <g>
    <rect style="fill: #ffffff" x="264" y="375" width="204.5" height="28"/>
    <rect style="fill: none; fill-opacity:0; stroke-width: 2; stroke: #000000" x="264" y="375" width="204.5" height="28"/>
    <rect style="fill: #ffffff" x="264" y="357" width="30" height="18"/>
    <rect style="fill: none; fill-opacity:0; stroke-width: 2; stroke: #000000" x="264" y="357" width="30" height="18"/>
    <text font-size="12.8" style="fill: #000000;text-anchor:start;font-family:monospace;font-style:normal;font-weight:normal" x="270" y="392.9">
      <tspan x="270" y="392.9">fishingrodofdestiny.world</tspan>
    </text>
  </g>
  <g>
    <rect style="fill: #ffffff" x="602" y="488" width="296.9" height="28"/>
    <rect style="fill: none; fill-opacity:0; stroke-width: 2; stroke: #000000" x="602" y="488" width="296.9" height="28"/>
    <rect style="fill: #ffffff" x="602" y="470" width="30" height="18"/>
    <rect style="fill: none; fill-opacity:0; stroke-width: 2; stroke: #000000" x="602" y="470" width="30" height="18"/>
    <text font-size="12.8" style="fill: #000000;text-anchor:start;font-family:monospace;font-style:normal;font-weight:normal" x="608" y="505.9">
      <tspan x="608" y="505.9">fishingrodofdestiny.world.gameobjects</tspan>
    </text>
  </g>
  <g>
    <line style="fill: none; fill-opacity:0; stroke-width: 2; stroke-dasharray: 4; stroke: #000000" x1="455.4" y1="260" x2="576.266" y2="257.224"/>
    <polygon style="fill: #000000" points="583.765,257.051 573.882,262.28 576.266,257.224 573.652,252.282 "/>
    <polygon style="fill: none; fill-opacity:0; stroke-width: 2; stroke: #000000" points="583.765,257.051 573.882,262.28 576.266,257.224 573.652,252.282 "/>
  </g>
  <g>
    <line style="fill: none; fill-opacity:0; stroke-width: 2; stroke-dasharray: 4; stroke: #000000" x1="364.7" y1="274" x2="366.101" y2="365.265"/>
    <polygon style="fill: #000000" points="366.216,372.764 361.063,362.842 366.101,365.265 371.062,362.689 "/>
    <polygon style="fill: none; fill-opacity:0; stroke-width: 2; stroke: #000000" points="366.216,372.764 361.063,362.842 366.101,365.265 371.062,362.689 "/>
  </g>
  <g>
    <line style="fill: none; fill-opacity:0; stroke-width: 2; stroke-dasharray: 4; stroke: #000000" x1="707.5" y1="271" x2="748.56" y2="478.449"/>
    <polygon style="fill: #000000" points="750.016,485.806 743.169,476.968 748.56,478.449 752.979,475.026 "/>
    <polygon style="fill: none; fill-opacity:0; stroke-width: 2; stroke: #000000" points="750.016,485.806 743.169,476.968 748.56,478.449 752.979,475.026 "/>
  </g>
  <g>
    <line style="fill: none; fill-opacity:0; stroke-width: 2; stroke-dasharray: 4; stroke: #000000" x1="468.5" y1="403" x2="593.787" y2="482.771"/>
    <polygon style="fill: #000000" points="600.114,486.799 588.993,485.646 593.787,482.771 594.364,477.211 "/>
    <polygon style="fill: none; fill-opacity:0; stroke-width: 2; stroke: #000000" points="600.114,486.799 588.993,485.646 593.787,482.771 594.364,477.211 "/>
  </g>
  <g>
    <rect style="fill: #ffffff" x="586" y="243" width="243" height="28"/>
    <rect style="fill: none; fill-opacity:0; stroke-width: 2; stroke: #000000" x="586" y="243" width="243" height="28"/>
    <rect style="fill: #ffffff" x="586" y="225" width="30" height="18"/>
    <rect style="fill: none; fill-opacity:0; stroke-width: 2; stroke: #000000" x="586" y="225" width="30" height="18"/>
    <text font-size="12.7998" style="fill: #000000;text-anchor:start;font-family:monospace;font-style:normal;font-weight:normal" x="592" y="260.9">
      <tspan x="592" y="260.9">fishingrodofdestiny.ui.screens</tspan>
    </text>
  </g>
  <g>
    <rect style="fill: #ffffff" x="242" y="533" width="250.7" height="28"/>
    <rect style="fill: none; fill-opacity:0; stroke-width: 2; stroke: #000000" x="242" y="533" width="250.7" height="28"/>
    <rect style="fill: #ffffff" x="242" y="515" width="30" height="18"/>
    <rect style="fill: none; fill-opacity:0; stroke-width: 2; stroke: #000000" x="242" y="515" width="30" height="18"/>
    <text font-size="12.7998" style="fill: #000000;text-anchor:start;font-family:monospace;font-style:normal;font-weight:normal" x="248" y="550.9">
      <tspan x="248" y="550.9">fishingrodofdestiny.world.tiles</tspan>
    </text>
  </g>
  <g>
    <line style="fill: none; fill-opacity:0; stroke-width: 2; stroke-dasharray: 4; stroke: #000000" x1="829" y1="257" x2="943.194" y2="310.848"/>
    <polygon style="fill: #000000" points="949.978,314.046 938.8,314.304 943.194,310.848 943.065,305.259 "/>
    <polygon style="fill: none; fill-opacity:0; stroke-width: 2; stroke: #000000" points="949.978,314.046 938.8,314.304 943.194,310.848 943.065,305.259 "/>
  </g>
  <g>
    <line style="fill: none; fill-opacity:0; stroke-width: 2; stroke-dasharray: 4; stroke: #000000" x1="707.5" y1="271" x2="477.427" y2="371.115"/>
    <polygon style="fill: #000000" points="470.55,374.108 477.725,365.533 477.427,371.115 481.715,374.702 "/>
    <polygon style="fill: none; fill-opacity:0; stroke-width: 2; stroke: #000000" points="470.55,374.108 477.725,365.533 477.427,371.115 481.715,374.702 "/>
  </g>
  <g>
    <line style="fill: none; fill-opacity:0; stroke-width: 2; stroke-dasharray: 4; stroke: #000000" x1="952" y1="329" x2="901.984" y2="478.765"/>
    <polygon style="fill: #000000" points="899.608,485.879 898.033,474.81 901.984,478.765 907.518,477.978 "/>
    <polygon style="fill: none; fill-opacity:0; stroke-width: 2; stroke: #000000" points="899.608,485.879 898.033,474.81 901.984,478.765 907.518,477.978 "/>
  </g>
  <g>
    <line style="fill: none; fill-opacity:0; stroke-width: 2; stroke-dasharray: 4; stroke: #000000" x1="952" y1="329" x2="478.162" y2="387.801"/>
    <polygon style="fill: #000000" points="470.719,388.725 480.027,382.531 478.162,387.801 481.259,392.455 "/>
    <polygon style="fill: none; fill-opacity:0; stroke-width: 2; stroke: #000000" points="470.719,388.725 480.027,382.531 478.162,387.801 481.259,392.455 "/>
  </g>
  <g>
    <line style="fill: none; fill-opacity:0; stroke-width: 2; stroke-dasharray: 4; stroke: #000000" x1="366.25" y1="403" x2="367.268" y2="523.264"/>
    <polygon style="fill: #000000" points="367.331,530.764 362.247,520.807 367.268,523.264 372.246,520.722 "/>
    <polygon style="fill: none; fill-opacity:0; stroke-width: 2; stroke: #000000" points="367.331,530.764 362.247,520.807 367.268,523.264 372.246,520.722 "/>
  </g>
  <g>
    <line style="fill: none; fill-opacity:0; stroke-width: 2; stroke-dasharray: 4; stroke: #000000" x1="602" y1="516" x2="502.067" y2="544.343"/>
    <polygon style="fill: #000000" points="494.851,546.39 503.107,538.851 502.067,544.343 505.836,548.472 "/>
    <polygon style="fill: none; fill-opacity:0; stroke-width: 2; stroke: #000000" points="494.851,546.39 503.107,538.851 502.067,544.343 505.836,548.472 "/>
  </g>
  <g>
    <line style="fill: none; fill-opacity:0; stroke-width: 2; stroke-dasharray: 4; stroke: #000000" x1="492.7" y1="533" x2="373.038" y2="409.979"/>
    <polygon style="fill: #000000" points="367.809,404.603 378.366,408.285 373.038,409.979 371.197,415.257 "/>
    <polygon style="fill: none; fill-opacity:0; stroke-width: 2; stroke: #000000" points="367.809,404.603 378.366,408.285 373.038,409.979 371.197,415.257 "/>
  </g>
  <g>
    <line style="fill: none; fill-opacity:0; stroke-width: 2; stroke-dasharray: 4; stroke: #000000" x1="492.7" y1="533" x2="592.633" y2="504.657"/>
    <polygon style="fill: #000000" points="599.849,502.61 591.593,510.149 592.633,504.657 588.864,500.528 "/>
    <polygon style="fill: none; fill-opacity:0; stroke-width: 2; stroke: #000000" points="599.849,502.61 591.593,510.149 592.633,504.657 588.864,500.528 "/>
  </g>
  <g>
    <rect style="fill: #ffffff" x="956" y="414" width="227.6" height="28"/>
    <rect style="fill: none; fill-opacity:0; stroke-width: 2; stroke: #000000" x="956" y="414" width="227.6" height="28"/>
    <rect style="fill: #ffffff" x="956" y="396" width="30" height="18"/>
    <rect style="fill: none; fill-opacity:0; stroke-width: 2; stroke: #000000" x="956" y="396" width="30" height="18"/>
    <text font-size="12.7998" style="fill: #000000;text-anchor:start;font-family:monospace;font-style:normal;font-weight:normal" x="962" y="431.9">
      <tspan x="962" y="431.9">fishingrodofdestiny.settings</tspan>
    </text>
  </g>
  <g>
    <line style="fill: none; fill-opacity:0; stroke-width: 2; stroke-dasharray: 4; stroke: #000000" x1="829" y1="257" x2="950.195" y2="420.184"/>
    <polygon style="fill: #000000" points="954.667,426.205 944.69,421.158 950.195,420.184 952.718,415.196 "/>
    <polygon style="fill: none; fill-opacity:0; stroke-width: 2; stroke: #000000" points="954.667,426.205 944.69,421.158 950.195,420.184 952.718,415.196 "/>
  </g>
  <g>
    <line style="fill: none; fill-opacity:0; stroke-width: 2; stroke-dasharray: 4; stroke: #000000" x1="956" y1="442" x2="905.612" y2="494.947"/>
    <polygon style="fill: #000000" points="900.442,500.38 903.713,489.689 905.612,494.947 910.957,496.583 "/>
    <polygon style="fill: none; fill-opacity:0; stroke-width: 2; stroke: #000000" points="900.442,500.38 903.713,489.689 905.612,494.947 910.957,496.583 "/>
  </g>
  <g>
    <line style="fill: none; fill-opacity:0; stroke-width: 2; stroke-dasharray: 4; stroke: #000000" x1="602" y1="502" x2="405.419" y2="407.775"/>
    <polygon style="fill: #000000" points="398.656,404.533 409.835,404.346 405.419,407.775 405.512,413.364 "/>
    <polygon style="fill: none; fill-opacity:0; stroke-width: 2; stroke: #000000" points="398.656,404.533 409.835,404.346 405.419,407.775 405.512,413.364 "/>
  </g>
</svg>
