<?xml version="1.0" encoding="UTF-8" standalone="no"?>
<!DOCTYPE svg PUBLIC "-//W3C//DTD SVG 1.0//EN" "http://www.w3.org/TR/2001/PR-SVG-20010719/DTD/svg10.dtd">
<svg width="49cm" height="20cm" viewBox="240 224 963 398" xmlns="http://www.w3.org/2000/svg" xmlns:xlink="http://www.w3.org/1999/xlink">
  <g>
    <rect style="fill: #ffffff" x="274" y="246" width="189.1" height="28"/>
    <rect style="fill: none; fill-opacity:0; stroke-width: 2; stroke: #000000" x="274" y="246" width="189.1" height="28"/>
    <rect style="fill: #ffffff" x="274" y="228" width="30" height="18"/>
    <rect style="fill: none; fill-opacity:0; stroke-width: 2; stroke: #000000" x="274" y="228" width="30" height="18"/>
    <text font-size="12.8" style="fill: #000000;text-anchor:start;font-family:monospace;font-style:normal;font-weight:normal" x="280" y="263.9">
      <tspan x="280" y="263.9">fishingrodofdestiny.ui </tspan>
    </text>
  </g>
  <g>
    <rect style="fill: #ffffff" x="952" y="301" width="250.7" height="28"/>
    <rect style="fill: none; fill-opacity:0; stroke-width: 2; stroke: #000000" x="952" y="301" width="250.7" height="28"/>
    <rect style="fill: #ffffff" x="952" y="283" width="30" height="18"/>
    <rect style="fill: none; fill-opacity:0; stroke-width: 2; stroke: #000000" x="952" y="283" width="30" height="18"/>
    <text font-size="12.8" style="fill: #000000;text-anchor:start;font-family:monospace;font-style:normal;font-weight:normal" x="958" y="318.9">
      <tspan x="958" y="318.9">fishingrodofdestiny.ui.widgets </tspan>
    </text>
  </g>
  <g>
    <rect style="fill: #ffffff" x="264" y="375" width="212.2" height="28"/>
    <rect style="fill: none; fill-opacity:0; stroke-width: 2; stroke: #000000" x="264" y="375" width="212.2" height="28"/>
    <rect style="fill: #ffffff" x="264" y="357" width="30" height="18"/>
    <rect style="fill: none; fill-opacity:0; stroke-width: 2; stroke: #000000" x="264" y="357" width="30" height="18"/>
    <text font-size="12.8" style="fill: #000000;text-anchor:start;font-family:monospace;font-style:normal;font-weight:normal" x="270" y="392.9">
      <tspan x="270" y="392.9">fishingrodofdestiny.world </tspan>
    </text>
  </g>
  <g>
    <rect style="fill: #ffffff" x="602" y="488" width="304.6" height="28"/>
    <rect style="fill: none; fill-opacity:0; stroke-width: 2; stroke: #000000" x="602" y="488" width="304.6" height="28"/>
    <rect style="fill: #ffffff" x="602" y="470" width="30" height="18"/>
    <rect style="fill: none; fill-opacity:0; stroke-width: 2; stroke: #000000" x="602" y="470" width="30" height="18"/>
    <text font-size="12.8" style="fill: #000000;text-anchor:start;font-family:monospace;font-style:normal;font-weight:normal" x="608" y="505.9">
      <tspan x="608" y="505.9">fishingrodofdestiny.world.gameobjects </tspan>
    </text>
  </g>
  <g>
    <line style="fill: none; fill-opacity:0; stroke-width: 2; stroke-dasharray: 4; stroke: #000000" x1="463.1" y1="260" x2="576.267" y2="257.238"/>
    <polygon style="fill: #000000" points="583.765,257.055 573.89,262.297 576.267,257.238 573.646,252.3 "/>
    <polygon style="fill: none; fill-opacity:0; stroke-width: 2; stroke: #000000" points="583.765,257.055 573.89,262.297 576.267,257.238 573.646,252.3 "/>
  </g>
  <g>
    <line style="fill: none; fill-opacity:0; stroke-width: 2; stroke-dasharray: 4; stroke: #000000" x1="368.55" y1="274" x2="369.951" y2="365.265"/>
    <polygon style="fill: #000000" points="370.066,372.764 364.913,362.842 369.951,365.265 374.912,362.689 "/>
    <polygon style="fill: none; fill-opacity:0; stroke-width: 2; stroke: #000000" points="370.066,372.764 364.913,362.842 369.951,365.265 374.912,362.689 "/>
  </g>
  <g>
    <line style="fill: none; fill-opacity:0; stroke-width: 2; stroke-dasharray: 4; stroke: #000000" x1="711.35" y1="271" x2="752.41" y2="478.449"/>
    <polygon style="fill: #000000" points="753.866,485.806 747.019,476.968 752.41,478.449 756.829,475.026 "/>
    <polygon style="fill: none; fill-opacity:0; stroke-width: 2; stroke: #000000" points="753.866,485.806 747.019,476.968 752.41,478.449 756.829,475.026 "/>
  </g>
  <g>
    <line style="fill: none; fill-opacity:0; stroke-width: 2; stroke-dasharray: 4; stroke: #000000" x1="476.2" y1="403" x2="593.933" y2="482.549"/>
    <polygon style="fill: #000000" points="600.147,486.748 589.062,485.292 593.933,482.549 594.661,477.007 "/>
    <polygon style="fill: none; fill-opacity:0; stroke-width: 2; stroke: #000000" points="600.147,486.748 589.062,485.292 593.933,482.549 594.661,477.007 "/>
  </g>
  <g>
    <rect style="fill: #ffffff" x="586" y="243" width="250.7" height="28"/>
    <rect style="fill: none; fill-opacity:0; stroke-width: 2; stroke: #000000" x="586" y="243" width="250.7" height="28"/>
    <rect style="fill: #ffffff" x="586" y="225" width="30" height="18"/>
    <rect style="fill: none; fill-opacity:0; stroke-width: 2; stroke: #000000" x="586" y="225" width="30" height="18"/>
    <text font-size="12.8" style="fill: #000000;text-anchor:start;font-family:monospace;font-style:normal;font-weight:normal" x="592" y="260.9">
      <tspan x="592" y="260.9">fishingrodofdestiny.ui.screens </tspan>
    </text>
  </g>
  <g>
    <rect style="fill: #ffffff" x="242" y="533" width="258.4" height="28"/>
    <rect style="fill: none; fill-opacity:0; stroke-width: 2; stroke: #000000" x="242" y="533" width="258.4" height="28"/>
    <rect style="fill: #ffffff" x="242" y="515" width="30" height="18"/>
    <rect style="fill: none; fill-opacity:0; stroke-width: 2; stroke: #000000" x="242" y="515" width="30" height="18"/>
    <text font-size="12.8" style="fill: #000000;text-anchor:start;font-family:monospace;font-style:normal;font-weight:normal" x="248" y="550.9">
      <tspan x="248" y="550.9">fishingrodofdestiny.world.tiles </tspan>
    </text>
  </g>
  <g>
    <line style="fill: none; fill-opacity:0; stroke-width: 2; stroke-dasharray: 4; stroke: #000000" x1="836.7" y1="257" x2="943.302" y2="310.625"/>
    <polygon style="fill: #000000" points="950.002,313.995 938.822,313.968 943.302,310.625 943.316,305.035 "/>
    <polygon style="fill: none; fill-opacity:0; stroke-width: 2; stroke: #000000" points="950.002,313.995 938.822,313.968 943.302,310.625 943.316,305.035 "/>
  </g>
  <g>
    <line style="fill: none; fill-opacity:0; stroke-width: 2; stroke-dasharray: 4; stroke: #000000" x1="711.35" y1="271" x2="485.104" y2="371.062"/>
    <polygon style="fill: #000000" points="478.245,374.096 485.368,365.478 485.104,371.062 489.413,374.624 "/>
    <polygon style="fill: none; fill-opacity:0; stroke-width: 2; stroke: #000000" points="478.245,374.096 485.368,365.478 485.104,371.062 489.413,374.624 "/>
  </g>
  <g>
    <line style="fill: none; fill-opacity:0; stroke-width: 2; stroke-dasharray: 4; stroke: #000000" x1="952" y1="329" x2="909.273" y2="478.638"/>
    <polygon style="fill: #000000" points="907.214,485.85 905.152,474.861 909.273,478.638 914.767,477.607 "/>
    <polygon style="fill: none; fill-opacity:0; stroke-width: 2; stroke: #000000" points="907.214,485.85 905.152,474.861 909.273,478.638 914.767,477.607 "/>
  </g>
  <g>
    <line style="fill: none; fill-opacity:0; stroke-width: 2; stroke-dasharray: 4; stroke: #000000" x1="952" y1="329" x2="485.86" y2="387.782"/>
    <polygon style="fill: #000000" points="478.418,388.72 487.714,382.508 485.86,387.782 488.965,392.43 "/>
    <polygon style="fill: none; fill-opacity:0; stroke-width: 2; stroke: #000000" points="478.418,388.72 487.714,382.508 485.86,387.782 488.965,392.43 "/>
  </g>
  <g>
    <line style="fill: none; fill-opacity:0; stroke-width: 2; stroke-dasharray: 4; stroke: #000000" x1="370.1" y1="403" x2="371.118" y2="523.264"/>
    <polygon style="fill: #000000" points="371.181,530.764 366.097,520.807 371.118,523.264 376.096,520.722 "/>
    <polygon style="fill: none; fill-opacity:0; stroke-width: 2; stroke: #000000" points="371.181,530.764 366.097,520.807 371.118,523.264 376.096,520.722 "/>
  </g>
  <g>
    <line style="fill: none; fill-opacity:0; stroke-width: 2; stroke-dasharray: 4; stroke: #000000" x1="602" y1="516" x2="509.712" y2="544.159"/>
    <polygon style="fill: #000000" points="502.539,546.347 510.644,538.647 509.712,544.159 513.563,548.211 "/>
    <polygon style="fill: none; fill-opacity:0; stroke-width: 2; stroke: #000000" points="502.539,546.347 510.644,538.647 509.712,544.159 513.563,548.211 "/>
  </g>
  <g>
    <line style="fill: none; fill-opacity:0; stroke-width: 2; stroke-dasharray: 4; stroke: #000000" x1="500.4" y1="533" x2="376.992" y2="409.877"/>
    <polygon style="fill: #000000" points="371.683,404.579 382.294,408.103 376.992,409.877 375.231,415.182 "/>
    <polygon style="fill: none; fill-opacity:0; stroke-width: 2; stroke: #000000" points="371.683,404.579 382.294,408.103 376.992,409.877 375.231,415.182 "/>
  </g>
  <g>
    <line style="fill: none; fill-opacity:0; stroke-width: 2; stroke-dasharray: 4; stroke: #000000" x1="500.4" y1="533" x2="592.688" y2="504.841"/>
    <polygon style="fill: #000000" points="599.861,502.653 591.756,510.353 592.688,504.841 588.837,500.789 "/>
    <polygon style="fill: none; fill-opacity:0; stroke-width: 2; stroke: #000000" points="599.861,502.653 591.756,510.353 592.688,504.841 588.837,500.789 "/>
  </g>
  <g>
    <rect style="fill: #ffffff" x="956" y="414" width="235.3" height="28"/>
    <rect style="fill: none; fill-opacity:0; stroke-width: 2; stroke: #000000" x="956" y="414" width="235.3" height="28"/>
    <rect style="fill: #ffffff" x="956" y="396" width="30" height="18"/>
    <rect style="fill: none; fill-opacity:0; stroke-width: 2; stroke: #000000" x="956" y="396" width="30" height="18"/>
    <text font-size="12.8" style="fill: #000000;text-anchor:start;font-family:monospace;font-style:normal;font-weight:normal" x="962" y="431.9">
      <tspan x="962" y="431.9">fishingrodofdestiny.settings </tspan>
    </text>
  </g>
  <g>
    <line style="fill: none; fill-opacity:0; stroke-width: 2; stroke-dasharray: 4; stroke: #000000" x1="836.7" y1="271" x2="950.109" y2="420.248"/>
    <polygon style="fill: #000000" points="954.647,426.22 944.616,421.283 950.109,420.248 952.578,415.232 "/>
    <polygon style="fill: none; fill-opacity:0; stroke-width: 2; stroke: #000000" points="954.647,426.22 944.616,421.283 950.109,420.248 952.578,415.232 "/>
  </g>
  <g>
    <line style="fill: none; fill-opacity:0; stroke-width: 2; stroke-dasharray: 4; stroke: #000000" x1="956" y1="442" x2="912.788" y2="494.484"/>
    <polygon style="fill: #000000" points="908.021,500.274 910.517,489.376 912.788,494.484 918.237,495.732 "/>
    <polygon style="fill: none; fill-opacity:0; stroke-width: 2; stroke: #000000" points="908.021,500.274 910.517,489.376 912.788,494.484 918.237,495.732 "/>
  </g>
  <g>
    <line style="fill: none; fill-opacity:0; stroke-width: 2; stroke-dasharray: 4; stroke: #000000" x1="602" y1="502" x2="408.746" y2="407.831"/>
    <polygon style="fill: #000000" points="402.003,404.546 413.183,404.432 408.746,407.831 408.803,413.421 "/>
    <polygon style="fill: none; fill-opacity:0; stroke-width: 2; stroke: #000000" points="402.003,404.546 413.183,404.432 408.746,407.831 408.803,413.421 "/>
  </g>
  <g>
    <rect style="fill: #ffffff" x="639" y="593" width="235.3" height="28"/>
    <rect style="fill: none; fill-opacity:0; stroke-width: 2; stroke: #000000" x="639" y="593" width="235.3" height="28"/>
    <rect style="fill: #ffffff" x="639" y="575" width="30" height="18"/>
    <rect style="fill: none; fill-opacity:0; stroke-width: 2; stroke: #000000" x="639" y="575" width="30" height="18"/>
    <text font-size="12.8" style="fill: #000000;text-anchor:start;font-family:monospace;font-style:normal;font-weight:normal" x="645" y="610.9">
      <tspan x="645" y="610.9">fishingrodofdestiny.observer </tspan>
    </text>
  </g>
  <g>
    <line style="fill: none; fill-opacity:0; stroke-width: 2; stroke-dasharray: 4; stroke: #000000" x1="754.3" y1="516" x2="756.353" y2="583.268"/>
    <polygon style="fill: #000000" points="756.582,590.765 751.279,580.922 756.353,583.268 761.274,580.617 "/>
    <polygon style="fill: none; fill-opacity:0; stroke-width: 2; stroke: #000000" points="756.582,590.765 751.279,580.922 756.353,583.268 761.274,580.617 "/>
  </g>
  <g>
    <line style="fill: none; fill-opacity:0; stroke-width: 2; stroke-dasharray: 4; stroke: #000000" x1="711.35" y1="271" x2="417.335" y2="527.598"/>
    <polygon style="fill: #000000" points="411.685,532.53 415.931,522.187 417.335,527.598 422.507,529.721 "/>
    <polygon style="fill: none; fill-opacity:0; stroke-width: 2; stroke: #000000" points="411.685,532.53 415.931,522.187 417.335,527.598 422.507,529.721 "/>
  </g>
</svg>
