<?xml version="1.0" encoding="UTF-8" standalone="no"?>
<!DOCTYPE svg PUBLIC "-//W3C//DTD SVG 1.0//EN" "http://www.w3.org/TR/2001/PR-SVG-20010719/DTD/svg10.dtd">
<svg width="50cm" height="24cm" viewBox="-197 55 982 478" xmlns="http://www.w3.org/2000/svg" xmlns:xlink="http://www.w3.org/1999/xlink">
  <g>
    <rect style="fill: #ffffff" x="180.2" y="74.45" width="189.1" height="28"/>
    <rect style="fill: none; fill-opacity:0; stroke-width: 2; stroke: #000000" x="180.2" y="74.45" width="189.1" height="28"/>
    <rect style="fill: #ffffff" x="180.2" y="56.45" width="30" height="18"/>
    <rect style="fill: none; fill-opacity:0; stroke-width: 2; stroke: #000000" x="180.2" y="56.45" width="30" height="18"/>
    <text font-size="12.8" style="fill: #000000;text-anchor:start;font-family:monospace;font-style:normal;font-weight:normal" x="186.2" y="92.35">
      <tspan x="186.2" y="92.35">fishingrodofdestiny.ui </tspan>
    </text>
  </g>
  <g>
    <rect style="fill: #ffffff" x="110.65" y="503.9" width="212.2" height="28"/>
    <rect style="fill: none; fill-opacity:0; stroke-width: 2; stroke: #000000" x="110.65" y="503.9" width="212.2" height="28"/>
    <rect style="fill: #ffffff" x="110.65" y="485.9" width="30" height="18"/>
    <rect style="fill: none; fill-opacity:0; stroke-width: 2; stroke: #000000" x="110.65" y="485.9" width="30" height="18"/>
    <text font-size="12.8" style="fill: #000000;text-anchor:start;font-family:monospace;font-style:normal;font-weight:normal" x="116.65" y="521.8">
      <tspan x="116.65" y="521.8">fishingrodofdestiny.world </tspan>
    </text>
  </g>
  <g>
    <line style="fill: none; fill-opacity:0; stroke-width: 2; stroke-dasharray: 4; stroke: #000000" x1="274.703" y1="114.456" x2="274.018" y2="492.264"/>
    <polygon style="fill: #000000" points="279.703,114.465 274.721,104.456 269.703,114.447 "/>
    <polygon style="fill: none; fill-opacity:0; stroke-width: 2; stroke: #000000" points="279.703,114.465 274.721,104.456 269.703,114.447 "/>
    <polygon style="fill: #000000" points="274.004,499.764 269.022,489.755 274.018,492.264 279.022,489.773 "/>
    <polygon style="fill: none; fill-opacity:0; stroke-width: 2; stroke: #000000" points="274.004,499.764 269.022,489.755 274.018,492.264 279.022,489.773 "/>
  </g>
  <g>
    <rect style="fill: #ffffff" x="-195.9" y="222.476" width="235.3" height="28"/>
    <rect style="fill: none; fill-opacity:0; stroke-width: 2; stroke: #000000" x="-195.9" y="222.476" width="235.3" height="28"/>
    <rect style="fill: #ffffff" x="-195.9" y="204.476" width="30" height="18"/>
    <rect style="fill: none; fill-opacity:0; stroke-width: 2; stroke: #000000" x="-195.9" y="204.476" width="30" height="18"/>
    <text font-size="12.8" style="fill: #000000;text-anchor:start;font-family:monospace;font-style:normal;font-weight:normal" x="-189.9" y="240.376">
      <tspan x="-189.9" y="240.376">fishingrodofdestiny.settings </tspan>
    </text>
  </g>
  <g>
    <line style="fill: none; fill-opacity:0; stroke-width: 2; stroke-dasharray: 4; stroke: #000000" x1="234.486" y1="103.42" x2="-61.8743" y2="213.607"/>
    <polygon style="fill: #000000" points="-68.9041,216.221 -61.2735,208.049 -61.8743,213.607 -57.7885,217.422 "/>
    <polygon style="fill: none; fill-opacity:0; stroke-width: 2; stroke: #000000" points="-68.9041,216.221 -61.2735,208.049 -61.8743,213.607 -57.7885,217.422 "/>
  </g>
  <g>
    <line style="fill: none; fill-opacity:0; stroke-width: 2; stroke-dasharray: 4; stroke: #000000" x1="-78.25" y1="250.476" x2="97.2631" y2="491.134"/>
    <polygon style="fill: #000000" points="101.682,497.193 91.7502,492.06 97.2631,491.134 99.8297,486.168 "/>
    <polygon style="fill: none; fill-opacity:0; stroke-width: 2; stroke: #000000" points="101.682,497.193 91.7502,492.06 97.2631,491.134 99.8297,486.168 "/>
  </g>
  <g>
    <rect style="fill: #ffffff" x="11.1" y="304.9" width="235.3" height="28"/>
    <rect style="fill: none; fill-opacity:0; stroke-width: 2; stroke: #000000" x="11.1" y="304.9" width="235.3" height="28"/>
    <rect style="fill: #ffffff" x="11.1" y="286.9" width="30" height="18"/>
    <rect style="fill: none; fill-opacity:0; stroke-width: 2; stroke: #000000" x="11.1" y="286.9" width="30" height="18"/>
    <text font-size="12.8" style="fill: #000000;text-anchor:start;font-family:monospace;font-style:normal;font-weight:normal" x="17.1" y="322.8">
      <tspan x="17.1" y="322.8">fishingrodofdestiny.observer </tspan>
    </text>
  </g>
  <g>
    <line style="fill: none; fill-opacity:0; stroke-width: 2; stroke-dasharray: 4; stroke: #000000" x1="216.75" y1="503.9" x2="133.205" y2="341.557"/>
    <polygon style="fill: #000000" points="129.773,334.888 138.795,341.492 133.205,341.557 129.903,346.068 "/>
    <polygon style="fill: none; fill-opacity:0; stroke-width: 2; stroke: #000000" points="129.773,334.888 138.795,341.492 133.205,341.557 129.903,346.068 "/>
  </g>
  <g>
    <rect style="fill: #ffffff" x="586.95" y="214.476" width="196.8" height="28"/>
    <rect style="fill: none; fill-opacity:0; stroke-width: 2; stroke: #000000" x="586.95" y="214.476" width="196.8" height="28"/>
    <rect style="fill: #ffffff" x="586.95" y="196.476" width="30" height="18"/>
    <rect style="fill: none; fill-opacity:0; stroke-width: 2; stroke: #000000" x="586.95" y="196.476" width="30" height="18"/>
    <text font-size="12.8" style="fill: #000000;text-anchor:start;font-family:monospace;font-style:normal;font-weight:normal" x="592.95" y="232.376">
      <tspan x="592.95" y="232.376">fishingrodofdestiny.dao </tspan>
    </text>
  </g>
  <g>
    <rect style="fill: #ffffff" x="437" y="74.45" width="235.3" height="28"/>
    <rect style="fill: none; fill-opacity:0; stroke-width: 2; stroke: #000000" x="437" y="74.45" width="235.3" height="28"/>
    <rect style="fill: #ffffff" x="437" y="56.45" width="30" height="18"/>
    <rect style="fill: none; fill-opacity:0; stroke-width: 2; stroke: #000000" x="437" y="56.45" width="30" height="18"/>
    <text font-size="12.8" style="fill: #000000;text-anchor:start;font-family:monospace;font-style:normal;font-weight:normal" x="443" y="92.35">
      <tspan x="443" y="92.35">fishingrodofdestiny.savedata </tspan>
    </text>
  </g>
  <g>
    <rect style="fill: #ffffff" x="435" y="334.476" width="243" height="28"/>
    <rect style="fill: none; fill-opacity:0; stroke-width: 2; stroke: #000000" x="435" y="334.476" width="243" height="28"/>
    <rect style="fill: #ffffff" x="435" y="316.476" width="30" height="18"/>
    <rect style="fill: none; fill-opacity:0; stroke-width: 2; stroke: #000000" x="435" y="316.476" width="30" height="18"/>
    <text font-size="12.8" style="fill: #000000;text-anchor:start;font-family:monospace;font-style:normal;font-weight:normal" x="441" y="352.376">
      <tspan x="441" y="352.376">fishingrodofdestiny.resources </tspan>
    </text>
  </g>
  <g>
    <line style="fill: none; fill-opacity:0; stroke-width: 2; stroke-dasharray: 4; stroke: #000000" x1="630.303" y1="116.734" x2="664.804" y2="186.77"/>
    <polygon style="fill: #000000" points="626.988,110.006 635.893,116.767 630.303,116.734 626.922,121.186 "/>
    <polygon style="fill: none; fill-opacity:0; stroke-width: 2; stroke: #000000" points="626.988,110.006 635.893,116.767 630.303,116.734 626.922,121.186 "/>
    <polygon style="fill: #000000" points="668.119,193.498 659.214,186.737 664.804,186.77 668.185,182.318 "/>
    <polygon style="fill: none; fill-opacity:0; stroke-width: 2; stroke: #000000" points="668.119,193.498 659.214,186.737 664.804,186.77 668.185,182.318 "/>
  </g>
  <g>
    <line style="fill: none; fill-opacity:0; stroke-width: 2; stroke-dasharray: 4; stroke: #000000" x1="591.937" y1="315.473" x2="662.111" y2="250.119"/>
    <polygon style="fill: #000000" points="667.6,245.007 663.689,255.482 662.111,250.119 656.874,248.164 "/>
    <polygon style="fill: none; fill-opacity:0; stroke-width: 2; stroke: #000000" points="667.6,245.007 663.689,255.482 662.111,250.119 656.874,248.164 "/>
  </g>
  <g>
    <line style="fill: none; fill-opacity:0; stroke-width: 2; stroke-dasharray: 4; stroke: #000000" x1="291.001" y1="103.448" x2="513.851" y2="309.116"/>
    <polygon style="fill: #000000" points="519.363,314.202 508.623,311.095 513.851,309.116 515.405,303.746 "/>
    <polygon style="fill: none; fill-opacity:0; stroke-width: 2; stroke: #000000" points="519.363,314.202 508.623,311.095 513.851,309.116 515.405,303.746 "/>
  </g>
  <g>
    <line style="fill: none; fill-opacity:0; stroke-width: 2; stroke-dasharray: 4; stroke: #000000" x1="322.85" y1="503.9" x2="525.847" y2="368.866"/>
    <polygon style="fill: #000000" points="532.092,364.712 526.535,374.414 525.847,368.866 520.996,366.088 "/>
    <polygon style="fill: none; fill-opacity:0; stroke-width: 2; stroke: #000000" points="532.092,364.712 526.535,374.414 525.847,368.866 520.996,366.088 "/>
  </g>
  <g>
    <line style="fill: none; fill-opacity:0; stroke-width: 2; stroke-dasharray: 4; stroke: #000000" x1="370.299" y1="88.45" x2="426.267" y2="88.45"/>
    <polygon style="fill: #000000" points="433.767,88.45 423.767,93.45 426.267,88.45 423.767,83.45 "/>
    <polygon style="fill: none; fill-opacity:0; stroke-width: 2; stroke: #000000" points="433.767,88.45 423.767,93.45 426.267,88.45 423.767,83.45 "/>
  </g>
  <g>
    <line style="fill: none; fill-opacity:0; stroke-width: 2; stroke-dasharray: 4; stroke: #000000" x1="556.267" y1="315.719" x2="554.826" y2="113.184"/>
    <polygon style="fill: #000000" points="554.773,105.684 559.844,115.648 554.826,113.184 549.844,115.719 "/>
    <polygon style="fill: none; fill-opacity:0; stroke-width: 2; stroke: #000000" points="554.773,105.684 559.844,115.648 554.826,113.184 549.844,115.719 "/>
  </g>
  <g>
    <line style="fill: none; fill-opacity:0; stroke-width: 2; stroke-dasharray: 4; stroke: #000000" x1="264.698" y1="103.352" x2="134.194" y2="296.828"/>
    <polygon style="fill: #000000" points="130,303.046 131.447,291.96 134.194,296.828 139.738,297.552 "/>
    <polygon style="fill: none; fill-opacity:0; stroke-width: 2; stroke: #000000" points="130,303.046 131.447,291.96 134.194,296.828 139.738,297.552 "/>
  </g>
</svg>
