<?xml version="1.0" encoding="UTF-8" standalone="no"?>
<!DOCTYPE svg PUBLIC "-//W3C//DTD SVG 1.0//EN" "http://www.w3.org/TR/2001/PR-SVG-20010719/DTD/svg10.dtd">
<svg width="50cm" height="24cm" viewBox="-197 55 982 478" xmlns="http://www.w3.org/2000/svg" xmlns:xlink="http://www.w3.org/1999/xlink">
  <g>
    <rect style="fill: #ffffff" x="180.2" y="74.45" width="189.1" height="28"/>
    <rect style="fill: none; fill-opacity:0; stroke-width: 2; stroke: #000000" x="180.2" y="74.45" width="189.1" height="28"/>
    <rect style="fill: #ffffff" x="180.2" y="56.45" width="30" height="18"/>
    <rect style="fill: none; fill-opacity:0; stroke-width: 2; stroke: #000000" x="180.2" y="56.45" width="30" height="18"/>
    <text font-size="12.8" style="fill: #000000;text-anchor:start;font-family:monospace;font-style:normal;font-weight:normal" x="186.2" y="92.35">
      <tspan x="186.2" y="92.35">fishingrodofdestiny.ui </tspan>
    </text>
  </g>
  <g>
    <rect style="fill: #ffffff" x="110.65" y="503.9" width="212.2" height="28"/>
    <rect style="fill: none; fill-opacity:0; stroke-width: 2; stroke: #000000" x="110.65" y="503.9" width="212.2" height="28"/>
    <rect style="fill: #ffffff" x="110.65" y="485.9" width="30" height="18"/>
    <rect style="fill: none; fill-opacity:0; stroke-width: 2; stroke: #000000" x="110.65" y="485.9" width="30" height="18"/>
    <text font-size="12.8" style="fill: #000000;text-anchor:start;font-family:monospace;font-style:normal;font-weight:normal" x="116.65" y="521.8">
      <tspan x="116.65" y="521.8">fishingrodofdestiny.world </tspan>
    </text>
  </g>
  <g>
    <line style="fill: none; fill-opacity:0; stroke-width: 2; stroke-dasharray: 4; stroke: #000000" x1="274.723" y1="103.456" x2="274.018" y2="492.264"/>
    <polygon style="fill: #000000" points="274.004,499.764 269.022,489.755 274.018,492.264 279.022,489.773 "/>
    <polygon style="fill: none; fill-opacity:0; stroke-width: 2; stroke: #000000" points="274.004,499.764 269.022,489.755 274.018,492.264 279.022,489.773 "/>
  </g>
  <g>
    <rect style="fill: #ffffff" x="-195.9" y="222.476" width="235.3" height="28"/>
    <rect style="fill: none; fill-opacity:0; stroke-width: 2; stroke: #000000" x="-195.9" y="222.476" width="235.3" height="28"/>
    <rect style="fill: #ffffff" x="-195.9" y="204.476" width="30" height="18"/>
    <rect style="fill: none; fill-opacity:0; stroke-width: 2; stroke: #000000" x="-195.9" y="204.476" width="30" height="18"/>
    <text font-size="12.8" style="fill: #000000;text-anchor:start;font-family:monospace;font-style:normal;font-weight:normal" x="-189.9" y="240.376">
      <tspan x="-189.9" y="240.376">fishingrodofdestiny.settings </tspan>
    </text>
  </g>
  <g>
    <line style="fill: none; fill-opacity:0; stroke-width: 2; stroke-dasharray: 4; stroke: #000000" x1="234.486" y1="103.42" x2="-61.8743" y2="213.607"/>
    <polygon style="fill: #000000" points="-68.9041,216.221 -61.2735,208.049 -61.8743,213.607 -57.7885,217.422 "/>
    <polygon style="fill: none; fill-opacity:0; stroke-width: 2; stroke: #000000" points="-68.9041,216.221 -61.2735,208.049 -61.8743,213.607 -57.7885,217.422 "/>
  </g>
  <g>
    <line style="fill: none; fill-opacity:0; stroke-width: 2; stroke-dasharray: 4; stroke: #000000" x1="-78.25" y1="250.476" x2="97.2631" y2="491.134"/>
    <polygon style="fill: #000000" points="101.682,497.193 91.7502,492.06 97.2631,491.134 99.8297,486.168 "/>
    <polygon style="fill: none; fill-opacity:0; stroke-width: 2; stroke: #000000" points="101.682,497.193 91.7502,492.06 97.2631,491.134 99.8297,486.168 "/>
  </g>
  <g>
    <rect style="fill: #ffffff" x="11.1" y="304.9" width="235.3" height="28"/>
    <rect style="fill: none; fill-opacity:0; stroke-width: 2; stroke: #000000" x="11.1" y="304.9" width="235.3" height="28"/>
    <rect style="fill: #ffffff" x="11.1" y="286.9" width="30" height="18"/>
    <rect style="fill: none; fill-opacity:0; stroke-width: 2; stroke: #000000" x="11.1" y="286.9" width="30" height="18"/>
    <text font-size="12.8" style="fill: #000000;text-anchor:start;font-family:monospace;font-style:normal;font-weight:normal" x="17.1" y="322.8">
      <tspan x="17.1" y="322.8">fishingrodofdestiny.observer </tspan>
    </text>
  </g>
  <g>
    <line style="fill: none; fill-opacity:0; stroke-width: 2; stroke-dasharray: 4; stroke: #000000" x1="216.75" y1="503.9" x2="133.205" y2="341.557"/>
    <polygon style="fill: #000000" points="129.773,334.888 138.795,341.492 133.205,341.557 129.903,346.068 "/>
    <polygon style="fill: none; fill-opacity:0; stroke-width: 2; stroke: #000000" points="129.773,334.888 138.795,341.492 133.205,341.557 129.903,346.068 "/>
  </g>
  <g>
    <rect style="fill: #ffffff" x="586.95" y="214.476" width="196.8" height="28"/>
    <rect style="fill: none; fill-opacity:0; stroke-width: 2; stroke: #000000" x="586.95" y="214.476" width="196.8" height="28"/>
    <rect style="fill: #ffffff" x="586.95" y="196.476" width="30" height="18"/>
    <rect style="fill: none; fill-opacity:0; stroke-width: 2; stroke: #000000" x="586.95" y="196.476" width="30" height="18"/>
    <text font-size="12.8" style="fill: #000000;text-anchor:start;font-family:monospace;font-style:normal;font-weight:normal" x="592.95" y="232.376">
      <tspan x="592.95" y="232.376">fishingrodofdestiny.dao </tspan>
    </text>
  </g>
  <g>
    <rect style="fill: #ffffff" x="437" y="74.45" width="250.7" height="28"/>
    <rect style="fill: none; fill-opacity:0; stroke-width: 2; stroke: #000000" x="437" y="74.45" width="250.7" height="28"/>
    <rect style="fill: #ffffff" x="437" y="56.45" width="30" height="18"/>
    <rect style="fill: none; fill-opacity:0; stroke-width: 2; stroke: #000000" x="437" y="56.45" width="30" height="18"/>
    <text font-size="12.8" style="fill: #000000;text-anchor:start;font-family:monospace;font-style:normal;font-weight:normal" x="443" y="92.35">
      <tspan x="443" y="92.35">fishingrodofdestiny.highscores </tspan>
    </text>
  </g>
  <g>
    <rect style="fill: #ffffff" x="443" y="333.476" width="243" height="28"/>
    <rect style="fill: none; fill-opacity:0; stroke-width: 2; stroke: #000000" x="443" y="333.476" width="243" height="28"/>
    <rect style="fill: #ffffff" x="443" y="315.476" width="30" height="18"/>
    <rect style="fill: none; fill-opacity:0; stroke-width: 2; stroke: #000000" x="443" y="315.476" width="30" height="18"/>
    <text font-size="12.8" style="fill: #000000;text-anchor:start;font-family:monospace;font-style:normal;font-weight:normal" x="449" y="351.376">
      <tspan x="449" y="351.376">fishingrodofdestiny.resources </tspan>
    </text>
  </g>
  <g>
    <line style="fill: none; fill-opacity:0; stroke-width: 2; stroke-dasharray: 4; stroke: #000000" x1="630.303" y1="116.734" x2="664.804" y2="186.77"/>
    <polygon style="fill: #000000" points="626.988,110.006 635.893,116.767 630.303,116.734 626.922,121.186 "/>
    <polygon style="fill: none; fill-opacity:0; stroke-width: 2; stroke: #000000" points="626.988,110.006 635.893,116.767 630.303,116.734 626.922,121.186 "/>
    <polygon style="fill: #000000" points="668.119,193.498 659.214,186.737 664.804,186.77 668.185,182.318 "/>
    <polygon style="fill: none; fill-opacity:0; stroke-width: 2; stroke: #000000" points="668.119,193.498 659.214,186.737 664.804,186.77 668.185,182.318 "/>
  </g>
  <g>
    <line style="fill: none; fill-opacity:0; stroke-width: 2; stroke-dasharray: 4; stroke: #000000" x1="597.781" y1="314.705" x2="663.181" y2="250.306"/>
    <polygon style="fill: #000000" points="668.525,245.043 664.908,255.622 663.181,250.306 657.892,248.497 "/>
    <polygon style="fill: none; fill-opacity:0; stroke-width: 2; stroke: #000000" points="668.525,245.043 664.908,255.622 663.181,250.306 657.892,248.497 "/>
  </g>
  <g>
    <line style="fill: none; fill-opacity:0; stroke-width: 2; stroke-dasharray: 4; stroke: #000000" x1="291.533" y1="103.453" x2="520.386" y2="308.04"/>
    <polygon style="fill: #000000" points="525.978,313.038 515.19,310.101 520.386,308.04 521.855,302.646 "/>
    <polygon style="fill: none; fill-opacity:0; stroke-width: 2; stroke: #000000" points="525.978,313.038 515.19,310.101 520.386,308.04 521.855,302.646 "/>
  </g>
  <g>
    <line style="fill: none; fill-opacity:0; stroke-width: 2; stroke-dasharray: 4; stroke: #000000" x1="322.85" y1="503.9" x2="533.171" y2="367.756"/>
    <polygon style="fill: #000000" points="539.467,363.68 533.789,373.312 533.171,367.756 528.355,364.917 "/>
    <polygon style="fill: none; fill-opacity:0; stroke-width: 2; stroke: #000000" points="539.467,363.68 533.789,373.312 533.171,367.756 528.355,364.917 "/>
  </g>
  <g>
    <line style="fill: none; fill-opacity:0; stroke-width: 2; stroke-dasharray: 4; stroke: #000000" x1="370.277" y1="88.45" x2="426.28" y2="88.45"/>
    <polygon style="fill: #000000" points="433.78,88.45 423.78,93.45 426.28,88.45 423.78,83.45 "/>
    <polygon style="fill: none; fill-opacity:0; stroke-width: 2; stroke: #000000" points="433.78,88.45 423.78,93.45 426.28,88.45 423.78,83.45 "/>
  </g>
  <g>
    <line style="fill: none; fill-opacity:0; stroke-width: 2; stroke-dasharray: 4; stroke: #000000" x1="564.227" y1="314.529" x2="562.555" y2="113.189"/>
    <polygon style="fill: #000000" points="562.493,105.689 567.576,115.648 562.555,113.189 557.576,115.731 "/>
    <polygon style="fill: none; fill-opacity:0; stroke-width: 2; stroke: #000000" points="562.493,105.689 567.576,115.648 562.555,113.189 557.576,115.731 "/>
  </g>
  <g>
    <line style="fill: none; fill-opacity:0; stroke-width: 2; stroke-dasharray: 4; stroke: #000000" x1="274.75" y1="102.45" x2="134.445" y2="297.003"/>
    <polygon style="fill: #000000" points="130.058,303.086 131.852,292.051 134.445,297.003 139.963,297.9 "/>
    <polygon style="fill: none; fill-opacity:0; stroke-width: 2; stroke: #000000" points="130.058,303.086 131.852,292.051 134.445,297.003 139.963,297.9 "/>
  </g>
</svg>
