<?xml version="1.0" encoding="UTF-8" standalone="no"?>
<!DOCTYPE svg PUBLIC "-//W3C//DTD SVG 1.0//EN" "http://www.w3.org/TR/2001/PR-SVG-20010719/DTD/svg10.dtd">
<svg width="37cm" height="24cm" viewBox="-35 -46 736 478" xmlns="http://www.w3.org/2000/svg" xmlns:xlink="http://www.w3.org/1999/xlink">
  <g>
    <rect style="fill: #ffffff" x="126.2" y="104.45" width="189.1" height="28"/>
    <rect style="fill: none; fill-opacity:0; stroke-width: 2; stroke: #000000" x="126.2" y="104.45" width="189.1" height="28"/>
    <rect style="fill: #ffffff" x="126.2" y="86.45" width="30" height="18"/>
    <rect style="fill: none; fill-opacity:0; stroke-width: 2; stroke: #000000" x="126.2" y="86.45" width="30" height="18"/>
    <text font-size="12.8" style="fill: #000000;text-anchor:start;font-family:monospace;font-style:normal;font-weight:normal" x="132.2" y="122.35">
      <tspan x="132.2" y="122.35">fishingrodofdestiny.ui </tspan>
    </text>
  </g>
  <g>
    <rect style="fill: #ffffff" x="-22.35" y="402.9" width="212.2" height="28"/>
    <rect style="fill: none; fill-opacity:0; stroke-width: 2; stroke: #000000" x="-22.35" y="402.9" width="212.2" height="28"/>
    <rect style="fill: #ffffff" x="-22.35" y="384.9" width="30" height="18"/>
    <rect style="fill: none; fill-opacity:0; stroke-width: 2; stroke: #000000" x="-22.35" y="384.9" width="30" height="18"/>
    <text font-size="12.8" style="fill: #000000;text-anchor:start;font-family:monospace;font-style:normal;font-weight:normal" x="-16.35" y="420.8">
      <tspan x="-16.35" y="420.8">fishingrodofdestiny.world </tspan>
    </text>
  </g>
  <g>
    <rect style="fill: #ffffff" x="-33.9" y="-26.1" width="235.3" height="28"/>
    <rect style="fill: none; fill-opacity:0; stroke-width: 2; stroke: #000000" x="-33.9" y="-26.1" width="235.3" height="28"/>
    <rect style="fill: #ffffff" x="-33.9" y="-44.1" width="30" height="18"/>
    <rect style="fill: none; fill-opacity:0; stroke-width: 2; stroke: #000000" x="-33.9" y="-44.1" width="30" height="18"/>
    <text font-size="12.8" style="fill: #000000;text-anchor:start;font-family:monospace;font-style:normal;font-weight:normal" x="-27.9" y="-8.2">
      <tspan x="-27.9" y="-8.2">fishingrodofdestiny.observer </tspan>
    </text>
  </g>
  <g>
    <line style="fill: none; fill-opacity:0; stroke-width: 2; stroke-dasharray: 4; stroke: #000000" x1="83.75" y1="402.9" x2="83.75" y2="11.6361"/>
    <polygon style="fill: #000000" points="83.75,4.13607 88.75,14.1361 83.75,11.6361 78.75,14.1361 "/>
    <polygon style="fill: none; fill-opacity:0; stroke-width: 2; stroke: #000000" points="83.75,4.13607 88.75,14.1361 83.75,11.6361 78.75,14.1361 "/>
  </g>
  <g>
    <rect style="fill: #ffffff" x="429.95" y="159.476" width="196.8" height="28"/>
    <rect style="fill: none; fill-opacity:0; stroke-width: 2; stroke: #000000" x="429.95" y="159.476" width="196.8" height="28"/>
    <rect style="fill: #ffffff" x="429.95" y="141.476" width="30" height="18"/>
    <rect style="fill: none; fill-opacity:0; stroke-width: 2; stroke: #000000" x="429.95" y="141.476" width="30" height="18"/>
    <text font-size="12.8" style="fill: #000000;text-anchor:start;font-family:monospace;font-style:normal;font-weight:normal" x="435.95" y="177.376">
      <tspan x="435.95" y="177.376">fishingrodofdestiny.dao </tspan>
    </text>
  </g>
  <g>
    <rect style="fill: #ffffff" x="464" y="-23.55" width="235.3" height="28"/>
    <rect style="fill: none; fill-opacity:0; stroke-width: 2; stroke: #000000" x="464" y="-23.55" width="235.3" height="28"/>
    <rect style="fill: #ffffff" x="464" y="-41.55" width="30" height="18"/>
    <rect style="fill: none; fill-opacity:0; stroke-width: 2; stroke: #000000" x="464" y="-41.55" width="30" height="18"/>
    <text font-size="12.8" style="fill: #000000;text-anchor:start;font-family:monospace;font-style:normal;font-weight:normal" x="470" y="-5.65">
      <tspan x="470" y="-5.65">fishingrodofdestiny.savedata </tspan>
    </text>
  </g>
  <g>
    <rect style="fill: #ffffff" x="189" y="282.476" width="243" height="28"/>
    <rect style="fill: none; fill-opacity:0; stroke-width: 2; stroke: #000000" x="189" y="282.476" width="243" height="28"/>
    <rect style="fill: #ffffff" x="189" y="264.476" width="30" height="18"/>
    <rect style="fill: none; fill-opacity:0; stroke-width: 2; stroke: #000000" x="189" y="264.476" width="30" height="18"/>
    <text font-size="12.8" style="fill: #000000;text-anchor:start;font-family:monospace;font-style:normal;font-weight:normal" x="195" y="300.376">
      <tspan x="195" y="300.376">fishingrodofdestiny.resources </tspan>
    </text>
  </g>
  <g>
    <line style="fill: none; fill-opacity:0; stroke-width: 2; stroke-dasharray: 4; stroke: #000000" x1="574.66" y1="14.4541" x2="540.684" y2="131.123"/>
    <polygon style="fill: #000000" points="576.757,7.25326 578.761,18.2524 574.66,14.4541 569.16,15.4564 "/>
    <polygon style="fill: none; fill-opacity:0; stroke-width: 2; stroke: #000000" points="576.757,7.25326 578.761,18.2524 574.66,14.4541 569.16,15.4564 "/>
    <polygon style="fill: #000000" points="538.587,138.324 536.582,127.325 540.684,131.123 546.183,130.121 "/>
    <polygon style="fill: none; fill-opacity:0; stroke-width: 2; stroke: #000000" points="538.587,138.324 536.582,127.325 540.684,131.123 546.183,130.121 "/>
  </g>
  <g>
    <line style="fill: none; fill-opacity:0; stroke-width: 2; stroke-dasharray: 4; stroke: #000000" x1="368.925" y1="263.489" x2="493.385" y2="193.217"/>
    <polygon style="fill: #000000" points="499.916,189.53 493.667,198.8 493.385,193.217 488.75,190.093 "/>
    <polygon style="fill: none; fill-opacity:0; stroke-width: 2; stroke: #000000" points="499.916,189.53 493.667,198.8 493.385,193.217 488.75,190.093 "/>
  </g>
  <g>
    <line style="fill: none; fill-opacity:0; stroke-width: 2; stroke-dasharray: 4; stroke: #000000" x1="228.315" y1="133.456" x2="289.481" y2="254.783"/>
    <polygon style="fill: #000000" points="292.857,261.48 283.891,254.801 289.481,254.783 292.82,250.299 "/>
    <polygon style="fill: none; fill-opacity:0; stroke-width: 2; stroke: #000000" points="292.857,261.48 283.891,254.801 289.481,254.783 292.82,250.299 "/>
  </g>
  <g>
    <line style="fill: none; fill-opacity:0; stroke-width: 2; stroke-dasharray: 4; stroke: #000000" x1="145.89" y1="383.898" x2="273.654" y2="316.044"/>
    <polygon style="fill: #000000" points="280.278,312.526 273.792,321.633 273.654,316.044 269.101,312.801 "/>
    <polygon style="fill: none; fill-opacity:0; stroke-width: 2; stroke: #000000" points="280.278,312.526 273.792,321.633 273.654,316.044 269.101,312.801 "/>
  </g>
  <g>
    <line style="fill: none; fill-opacity:0; stroke-width: 2; stroke-dasharray: 4; stroke: #000000" x1="313.817" y1="85.4422" x2="530.159" y2="8.71227"/>
    <polygon style="fill: #000000" points="537.228,6.20526 529.474,14.2603 530.159,8.71227 526.131,4.83554 "/>
    <polygon style="fill: none; fill-opacity:0; stroke-width: 2; stroke: #000000" points="537.228,6.20526 529.474,14.2603 530.159,8.71227 526.131,4.83554 "/>
  </g>
  <g>
    <line style="fill: none; fill-opacity:0; stroke-width: 2; stroke-dasharray: 4; stroke: #000000" x1="462.996" y1="-10.3457" x2="211.136" y2="-12.0347"/>
    <polygon style="fill: #000000" points="203.636,-12.085 213.669,-17.0178 211.136,-12.0347 213.602,-7.01806 "/>
    <polygon style="fill: none; fill-opacity:0; stroke-width: 2; stroke: #000000" points="203.636,-12.085 213.669,-17.0178 211.136,-12.0347 213.602,-7.01806 "/>
  </g>
  <g>
    <path style="fill: none; fill-opacity:0; stroke-width: 2; stroke-dasharray: 4; stroke: #000000" d="M 207.699,143.196 A 2734.82,2734.82 0 0 0 100.936,373.717"/>
    <polygon style="fill: #000000" points="212.105,145.514 212.335,134.336 203.255,140.859 "/>
    <polygon style="fill: none; fill-opacity:0; stroke-width: 2; stroke: #000000" points="212.105,145.514 212.335,134.336 203.255,140.859 "/>
    <polygon style="fill: #000000" points="96.2785,371.839 97.1765,382.983 105.553,375.578 "/>
    <polygon style="fill: none; fill-opacity:0; stroke-width: 2; stroke: #000000" points="96.2785,371.839 97.1765,382.983 105.553,375.578 "/>
  </g>
  <g>
    <path style="fill: none; fill-opacity:0; stroke-width: 2; stroke-dasharray: 4; stroke: #000000" d="M 200.792,418.006 A 458.772,458.772 0 0 0 699.3,-9.55"/>
    <polygon style="fill: #000000" points="201.343,413.169 190.844,417.013 200.218,423.106 "/>
    <polygon style="fill: none; fill-opacity:0; stroke-width: 2; stroke: #000000" points="201.343,413.169 190.844,417.013 200.218,423.106 "/>
  </g>
  <g>
    <path style="fill: none; fill-opacity:0; stroke-width: 2; stroke-dasharray: 4; stroke: #000000" d="M 194.703,85.4474 A 524.32,524.32 0 0 0 114.121,9.36758"/>
    <polygon style="fill: #000000" points="117.135,5.23509 106.109,3.38588 111.246,13.3165 "/>
    <polygon style="fill: none; fill-opacity:0; stroke-width: 2; stroke: #000000" points="117.135,5.23509 106.109,3.38588 111.246,13.3165 "/>
  </g>
  <g>
    <path style="fill: none; fill-opacity:0; stroke-width: 2; stroke-dasharray: 4; stroke: #000000" d="M 542.873,10.8891 A 521.659,521.659 0 0 0 322.772,263.483"/>
    <polygon style="fill: #000000" points="545.238,15.1623 551.561,5.94183 540.391,6.41555 "/>
    <polygon style="fill: none; fill-opacity:0; stroke-width: 2; stroke: #000000" points="545.238,15.1623 551.561,5.94183 540.391,6.41555 "/>
  </g>
</svg>
