<?xml version="1.0" encoding="UTF-8" standalone="no"?>
<!DOCTYPE svg PUBLIC "-//W3C//DTD SVG 1.0//EN" "http://www.w3.org/TR/2001/PR-SVG-20010719/DTD/svg10.dtd">
<svg width="74cm" height="50cm" viewBox="73 247 1474 1000" xmlns="http://www.w3.org/2000/svg" xmlns:xlink="http://www.w3.org/1999/xlink">
  <g>
    <line style="fill: none; fill-opacity:0; stroke-width: 2; stroke-dasharray: 4; stroke: #000000" x1="1473.71" y1="613.28" x2="779.605" y2="613.28"/>
    <polygon style="fill: #000000" points="779.605,608.28 769.605,613.28 779.605,618.28 "/>
    <polygon style="fill: none; fill-opacity:0; stroke-width: 2; stroke: #000000" points="779.605,608.28 769.605,613.28 779.605,618.28 "/>
  </g>
  <g>
    <line style="fill: none; fill-opacity:0; stroke-width: 2; stroke: #000000" x1="765.776" y1="592.067" x2="1462.71" y2="590.754"/>
    <polygon style="fill: #000000" points="1462.72,595.754 1472.71,590.735 1462.71,585.754 "/>
    <polygon style="fill: none; fill-opacity:0; stroke-width: 2; stroke: #000000" points="1462.72,595.754 1472.71,590.735 1462.71,585.754 "/>
  </g>
  <g>
    <line style="fill: none; fill-opacity:0; stroke-width: 2; stroke: #000000" x1="765.776" y1="535.499" x2="1334.05" y2="534.884"/>
    <polygon style="fill: #000000" points="1334.05,539.884 1344.05,534.873 1334.04,529.884 "/>
    <polygon style="fill: none; fill-opacity:0; stroke-width: 2; stroke: #000000" points="1334.05,539.884 1344.05,534.873 1334.04,529.884 "/>
  </g>
  <g>
    <line style="fill: none; fill-opacity:0; stroke-width: 2; stroke: #000000" x1="769.312" y1="450.646" x2="1306.39" y2="450.051"/>
    <polygon style="fill: #000000" points="1306.4,455.051 1316.39,450.04 1306.39,445.051 "/>
    <polygon style="fill: none; fill-opacity:0; stroke-width: 2; stroke: #000000" points="1306.4,455.051 1316.39,450.04 1306.39,445.051 "/>
  </g>
  <g>
    <line style="fill: none; fill-opacity:0; stroke-width: 2; stroke-dasharray: 4; stroke: #000000" x1="1345.05" y1="562.369" x2="782.433" y2="562.369"/>
    <polygon style="fill: #000000" points="782.433,557.369 772.433,562.369 782.433,567.369 "/>
    <polygon style="fill: none; fill-opacity:0; stroke-width: 2; stroke: #000000" points="782.433,557.369 772.433,562.369 782.433,567.369 "/>
  </g>
  <g>
    <rect style="fill: #ffffff" x="1038.16" y="441.534" width="28.9914" height="16.2635"/>
    <rect style="fill: none; fill-opacity:0; stroke-width: 2; stroke: #ffffff" x="1038.16" y="441.534" width="28.9914" height="16.2635"/>
  </g>
  <g>
    <rect style="fill: #ffffff" x="1199.24" y="442.736" width="28.9914" height="16.2635"/>
    <rect style="fill: none; fill-opacity:0; stroke-width: 2; stroke: #ffffff" x="1199.24" y="442.736" width="28.9914" height="16.2635"/>
  </g>
  <g>
    <rect style="fill: #ffffff" x="1039.3" y="525.963" width="28.9914" height="16.2635"/>
    <rect style="fill: none; fill-opacity:0; stroke-width: 2; stroke: #ffffff" x="1039.3" y="525.963" width="28.9914" height="16.2635"/>
  </g>
  <g>
    <rect style="fill: #ffffff" x="1038.31" y="553.116" width="28.9914" height="16.2635"/>
    <rect style="fill: none; fill-opacity:0; stroke-width: 2; stroke: #ffffff" x="1038.31" y="553.116" width="28.9914" height="16.2635"/>
  </g>
  <g>
    <rect style="fill: #ffffff" x="1038.73" y="584.511" width="28.9914" height="16.2635"/>
    <rect style="fill: none; fill-opacity:0; stroke-width: 2; stroke: #ffffff" x="1038.73" y="584.511" width="28.9914" height="16.2635"/>
  </g>
  <g>
    <rect style="fill: #ffffff" x="1038.59" y="604.098" width="28.9914" height="16.2635"/>
    <rect style="fill: none; fill-opacity:0; stroke-width: 2; stroke: #ffffff" x="1038.59" y="604.098" width="28.9914" height="16.2635"/>
  </g>
  <g>
    <rect style="fill: #ffffff" x="1198.96" y="521.356" width="28.9914" height="98.7929"/>
    <rect style="fill: none; fill-opacity:0; stroke-width: 2; stroke: #ffffff" x="1198.96" y="521.356" width="28.9914" height="98.7929"/>
  </g>
  <g>
    <rect style="fill: #ffffff" x="1337.41" y="580.046" width="28.9914" height="40.598"/>
    <rect style="fill: none; fill-opacity:0; stroke-width: 2; stroke: #ffffff" x="1337.41" y="580.046" width="28.9914" height="40.598"/>
  </g>
  <g>
    <line style="fill: none; fill-opacity:0; stroke-width: 2; stroke: #000000" x1="767.897" y1="483.173" x2="1034.94" y2="482.571"/>
    <polygon style="fill: #000000" points="1034.95,487.571 1044.94,482.549 1034.93,477.571 "/>
    <polygon style="fill: none; fill-opacity:0; stroke-width: 2; stroke: #000000" points="1034.95,487.571 1044.94,482.549 1034.93,477.571 "/>
  </g>
  <g>
    <line style="fill: none; fill-opacity:0; stroke-width: 2; stroke: #000000" x1="765.65" y1="940.08" x2="1195.05" y2="939.787"/>
    <polygon style="fill: #000000" points="1195.05,944.787 1205.05,939.781 1195.05,934.787 "/>
    <polygon style="fill: none; fill-opacity:0; stroke-width: 2; stroke: #000000" points="1195.05,944.787 1205.05,939.781 1195.05,934.787 "/>
  </g>
  <g>
    <line style="fill: none; fill-opacity:0; stroke-width: 2; stroke-dasharray: 4; stroke: #000000" x1="1206.05" y1="969.822" x2="783.65" y2="969.099"/>
    <polygon style="fill: #000000" points="783.658,964.099 773.65,969.082 783.641,974.099 "/>
    <polygon style="fill: none; fill-opacity:0; stroke-width: 2; stroke: #000000" points="783.658,964.099 773.65,969.082 783.641,974.099 "/>
  </g>
  <g>
    <line style="fill: none; fill-opacity:0; stroke-width: 2; stroke: #000000" x1="308.864" y1="814.603" x2="161.513" y2="813.114"/>
    <polygon style="fill: #000000" points="161.564,808.115 151.514,813.013 161.463,818.114 "/>
    <polygon style="fill: none; fill-opacity:0; stroke-width: 2; stroke: #000000" points="161.564,808.115 151.514,813.013 161.463,818.114 "/>
  </g>
  <g>
    <line style="fill: none; fill-opacity:0; stroke-width: 2; stroke: #000000" x1="331.114" y1="808.263" x2="566.492" y2="807.39"/>
    <polygon style="fill: #000000" points="331.095,803.263 321.114,808.3 331.132,813.263 "/>
    <polygon style="fill: none; fill-opacity:0; stroke-width: 2; stroke: #000000" points="331.095,803.263 321.114,808.3 331.132,813.263 "/>
  </g>
  <g>
    <rect style="fill: #ffffff" x="348.264" y="800.303" width="28.9914" height="16.2635"/>
    <rect style="fill: none; fill-opacity:0; stroke-width: 2; stroke: #ffffff" x="348.264" y="800.303" width="28.9914" height="16.2635"/>
  </g>
  <g>
    <rect style="fill: #ffffff" x="1038.45" y="960.48" width="28.9914" height="16.2635"/>
    <rect style="fill: none; fill-opacity:0; stroke-width: 2; stroke: #ffffff" x="1038.45" y="960.48" width="28.9914" height="16.2635"/>
  </g>
  <g>
    <rect style="fill: #ffffff" x="1040.05" y="931.78" width="28.9914" height="16.2635"/>
    <rect style="fill: none; fill-opacity:0; stroke-width: 2; stroke: #ffffff" x="1040.05" y="931.78" width="28.9914" height="16.2635"/>
  </g>
  <g>
    <line style="fill: none; fill-opacity:0; stroke-width: 2; stroke: #000000" x1="763.967" y1="860.381" x2="1034.97" y2="859.779"/>
    <polygon style="fill: #000000" points="1034.98,864.779 1044.97,859.757 1034.96,854.779 "/>
    <polygon style="fill: none; fill-opacity:0; stroke-width: 2; stroke: #000000" points="1034.98,864.779 1044.97,859.757 1034.96,854.779 "/>
  </g>
  <g>
    <line style="fill: none; fill-opacity:0; stroke-width: 2; stroke-dasharray: 4; stroke: #000000" x1="363.037" y1="839.875" x2="743.775" y2="840.562"/>
    <polygon style="fill: #000000" points="743.766,845.562 753.775,840.58 743.784,835.562 "/>
    <polygon style="fill: none; fill-opacity:0; stroke-width: 2; stroke: #000000" points="743.766,845.562 753.775,840.58 743.784,835.562 "/>
  </g>
  <g>
    <rect style="fill: #ffffff" x="696.66" y="832.884" width="28.9914" height="16.2635"/>
    <rect style="fill: none; fill-opacity:0; stroke-width: 2; stroke: #ffffff" x="696.66" y="832.884" width="28.9914" height="16.2635"/>
  </g>
  <g>
    <line style="fill: none; fill-opacity:0; stroke-width: 2; stroke: #000000" x1="759.017" y1="679.361" x2="381.26" y2="679.234"/>
    <polygon style="fill: #000000" points="381.262,674.234 371.26,679.23 381.258,684.234 "/>
    <polygon style="fill: none; fill-opacity:0; stroke-width: 2; stroke: #000000" points="381.262,674.234 371.26,679.23 381.258,684.234 "/>
  </g>
  <g>
    <rect style="fill: #ffffff" x="696.792" y="670.876" width="28.9914" height="16.2635"/>
    <rect style="fill: none; fill-opacity:0; stroke-width: 2; stroke: #ffffff" x="696.792" y="670.876" width="28.9914" height="16.2635"/>
  </g>
  <g>
    <rect style="fill: #ffffff" x="326.1" y="249.244" width="73.8" height="38"/>
    <rect style="fill: none; fill-opacity:0; stroke-width: 2; stroke: #000000" x="326.1" y="249.244" width="73.8" height="38"/>
    <text font-size="12.7998" style="fill: #000000;text-anchor:middle;font-family:sans-serif;font-style:normal;font-weight:normal" x="363" y="272.144">
      <tspan x="363" y="272.144">Monster</tspan>
    </text>
  </g>
  <g>
    <rect style="fill: #ffffff" x="679.075" y="249.244" width="61.85" height="38"/>
    <rect style="fill: none; fill-opacity:0; stroke-width: 2; stroke: #000000" x="679.075" y="249.244" width="61.85" height="38"/>
    <text font-size="12.7998" style="fill: #000000;text-anchor:middle;font-family:sans-serif;font-style:normal;font-weight:normal" x="710" y="272.144">
      <tspan x="710" y="272.144">Player</tspan>
    </text>
  </g>
  <text font-size="12.7998" style="fill: #000000;text-anchor:start;font-family:sans-serif;font-style:normal;font-weight:normal" x="370" y="313.102">
    <tspan x="370" y="313.102">hit(this, damage)</tspan>
  </text>
  <line style="fill: none; fill-opacity:0; stroke-width: 2; stroke: #000000" x1="363" y1="287.244" x2="363.65" y2="1240.08"/>
  <line style="fill: none; fill-opacity:0; stroke-width: 2; stroke: #000000" x1="710" y1="287.244" x2="709.65" y2="1245.08"/>
  <g>
    <line style="fill: none; fill-opacity:0; stroke-width: 2; stroke: #000000" x1="364" y1="319.102" x2="692.732" y2="319.807"/>
    <polygon style="fill: #000000" points="692.721,324.807 702.732,319.829 692.742,314.807 "/>
    <polygon style="fill: none; fill-opacity:0; stroke-width: 2; stroke: #000000" points="692.721,324.807 702.732,319.829 692.742,314.807 "/>
  </g>
  <g>
    <line style="fill: none; fill-opacity:0; stroke-width: 2; stroke: #000000" x1="707" y1="359.102" x2="381.816" y2="358.36"/>
    <polygon style="fill: #000000" points="381.827,353.36 371.816,358.337 381.804,363.36 "/>
    <polygon style="fill: none; fill-opacity:0; stroke-width: 2; stroke: #000000" points="381.827,353.36 371.816,358.337 381.804,363.36 "/>
  </g>
  <text font-size="12.7998" style="fill: #000000;text-anchor:start;font-family:sans-serif;font-style:normal;font-weight:normal" x="471" y="355.102">
    <tspan x="471" y="355.102">addMessage("Player is destroyed.")</tspan>
  </text>
  <text font-size="12.7998" style="fill: #000000;text-anchor:start;font-family:sans-serif;font-style:normal;font-weight:normal" x="726.879" y="397.365">
    <tspan x="726.879" y="397.365">destroy(instigator=Monster)</tspan>
  </text>
  <line style="fill: none; fill-opacity:0; stroke-width: 2; stroke: #000000" x1="718.879" y1="402.365" x2="914.227" y2="402.352"/>
  <g>
    <line style="fill: none; fill-opacity:0; stroke-width: 2; stroke: #000000" x1="781.2" y1="416.003" x2="914.284" y2="416.071"/>
    <polygon style="fill: #000000" points="781.202,411.003 771.2,415.998 781.197,421.003 "/>
    <polygon style="fill: none; fill-opacity:0; stroke-width: 2; stroke: #000000" points="781.202,411.003 771.2,415.998 781.197,421.003 "/>
  </g>
  <path style="fill: none; fill-opacity:0; stroke-width: 2; stroke: #000000" d="M 914.934,416.141 A 7.09088,7.09088 0 1 0 914.581,401.999"/>
  <line style="fill: none; fill-opacity:0; stroke-width: 2; stroke: #000000" x1="771.168" y1="644.415" x2="966.516" y2="644.402"/>
  <g>
    <line style="fill: none; fill-opacity:0; stroke-width: 2; stroke: #000000" x1="782.001" y1="658.187" x2="966.573" y2="658.12"/>
    <polygon style="fill: #000000" points="782,653.187 772.001,658.19 782.003,663.187 "/>
    <polygon style="fill: none; fill-opacity:0; stroke-width: 2; stroke: #000000" points="782,653.187 772.001,658.19 782.003,663.187 "/>
  </g>
  <path style="fill: none; fill-opacity:0; stroke-width: 2; stroke: #000000" d="M 967.223,658.191 A 7.09088,7.09088 0 1 0 966.87,644.048"/>
  <text font-size="12.7998" style="fill: #000000;text-anchor:start;font-family:sans-serif;font-style:normal;font-weight:normal" x="773.513" y="639.587">
    <tspan x="773.513" y="639.587">addMessage("You die!")</tspan>
  </text>
  <text font-size="12.7998" style="fill: #000000;text-anchor:start;font-family:sans-serif;font-style:normal;font-weight:normal" x="535.572" y="675.119">
    <tspan x="535.572" y="675.119">onDestroyTarget(Player)</tspan>
  </text>
  <text font-size="12.7998" style="fill: #000000;text-anchor:start;font-family:sans-serif;font-style:normal;font-weight:normal" x="378.594" y="715.424">
    <tspan x="378.594" y="715.424">getLevel()</tspan>
  </text>
  <g>
    <line style="fill: none; fill-opacity:0; stroke-width: 2; stroke: #000000" x1="365.159" y1="718.959" x2="668.548" y2="718.628"/>
    <polygon style="fill: #000000" points="668.554,723.628 678.548,718.617 668.543,713.628 "/>
    <polygon style="fill: none; fill-opacity:0; stroke-width: 2; stroke: #000000" points="668.554,723.628 678.548,718.617 668.543,713.628 "/>
  </g>
  <line style="fill: none; fill-opacity:0; stroke-width: 2; stroke: #000000" x1="371.087" y1="793.685" x2="566.435" y2="793.672"/>
  <path style="fill: none; fill-opacity:0; stroke-width: 2; stroke: #000000" d="M 567.142,807.461 A 7.09088,7.09088 0 1 0 566.789,793.319"/>
  <text font-size="12.7998" style="fill: #000000;text-anchor:start;font-family:sans-serif;font-style:normal;font-weight:normal" x="374.351" y="788.963">
    <tspan x="374.351" y="788.963">adjustExperiencePoints(4)</tspan>
  </text>
  <g>
    <line style="fill: none; fill-opacity:0; stroke-width: 2; stroke-dasharray: 4; stroke: #000000" x1="679.548" y1="748.658" x2="381.108" y2="747.976"/>
    <polygon style="fill: #000000" points="381.12,742.976 371.109,747.953 381.097,752.976 "/>
    <polygon style="fill: none; fill-opacity:0; stroke-width: 2; stroke: #000000" points="381.12,742.976 371.109,747.953 381.097,752.976 "/>
  </g>
  <text font-size="12.7998" style="fill: #000000;text-anchor:start;font-family:sans-serif;font-style:normal;font-weight:normal" x="527.793" y="747.244">
    <tspan x="527.793" y="747.244">1</tspan>
  </text>
  <g>
    <line style="fill: none; fill-opacity:0; stroke-width: 2; stroke-dasharray: 4; stroke: #000000" x1="370.816" y1="378.841" x2="691.449" y2="378.841"/>
    <polygon style="fill: #000000" points="691.449,383.841 701.449,378.841 691.449,373.841 "/>
    <polygon style="fill: none; fill-opacity:0; stroke-width: 2; stroke: #000000" points="691.449,383.841 701.449,378.841 691.449,373.841 "/>
  </g>
  <g>
    <rect style="fill: #ffffff" x="355.966" y="358.335" width="14.8492" height="20.5061"/>
    <rect style="fill: none; fill-opacity:0; stroke-width: 2; stroke: #000000" x="355.966" y="358.335" width="14.8492" height="20.5061"/>
  </g>
  <g>
    <rect style="fill: #ffffff" x="703.732" y="319.831" width="14.8492" height="740.188"/>
    <rect style="fill: none; fill-opacity:0; stroke-width: 2; stroke: #000000" x="703.732" y="319.831" width="14.8492" height="740.188"/>
  </g>
  <g>
    <rect style="fill: #ffffff" x="355.411" y="679.23" width="14.8492" height="161.352"/>
    <rect style="fill: none; fill-opacity:0; stroke-width: 2; stroke: #000000" x="355.411" y="679.23" width="14.8492" height="161.352"/>
  </g>
  <g>
    <rect style="fill: #ffffff" x="679.548" y="718.616" width="14.8492" height="30.042"/>
    <rect style="fill: none; fill-opacity:0; stroke-width: 2; stroke: #000000" x="679.548" y="718.616" width="14.8492" height="30.042"/>
  </g>
  <g>
    <rect style="fill: #ffffff" x="755.35" y="415.997" width="14.8492" height="621.083"/>
    <rect style="fill: none; fill-opacity:0; stroke-width: 2; stroke: #000000" x="755.35" y="415.997" width="14.8492" height="621.083"/>
  </g>
  <g>
    <rect style="fill: #ffffff" x="994.092" y="248.926" width="118.95" height="38"/>
    <rect style="fill: none; fill-opacity:0; stroke-width: 2; stroke: #000000" x="994.092" y="248.926" width="118.95" height="38"/>
    <text font-size="12.7998" style="fill: #000000;text-anchor:middle;font-family:sans-serif;font-style:normal;font-weight:normal" x="1053.57" y="271.826">
      <tspan x="1053.57" y="271.826">Player.Location</tspan>
    </text>
  </g>
  <line style="fill: none; fill-opacity:0; stroke-width: 2; stroke: #000000" x1="1053.57" y1="286.926" x2="1053.65" y2="1244.08"/>
  <text font-size="12.7998" style="fill: #000000;text-anchor:start;font-family:sans-serif;font-style:normal;font-weight:normal" x="778.109" y="856.138">
    <tspan x="778.109" y="856.138">moveTo(null)</tspan>
  </text>
  <g>
    <rect style="fill: #ffffff" x="1045.97" y="859.754" width="14.8492" height="30.042"/>
    <rect style="fill: none; fill-opacity:0; stroke-width: 2; stroke: #000000" x="1045.97" y="859.754" width="14.8492" height="30.042"/>
  </g>
  <g>
    <line style="fill: none; fill-opacity:0; stroke-width: 2; stroke-dasharray: 4; stroke: #000000" x1="1045.97" y1="889.796" x2="780.624" y2="890.068"/>
    <polygon style="fill: #000000" points="780.619,885.068 770.624,890.078 780.629,895.068 "/>
    <polygon style="fill: none; fill-opacity:0; stroke-width: 2; stroke: #000000" points="780.619,885.068 770.624,890.078 780.629,895.068 "/>
  </g>
  <g>
    <rect style="fill: #ffffff" x="1149.19" y="248.324" width="129.75" height="38"/>
    <rect style="fill: none; fill-opacity:0; stroke-width: 2; stroke: #000000" x="1149.19" y="248.324" width="129.75" height="38"/>
    <text font-size="12.7998" style="fill: #000000;text-anchor:middle;font-family:sans-serif;font-style:normal;font-weight:normal" x="1214.06" y="271.224">
      <tspan x="1214.06" y="271.224">Player.onChange</tspan>
    </text>
  </g>
  <line style="fill: none; fill-opacity:0; stroke-width: 2; stroke: #000000" x1="1214.06" y1="286.324" x2="1213.65" y2="1243.08"/>
  <text font-size="12.7998" style="fill: #000000;text-anchor:start;font-family:sans-serif;font-style:normal;font-weight:normal" x="776.65" y="934.08">
    <tspan x="776.65" y="934.08">notifyObservers()</tspan>
  </text>
  <g>
    <rect style="fill: #ffffff" x="1206.05" y="939.78" width="14.8492" height="30.042"/>
    <rect style="fill: none; fill-opacity:0; stroke-width: 2; stroke: #000000" x="1206.05" y="939.78" width="14.8492" height="30.042"/>
  </g>
  <g>
    <line style="fill: none; fill-opacity:0; stroke-width: 2; stroke-dasharray: 4; stroke: #000000" x1="755.35" y1="1037.08" x2="730.645" y2="1037.77"/>
    <polygon style="fill: #000000" points="730.505,1032.77 720.649,1038.05 730.785,1042.77 "/>
    <polygon style="fill: none; fill-opacity:0; stroke-width: 2; stroke: #000000" points="730.505,1032.77 720.649,1038.05 730.785,1042.77 "/>
  </g>
  <g>
    <line style="fill: none; fill-opacity:0; stroke-width: 2; stroke-dasharray: 4; stroke: #000000" x1="703.732" y1="1060.02" x2="375.247" y2="1060.02"/>
    <polygon style="fill: #000000" points="375.247,1055.02 365.247,1060.02 375.247,1065.02 "/>
    <polygon style="fill: none; fill-opacity:0; stroke-width: 2; stroke: #000000" points="375.247,1055.02 365.247,1060.02 375.247,1065.02 "/>
  </g>
  <g>
    <rect style="fill: #ffffff" x="74.0985" y="248.928" width="141.7" height="38"/>
    <rect style="fill: none; fill-opacity:0; stroke-width: 2; stroke: #000000" x="74.0985" y="248.928" width="141.7" height="38"/>
    <text font-size="12.7998" style="fill: #000000;text-anchor:middle;font-family:sans-serif;font-style:normal;font-weight:normal" x="144.949" y="271.828">
      <tspan x="144.949" y="271.828">Monster.onChange</tspan>
    </text>
  </g>
  <line style="fill: none; fill-opacity:0; stroke-width: 2; stroke: #000000" x1="144.949" y1="286.928" x2="144.748" y2="1245.76"/>
  <g>
    <rect style="fill: #ffffff" x="305.264" y="808.303" width="14.8492" height="20.5061"/>
    <rect style="fill: none; fill-opacity:0; stroke-width: 2; stroke: #000000" x="305.264" y="808.303" width="14.8492" height="20.5061"/>
  </g>
  <g>
    <line style="fill: none; fill-opacity:0; stroke-width: 2; stroke-dasharray: 4; stroke: #000000" x1="320.114" y1="828.809" x2="342.867" y2="829.345"/>
    <polygon style="fill: #000000" points="342.75,834.343 352.865,829.58 342.985,824.346 "/>
    <polygon style="fill: none; fill-opacity:0; stroke-width: 2; stroke: #000000" points="342.75,834.343 352.865,829.58 342.985,824.346 "/>
  </g>
  <g>
    <rect style="fill: #ffffff" x="135.664" y="813.003" width="14.8492" height="14.6"/>
    <rect style="fill: none; fill-opacity:0; stroke-width: 2; stroke: #000000" x="135.664" y="813.003" width="14.8492" height="14.6"/>
  </g>
  <g>
    <line style="fill: none; fill-opacity:0; stroke-width: 2; stroke-dasharray: 4; stroke: #000000" x1="150.514" y1="827.603" x2="294.265" y2="828.724"/>
    <polygon style="fill: #000000" points="294.226,833.724 304.264,828.802 294.304,823.724 "/>
    <polygon style="fill: none; fill-opacity:0; stroke-width: 2; stroke: #000000" points="294.226,833.724 304.264,828.802 294.304,823.724 "/>
  </g>
  <text font-size="12.7998" style="fill: #000000;text-anchor:start;font-family:sans-serif;font-style:normal;font-weight:normal" x="185.864" y="809.603">
    <tspan x="185.864" y="809.603">notifyObservers()</tspan>
  </text>
  <g>
    <rect style="fill: #ffffff" x="1317.39" y="431.039" width="71.35" height="38"/>
    <rect style="fill: none; fill-opacity:0; stroke-width: 2; stroke: #000000" x="1317.39" y="431.039" width="71.35" height="38"/>
    <text font-size="12.7998" style="fill: #000000;text-anchor:middle;font-family:sans-serif;font-style:normal;font-weight:normal" x="1353.07" y="453.939">
      <tspan x="1353.07" y="453.939">splatter</tspan>
    </text>
  </g>
  <text font-size="12.7998" style="fill: #000000;text-anchor:start;font-family:sans-serif;font-style:normal;font-weight:normal" x="779.211" y="447.817">
    <tspan x="779.211" y="447.817">new BloodSplatter()</tspan>
  </text>
  <text font-size="12.7998" style="fill: #000000;text-anchor:start;font-family:sans-serif;font-style:normal;font-weight:normal" x="779.211" y="478.93">
    <tspan x="779.211" y="478.93">getContainerTile()</tspan>
  </text>
  <text font-size="12.7998" style="fill: #000000;text-anchor:start;font-family:sans-serif;font-style:normal;font-weight:normal" x="895.884" y="508.628">
    <tspan x="895.884" y="508.628">tile</tspan>
  </text>
  <text font-size="12.7998" style="fill: #000000;text-anchor:start;font-family:sans-serif;font-style:normal;font-weight:normal" x="780.625" y="586.41">
    <tspan x="780.625" y="586.41">moveTo(tile)</tspan>
  </text>
  <g>
    <line style="fill: none; fill-opacity:0; stroke-width: 2; stroke-dasharray: 4; stroke: #000000" x1="1045.94" y1="510.043" x2="780.312" y2="510.043"/>
    <polygon style="fill: #000000" points="780.312,505.043 770.312,510.043 780.312,515.043 "/>
    <polygon style="fill: none; fill-opacity:0; stroke-width: 2; stroke: #000000" points="780.312,505.043 770.312,510.043 780.312,515.043 "/>
  </g>
  <text font-size="12.7998" style="fill: #000000;text-anchor:start;font-family:sans-serif;font-style:normal;font-weight:normal" x="777.797" y="533.377">
    <tspan x="777.797" y="533.377">getLocation()</tspan>
  </text>
  <text font-size="12.7998" style="fill: #000000;text-anchor:start;font-family:sans-serif;font-style:normal;font-weight:normal" x="917.097" y="559.54">
    <tspan x="917.097" y="559.54">splatter.Location</tspan>
  </text>
  <g>
    <rect style="fill: #ffffff" x="1417.34" y="431.746" width="128.45" height="38"/>
    <rect style="fill: none; fill-opacity:0; stroke-width: 2; stroke: #000000" x="1417.34" y="431.746" width="128.45" height="38"/>
    <text font-size="12.7998" style="fill: #000000;text-anchor:middle;font-family:sans-serif;font-style:normal;font-weight:normal" x="1481.57" y="454.646">
      <tspan x="1481.57" y="454.646">splatter.Location</tspan>
    </text>
  </g>
  <g>
    <rect style="fill: #ffffff" x="1045.94" y="482.546" width="14.8492" height="27.4964"/>
    <rect style="fill: none; fill-opacity:0; stroke-width: 2; stroke: #000000" x="1045.94" y="482.546" width="14.8492" height="27.4964"/>
  </g>
  <line style="fill: none; fill-opacity:0; stroke-width: 2; stroke: #000000" x1="1353.07" y1="469.039" x2="1353.38" y2="1099.06"/>
  <g>
    <rect style="fill: #ffffff" x="1345.05" y="534.872" width="14.8492" height="27.4964"/>
    <rect style="fill: none; fill-opacity:0; stroke-width: 2; stroke: #000000" x="1345.05" y="534.872" width="14.8492" height="27.4964"/>
  </g>
  <line style="fill: none; fill-opacity:0; stroke-width: 2; stroke: #000000" x1="1481.57" y1="469.746" x2="1482.08" y2="1099.06"/>
  <g>
    <rect style="fill: #ffffff" x="1473.71" y="590.734" width="14.8492" height="22.5467"/>
    <rect style="fill: none; fill-opacity:0; stroke-width: 2; stroke: #000000" x="1473.71" y="590.734" width="14.8492" height="22.5467"/>
  </g>
</svg>
