<?xml version="1.0" encoding="UTF-8" standalone="no"?>
<!DOCTYPE svg PUBLIC "-//W3C//DTD SVG 1.0//EN" "http://www.w3.org/TR/2001/PR-SVG-20010719/DTD/svg10.dtd">
<svg width="51cm" height="31cm" viewBox="361 220 1004 602" xmlns="http://www.w3.org/2000/svg" xmlns:xlink="http://www.w3.org/1999/xlink">
  <g>
    <line style="fill: none; fill-opacity:0; stroke-width: 2; stroke: #000000" x1="369.523" y1="368.096" x2="749.764" y2="367.09"/>
    <polygon style="fill: #000000" points="749.778,372.09 759.764,367.064 749.751,362.09 "/>
    <polygon style="fill: none; fill-opacity:0; stroke-width: 2; stroke: #000000" points="749.778,372.09 759.764,367.064 749.751,362.09 "/>
  </g>
  <g>
    <line style="fill: none; fill-opacity:0; stroke-width: 2; stroke-dasharray: 4; stroke: #000000" x1="760.764" y1="682.023" x2="389.008" y2="683.396"/>
    <polygon style="fill: #000000" points="388.989,678.397 379.008,683.433 389.026,688.396 "/>
    <polygon style="fill: none; fill-opacity:0; stroke-width: 2; stroke: #000000" points="388.989,678.397 379.008,683.433 389.026,688.396 "/>
  </g>
  <g>
    <line style="fill: none; fill-opacity:0; stroke-width: 2; stroke: #000000" x1="776.148" y1="456.484" x2="1150.48" y2="456.853"/>
    <polygon style="fill: #000000" points="1150.47,461.853 1160.48,456.863 1150.48,451.853 "/>
    <polygon style="fill: none; fill-opacity:0; stroke-width: 2; stroke: #000000" points="1150.47,461.853 1160.48,456.863 1150.48,451.853 "/>
  </g>
  <g>
    <line style="fill: none; fill-opacity:0; stroke-width: 2; stroke-dasharray: 4; stroke: #000000" x1="1161.48" y1="477.37" x2="788.57" y2="478.042"/>
    <polygon style="fill: #000000" points="788.561,473.042 778.57,478.06 788.579,483.042 "/>
    <polygon style="fill: none; fill-opacity:0; stroke-width: 2; stroke: #000000" points="788.561,473.042 778.57,478.06 788.579,483.042 "/>
  </g>
  <g>
    <line style="fill: none; fill-opacity:0; stroke-width: 2; stroke: #000000" x1="775.441" y1="550.55" x2="1303.85" y2="550.922"/>
    <polygon style="fill: #000000" points="1303.85,555.922 1313.85,550.929 1303.86,545.922 "/>
    <polygon style="fill: none; fill-opacity:0; stroke-width: 2; stroke: #000000" points="1303.85,555.922 1313.85,550.929 1303.86,545.922 "/>
  </g>
  <g>
    <line style="fill: none; fill-opacity:0; stroke-width: 2; stroke-dasharray: 4; stroke: #000000" x1="1314.85" y1="571.435" x2="787.862" y2="572.114"/>
    <polygon style="fill: #000000" points="787.856,567.114 777.862,572.127 787.869,577.114 "/>
    <polygon style="fill: none; fill-opacity:0; stroke-width: 2; stroke: #000000" points="787.856,567.114 777.862,572.127 787.869,577.114 "/>
  </g>
  <g>
    <rect style="fill: #ffffff" x="1005.5" y="447.668" width="14.8492" height="133.209"/>
    <rect style="fill: none; fill-opacity:0; stroke-width: 2; stroke: #ffffff" x="1005.5" y="447.668" width="14.8492" height="133.209"/>
  </g>
  <g>
    <rect style="fill: #ffffff" x="1161.78" y="507.772" width="14.8492" height="133.209"/>
    <rect style="fill: none; fill-opacity:0; stroke-width: 2; stroke: #ffffff" x="1161.78" y="507.772" width="14.8492" height="133.209"/>
  </g>
  <g>
    <rect style="fill: #ffffff" x="594.676" y="342.451" width="14.8492" height="373.484"/>
    <rect style="fill: none; fill-opacity:0; stroke-width: 2; stroke: #ffffff" x="594.676" y="342.451" width="14.8492" height="373.484"/>
  </g>
  <g>
    <rect style="fill: #ffffff" x="560.85" y="221" width="80.3" height="38"/>
    <rect style="fill: none; fill-opacity:0; stroke-width: 2; stroke: #000000" x="560.85" y="221" width="80.3" height="38"/>
    <text font-size="12.7998" style="fill: #000000;text-anchor:middle;font-family:sans-serif;font-style:normal;font-weight:normal" x="601" y="243.9">
      <tspan x="601" y="243.9">gold coin</tspan>
    </text>
  </g>
  <g>
    <rect style="fill: #ffffff" x="974.149" y="222" width="75.05" height="38"/>
    <rect style="fill: none; fill-opacity:0; stroke-width: 2; stroke: #000000" x="974.149" y="222" width="75.05" height="38"/>
    <text font-size="12.7998" style="fill: #000000;text-anchor:middle;font-family:sans-serif;font-style:normal;font-weight:normal" x="1011.67" y="244.9">
      <tspan x="1011.67" y="244.9">floor tile</tspan>
    </text>
  </g>
  <g>
    <rect style="fill: #ffffff" x="732.6" y="222" width="72.8" height="38"/>
    <rect style="fill: none; fill-opacity:0; stroke-width: 2; stroke: #000000" x="732.6" y="222" width="72.8" height="38"/>
    <text font-size="12.7998" style="fill: #000000;text-anchor:middle;font-family:sans-serif;font-style:normal;font-weight:normal" x="769" y="244.9">
      <tspan x="769" y="244.9">location</tspan>
    </text>
  </g>
  <line style="fill: none; fill-opacity:0; stroke-width: 2; stroke: #000000" x1="369.231" y1="223.818" x2="368.524" y2="820.616"/>
  <g>
    <line style="fill: none; fill-opacity:0; stroke-width: 2; stroke: #000000" x1="370.937" y1="299.114" x2="584" y2="299.474"/>
    <polygon style="fill: #000000" points="583.992,304.474 594,299.491 584.008,294.474 "/>
    <polygon style="fill: none; fill-opacity:0; stroke-width: 2; stroke: #000000" points="583.992,304.474 594,299.491 584.008,294.474 "/>
  </g>
  <line style="fill: none; fill-opacity:0; stroke-width: 2; stroke: #000000" x1="601" y1="259" x2="602" y2="812"/>
  <line style="fill: none; fill-opacity:0; stroke-width: 2; stroke: #000000" x1="769" y1="260" x2="767" y2="813"/>
  <line style="fill: none; fill-opacity:0; stroke-width: 2; stroke: #000000" x1="1011.67" y1="260" x2="1012.4" y2="812.586"/>
  <text font-size="12.7998" style="fill: #000000;text-anchor:start;font-family:sans-serif;font-style:normal;font-weight:normal" x="393" y="296">
    <tspan x="393" y="296">getLocation()</tspan>
  </text>
  <g>
    <rect style="fill: #ffffff" x="595" y="299.493" width="14.8492" height="20.5061"/>
    <rect style="fill: none; fill-opacity:0; stroke-width: 2; stroke: #000000" x="595" y="299.493" width="14.8492" height="20.5061"/>
  </g>
  <g>
    <line style="fill: none; fill-opacity:0; stroke-width: 2; stroke-dasharray: 4; stroke: #000000" x1="595" y1="319.999" x2="389.008" y2="320.656"/>
    <polygon style="fill: #000000" points="388.992,315.656 379.008,320.688 389.024,325.656 "/>
    <polygon style="fill: none; fill-opacity:0; stroke-width: 2; stroke: #000000" points="388.992,315.656 379.008,320.688 389.024,325.656 "/>
  </g>
  <text font-size="12.7998" style="fill: #000000;text-anchor:start;font-family:sans-serif;font-style:normal;font-weight:normal" x="516.346" y="318.57">
    <tspan x="516.346" y="318.57">location</tspan>
  </text>
  <g>
    <rect style="fill: #ffffff" x="760.764" y="367.061" width="14.8492" height="314.962"/>
    <rect style="fill: none; fill-opacity:0; stroke-width: 2; stroke: #000000" x="760.764" y="367.061" width="14.8492" height="314.962"/>
  </g>
  <text font-size="12.7998" style="fill: #000000;text-anchor:start;font-family:sans-serif;font-style:normal;font-weight:normal" x="392.566" y="365.239">
    <tspan x="392.566" y="365.239">moveTo(tile)</tspan>
  </text>
  <g>
    <rect style="fill: #ffffff" x="362.453" y="254.223" width="14.8492" height="499.924"/>
    <rect style="fill: none; fill-opacity:0; stroke-width: 2; stroke: #000000" x="362.453" y="254.223" width="14.8492" height="499.924"/>
  </g>
  <g>
    <line style="fill: none; fill-opacity:0; stroke-width: 2; stroke: #000000" x1="776.855" y1="378.703" x2="995.13" y2="379.064"/>
    <polygon style="fill: #000000" points="995.122,384.064 1005.13,379.08 995.139,374.064 "/>
    <polygon style="fill: none; fill-opacity:0; stroke-width: 2; stroke: #000000" points="995.122,384.064 1005.13,379.08 995.139,374.064 "/>
  </g>
  <g>
    <rect style="fill: #ffffff" x="1006.13" y="379.082" width="14.8492" height="20.5061"/>
    <rect style="fill: none; fill-opacity:0; stroke-width: 2; stroke: #000000" x="1006.13" y="379.082" width="14.8492" height="20.5061"/>
  </g>
  <g>
    <line style="fill: none; fill-opacity:0; stroke-width: 2; stroke-dasharray: 4; stroke: #000000" x1="1006.13" y1="399.588" x2="789.277" y2="400.247"/>
    <polygon style="fill: #000000" points="789.262,395.247 779.277,400.277 789.292,405.247 "/>
    <polygon style="fill: none; fill-opacity:0; stroke-width: 2; stroke: #000000" points="789.262,395.247 779.277,400.277 789.292,405.247 "/>
  </g>
  <text font-size="12.7998" style="fill: #000000;text-anchor:start;font-family:sans-serif;font-style:normal;font-weight:normal" x="787.168" y="375.139">
    <tspan x="787.168" y="375.139">getInventory()</tspan>
  </text>
  <g>
    <rect style="fill: #ffffff" x="1127.25" y="221.202" width="82.95" height="54"/>
    <rect style="fill: none; fill-opacity:0; stroke-width: 2; stroke: #000000" x="1127.25" y="221.202" width="82.95" height="54"/>
    <text font-size="12.7998" style="fill: #000000;text-anchor:middle;font-family:sans-serif;font-style:normal;font-weight:normal" x="1168.73" y="244.102">
      <tspan x="1168.73" y="244.102">previous</tspan>
      <tspan x="1168.73" y="260.102">inventory</tspan>
    </text>
  </g>
  <line style="fill: none; fill-opacity:0; stroke-width: 2; stroke: #000000" x1="1168.73" y1="275.202" x2="1169.45" y2="813.424"/>
  <text font-size="12.7998" style="fill: #000000;text-anchor:start;font-family:sans-serif;font-style:normal;font-weight:normal" x="921.518" y="397.059">
    <tspan x="921.518" y="397.059">inventory</tspan>
  </text>
  <g>
    <line style="fill: none; fill-opacity:0; stroke-width: 2; stroke: #000000" x1="776.148" y1="654.474" x2="994.423" y2="654.835"/>
    <polygon style="fill: #000000" points="994.415,659.835 1004.42,654.852 994.432,649.835 "/>
    <polygon style="fill: none; fill-opacity:0; stroke-width: 2; stroke: #000000" points="994.415,659.835 1004.42,654.852 994.432,649.835 "/>
  </g>
  <g>
    <rect style="fill: #ffffff" x="1005.42" y="654.853" width="14.8492" height="20.5061"/>
    <rect style="fill: none; fill-opacity:0; stroke-width: 2; stroke: #000000" x="1005.42" y="654.853" width="14.8492" height="20.5061"/>
  </g>
  <g>
    <line style="fill: none; fill-opacity:0; stroke-width: 2; stroke-dasharray: 4; stroke: #000000" x1="1005.42" y1="675.36" x2="788.57" y2="676.018"/>
    <polygon style="fill: #000000" points="788.555,671.019 778.57,676.049 788.585,681.018 "/>
    <polygon style="fill: none; fill-opacity:0; stroke-width: 2; stroke: #000000" points="788.555,671.019 778.57,676.049 788.585,681.018 "/>
  </g>
  <text font-size="12.7998" style="fill: #000000;text-anchor:start;font-family:sans-serif;font-style:normal;font-weight:normal" x="791.411" y="653.032">
    <tspan x="791.411" y="653.032">onEnter()</tspan>
  </text>
  <g>
    <rect style="fill: #ffffff" x="1280.74" y="221.424" width="82.95" height="38"/>
    <rect style="fill: none; fill-opacity:0; stroke-width: 2; stroke: #000000" x="1280.74" y="221.424" width="82.95" height="38"/>
    <text font-size="12.7998" style="fill: #000000;text-anchor:middle;font-family:sans-serif;font-style:normal;font-weight:normal" x="1322.21" y="244.324">
      <tspan x="1322.21" y="244.324">inventory</tspan>
    </text>
  </g>
  <line style="fill: none; fill-opacity:0; stroke-width: 2; stroke: #000000" x1="1322.21" y1="259.424" x2="1322.94" y2="813.424"/>
  <g>
    <rect style="fill: #ffffff" x="1161.48" y="456.864" width="14.8492" height="20.5061"/>
    <rect style="fill: none; fill-opacity:0; stroke-width: 2; stroke: #000000" x="1161.48" y="456.864" width="14.8492" height="20.5061"/>
  </g>
  <text font-size="12.7998" style="fill: #000000;text-anchor:start;font-family:sans-serif;font-style:normal;font-weight:normal" x="788.582" y="454.335">
    <tspan x="788.582" y="454.335">remove(gold coin)</tspan>
  </text>
  <g>
    <rect style="fill: #ffffff" x="1314.85" y="550.929" width="14.8492" height="20.5061"/>
    <rect style="fill: none; fill-opacity:0; stroke-width: 2; stroke: #000000" x="1314.85" y="550.929" width="14.8492" height="20.5061"/>
  </g>
  <text font-size="12.7998" style="fill: #000000;text-anchor:start;font-family:sans-serif;font-style:normal;font-weight:normal" x="787.875" y="548.4">
    <tspan x="787.875" y="548.4">add(gold coin)</tspan>
  </text>
</svg>
