<?xml version="1.0" encoding="UTF-8" standalone="no"?>
<!DOCTYPE svg PUBLIC "-//W3C//DTD SVG 1.0//EN" "http://www.w3.org/TR/2001/PR-SVG-20010719/DTD/svg10.dtd">
<svg width="68cm" height="34cm" viewBox="86 -15 1343 677" xmlns="http://www.w3.org/2000/svg" xmlns:xlink="http://www.w3.org/1999/xlink">
  <g>
    <rect style="fill: #ffffff" x="129.1" y="81.9" width="189.1" height="28"/>
    <rect style="fill: none; fill-opacity:0; stroke-width: 2; stroke: #000000" x="129.1" y="81.9" width="189.1" height="28"/>
    <rect style="fill: #ffffff" x="129.1" y="63.9" width="30" height="18"/>
    <rect style="fill: none; fill-opacity:0; stroke-width: 2; stroke: #000000" x="129.1" y="63.9" width="30" height="18"/>
    <text font-size="12.8" style="fill: #000000;text-anchor:start;font-family:monospace;font-style:normal;font-weight:normal" x="135.1" y="99.8">
      <tspan x="135.1" y="99.8">fishingrodofdestiny.ui </tspan>
    </text>
  </g>
  <g>
    <rect style="fill: #ffffff" x="810.1" y="178.9" width="250.7" height="28"/>
    <rect style="fill: none; fill-opacity:0; stroke-width: 2; stroke: #000000" x="810.1" y="178.9" width="250.7" height="28"/>
    <rect style="fill: #ffffff" x="810.1" y="160.9" width="30" height="18"/>
    <rect style="fill: none; fill-opacity:0; stroke-width: 2; stroke: #000000" x="810.1" y="160.9" width="30" height="18"/>
    <text font-size="12.8" style="fill: #000000;text-anchor:start;font-family:monospace;font-style:normal;font-weight:normal" x="816.1" y="196.8">
      <tspan x="816.1" y="196.8">fishingrodofdestiny.ui.widgets </tspan>
    </text>
  </g>
  <g>
    <rect style="fill: #ffffff" x="118.1" y="207.9" width="212.2" height="28"/>
    <rect style="fill: none; fill-opacity:0; stroke-width: 2; stroke: #000000" x="118.1" y="207.9" width="212.2" height="28"/>
    <rect style="fill: #ffffff" x="118.1" y="189.9" width="30" height="18"/>
    <rect style="fill: none; fill-opacity:0; stroke-width: 2; stroke: #000000" x="118.1" y="189.9" width="30" height="18"/>
    <text font-size="12.8" style="fill: #000000;text-anchor:start;font-family:monospace;font-style:normal;font-weight:normal" x="124.1" y="225.8">
      <tspan x="124.1" y="225.8">fishingrodofdestiny.world </tspan>
    </text>
  </g>
  <g>
    <rect style="fill: #ffffff" x="436.1" y="341.9" width="304.6" height="28"/>
    <rect style="fill: none; fill-opacity:0; stroke-width: 2; stroke: #000000" x="436.1" y="341.9" width="304.6" height="28"/>
    <rect style="fill: #ffffff" x="436.1" y="323.9" width="30" height="18"/>
    <rect style="fill: none; fill-opacity:0; stroke-width: 2; stroke: #000000" x="436.1" y="323.9" width="30" height="18"/>
    <text font-size="12.8" style="fill: #000000;text-anchor:start;font-family:monospace;font-style:normal;font-weight:normal" x="442.1" y="359.8">
      <tspan x="442.1" y="359.8">fishingrodofdestiny.world.gameobjects </tspan>
    </text>
  </g>
  <g>
    <line style="fill: none; fill-opacity:0; stroke-width: 2; stroke-dasharray: 4; stroke: #000000" x1="319.194" y1="95.0638" x2="430.372" y2="94.0909"/>
    <polygon style="fill: #000000" points="437.871,94.0253 427.916,99.1126 430.372,94.0909 427.828,89.113 "/>
    <polygon style="fill: none; fill-opacity:0; stroke-width: 2; stroke: #000000" points="437.871,94.0253 427.916,99.1126 430.372,94.0909 427.828,89.113 "/>
  </g>
  <g>
    <line style="fill: none; fill-opacity:0; stroke-width: 2; stroke-dasharray: 4; stroke: #000000" x1="223.715" y1="110.789" x2="224.013" y2="179.172"/>
    <polygon style="fill: #000000" points="224.046,186.672 219.003,176.694 224.013,179.172 229.003,176.65 "/>
    <polygon style="fill: none; fill-opacity:0; stroke-width: 2; stroke: #000000" points="224.046,186.672 219.003,176.694 224.013,179.172 229.003,176.65 "/>
  </g>
  <g>
    <line style="fill: none; fill-opacity:0; stroke-width: 2; stroke-dasharray: 4; stroke: #000000" x1="567.702" y1="107.901" x2="584.841" y2="313.258"/>
    <polygon style="fill: #000000" points="585.465,320.732 579.651,311.183 584.841,313.258 589.616,310.351 "/>
    <polygon style="fill: none; fill-opacity:0; stroke-width: 2; stroke: #000000" points="585.465,320.732 579.651,311.183 584.841,313.258 589.616,310.351 "/>
  </g>
  <g>
    <line style="fill: none; fill-opacity:0; stroke-width: 2; stroke-dasharray: 4; stroke: #000000" x1="259.172" y1="241.705" x2="427.628" y2="337.102"/>
    <polygon style="fill: #000000" points="252.646,238.009 263.812,238.586 259.172,241.705 258.884,247.288 "/>
    <polygon style="fill: none; fill-opacity:0; stroke-width: 2; stroke: #000000" points="252.646,238.009 263.812,238.586 259.172,241.705 258.884,247.288 "/>
    <polygon style="fill: #000000" points="434.154,340.798 422.989,340.221 427.628,337.102 427.917,331.52 "/>
    <polygon style="fill: none; fill-opacity:0; stroke-width: 2; stroke: #000000" points="434.154,340.798 422.989,340.221 427.628,337.102 427.917,331.52 "/>
  </g>
  <g>
    <rect style="fill: #ffffff" x="441.1" y="78.9" width="250.7" height="28"/>
    <rect style="fill: none; fill-opacity:0; stroke-width: 2; stroke: #000000" x="441.1" y="78.9" width="250.7" height="28"/>
    <rect style="fill: #ffffff" x="441.1" y="60.9" width="30" height="18"/>
    <rect style="fill: none; fill-opacity:0; stroke-width: 2; stroke: #000000" x="441.1" y="60.9" width="30" height="18"/>
    <text font-size="12.8" style="fill: #000000;text-anchor:start;font-family:monospace;font-style:normal;font-weight:normal" x="447.1" y="96.8">
      <tspan x="447.1" y="96.8">fishingrodofdestiny.ui.screens </tspan>
    </text>
  </g>
  <g>
    <rect style="fill: #ffffff" x="87.1" y="463.9" width="258.4" height="28"/>
    <rect style="fill: none; fill-opacity:0; stroke-width: 2; stroke: #000000" x="87.1" y="463.9" width="258.4" height="28"/>
    <rect style="fill: #ffffff" x="87.1" y="445.9" width="30" height="18"/>
    <rect style="fill: none; fill-opacity:0; stroke-width: 2; stroke: #000000" x="87.1" y="445.9" width="30" height="18"/>
    <text font-size="12.8" style="fill: #000000;text-anchor:start;font-family:monospace;font-style:normal;font-weight:normal" x="93.1" y="481.8">
      <tspan x="93.1" y="481.8">fishingrodofdestiny.world.tiles </tspan>
    </text>
  </g>
  <g>
    <line style="fill: none; fill-opacity:0; stroke-width: 2; stroke-dasharray: 4; stroke: #000000" x1="691.8" y1="92.9" x2="802.665" y2="186.615"/>
    <polygon style="fill: #000000" points="808.392,191.456 797.527,188.819 802.665,186.615 803.983,181.182 "/>
    <polygon style="fill: none; fill-opacity:0; stroke-width: 2; stroke: #000000" points="808.392,191.456 797.527,188.819 802.665,186.615 803.983,181.182 "/>
  </g>
  <g>
    <line style="fill: none; fill-opacity:0; stroke-width: 2; stroke-dasharray: 4; stroke: #000000" x1="526.656" y1="107.899" x2="320.544" y2="185.586"/>
    <polygon style="fill: #000000" points="313.526,188.231 321.12,180.026 320.544,185.586 324.647,189.383 "/>
    <polygon style="fill: none; fill-opacity:0; stroke-width: 2; stroke: #000000" points="313.526,188.231 321.12,180.026 320.544,185.586 324.647,189.383 "/>
  </g>
  <g>
    <line style="fill: none; fill-opacity:0; stroke-width: 2; stroke-dasharray: 4; stroke: #000000" x1="903.55" y1="207.883" x2="667.474" y2="318.761"/>
    <polygon style="fill: #000000" points="660.685,321.949 667.611,313.173 667.474,318.761 671.862,322.224 "/>
    <polygon style="fill: none; fill-opacity:0; stroke-width: 2; stroke: #000000" points="660.685,321.949 667.611,313.173 667.474,318.761 671.862,322.224 "/>
  </g>
  <g>
    <line style="fill: none; fill-opacity:0; stroke-width: 2; stroke-dasharray: 4; stroke: #000000" x1="809.096" y1="198.052" x2="341.034" y2="217.136"/>
    <polygon style="fill: #000000" points="333.541,217.442 343.329,212.039 341.034,217.136 343.736,222.03 "/>
    <polygon style="fill: none; fill-opacity:0; stroke-width: 2; stroke: #000000" points="333.541,217.442 343.329,212.039 341.034,217.136 343.736,222.03 "/>
  </g>
  <g>
    <line style="fill: none; fill-opacity:0; stroke-width: 2; stroke-dasharray: 4; stroke: #000000" x1="223.437" y1="246.639" x2="217.619" y2="435.161"/>
    <polygon style="fill: #000000" points="223.668,239.143 228.357,249.292 223.437,246.639 218.362,248.984 "/>
    <polygon style="fill: none; fill-opacity:0; stroke-width: 2; stroke: #000000" points="223.668,239.143 228.357,249.292 223.437,246.639 218.362,248.984 "/>
    <polygon style="fill: #000000" points="217.388,442.657 212.698,432.508 217.619,435.161 222.694,432.816 "/>
    <polygon style="fill: none; fill-opacity:0; stroke-width: 2; stroke: #000000" points="217.388,442.657 212.698,432.508 217.619,435.161 222.694,432.816 "/>
  </g>
  <g>
    <line style="fill: none; fill-opacity:0; stroke-width: 2; stroke-dasharray: 4; stroke: #000000" x1="429.843" y1="377.359" x2="351.757" y2="470.441"/>
    <polygon style="fill: #000000" points="434.663,371.613 432.067,382.488 429.843,377.359 424.405,376.061 "/>
    <polygon style="fill: none; fill-opacity:0; stroke-width: 2; stroke: #000000" points="434.663,371.613 432.067,382.488 429.843,377.359 424.405,376.061 "/>
    <polygon style="fill: #000000" points="346.937,476.187 349.533,465.312 351.757,470.441 357.195,471.739 "/>
    <polygon style="fill: none; fill-opacity:0; stroke-width: 2; stroke: #000000" points="346.937,476.187 349.533,465.312 351.757,470.441 357.195,471.739 "/>
  </g>
  <g>
    <rect style="fill: #ffffff" x="759.1" y="4.9" width="235.3" height="28"/>
    <rect style="fill: none; fill-opacity:0; stroke-width: 2; stroke: #000000" x="759.1" y="4.9" width="235.3" height="28"/>
    <rect style="fill: #ffffff" x="759.1" y="-13.1" width="30" height="18"/>
    <rect style="fill: none; fill-opacity:0; stroke-width: 2; stroke: #000000" x="759.1" y="-13.1" width="30" height="18"/>
    <text font-size="12.8" style="fill: #000000;text-anchor:start;font-family:monospace;font-style:normal;font-weight:normal" x="765.1" y="22.8">
      <tspan x="765.1" y="22.8">fishingrodofdestiny.settings </tspan>
    </text>
  </g>
  <g>
    <line style="fill: none; fill-opacity:0; stroke-width: 2; stroke-dasharray: 4; stroke: #000000" x1="692.661" y1="62.8014" x2="804.363" y2="36.1627"/>
    <polygon style="fill: #000000" points="811.659,34.4229 803.092,41.6062 804.363,36.1627 800.772,31.879 "/>
    <polygon style="fill: none; fill-opacity:0; stroke-width: 2; stroke: #000000" points="811.659,34.4229 803.092,41.6062 804.363,36.1627 800.772,31.879 "/>
  </g>
  <g>
    <line style="fill: none; fill-opacity:0; stroke-width: 2; stroke-dasharray: 4; stroke: #000000" x1="863.92" y1="33.8947" x2="622.968" y2="315.5"/>
    <polygon style="fill: #000000" points="618.092,321.198 620.794,310.349 622.968,315.5 628.393,316.851 "/>
    <polygon style="fill: none; fill-opacity:0; stroke-width: 2; stroke: #000000" points="618.092,321.198 620.794,310.349 622.968,315.5 628.393,316.851 "/>
  </g>
  <g>
    <rect style="fill: #ffffff" x="431.1" y="438.9" width="235.3" height="28"/>
    <rect style="fill: none; fill-opacity:0; stroke-width: 2; stroke: #000000" x="431.1" y="438.9" width="235.3" height="28"/>
    <rect style="fill: #ffffff" x="431.1" y="420.9" width="30" height="18"/>
    <rect style="fill: none; fill-opacity:0; stroke-width: 2; stroke: #000000" x="431.1" y="420.9" width="30" height="18"/>
    <text font-size="12.8" style="fill: #000000;text-anchor:start;font-family:monospace;font-style:normal;font-weight:normal" x="437.1" y="456.8">
      <tspan x="437.1" y="456.8">fishingrodofdestiny.observer </tspan>
    </text>
  </g>
  <g>
    <line style="fill: none; fill-opacity:0; stroke-width: 2; stroke-dasharray: 4; stroke: #000000" x1="582.272" y1="370.89" x2="565.918" y2="410.899"/>
    <polygon style="fill: #000000" points="563.081,417.842 562.236,406.693 565.918,410.899 571.493,410.477 "/>
    <polygon style="fill: none; fill-opacity:0; stroke-width: 2; stroke: #000000" points="563.081,417.842 562.236,406.693 565.918,410.899 571.493,410.477 "/>
  </g>
  <g>
    <line style="fill: none; fill-opacity:0; stroke-width: 2; stroke-dasharray: 4; stroke: #000000" x1="552.804" y1="107.904" x2="252.867" y2="437.694"/>
    <polygon style="fill: #000000" points="247.821,443.242 250.85,432.48 252.867,437.694 258.248,439.208 "/>
    <polygon style="fill: none; fill-opacity:0; stroke-width: 2; stroke: #000000" points="247.821,443.242 250.85,432.48 252.867,437.694 258.248,439.208 "/>
  </g>
  <g>
    <rect style="fill: #ffffff" x="979" y="633" width="196.8" height="28"/>
    <rect style="fill: none; fill-opacity:0; stroke-width: 2; stroke: #000000" x="979" y="633" width="196.8" height="28"/>
    <rect style="fill: #ffffff" x="979" y="615" width="30" height="18"/>
    <rect style="fill: none; fill-opacity:0; stroke-width: 2; stroke: #000000" x="979" y="615" width="30" height="18"/>
    <text font-size="12.7998" style="fill: #000000;text-anchor:start;font-family:monospace;font-style:normal;font-weight:normal" x="985" y="650.9">
      <tspan x="985" y="650.9">fishingrodofdestiny.dao </tspan>
    </text>
  </g>
  <g>
    <rect style="fill: #ffffff" x="1177" y="159" width="250.7" height="28"/>
    <rect style="fill: none; fill-opacity:0; stroke-width: 2; stroke: #000000" x="1177" y="159" width="250.7" height="28"/>
    <rect style="fill: #ffffff" x="1177" y="141" width="30" height="18"/>
    <rect style="fill: none; fill-opacity:0; stroke-width: 2; stroke: #000000" x="1177" y="141" width="30" height="18"/>
    <text font-size="12.7998" style="fill: #000000;text-anchor:start;font-family:monospace;font-style:normal;font-weight:normal" x="1183" y="176.9">
      <tspan x="1183" y="176.9">fishingrodofdestiny.highscores </tspan>
    </text>
  </g>
  <g>
    <rect style="fill: #ffffff" x="804" y="527" width="243" height="28"/>
    <rect style="fill: none; fill-opacity:0; stroke-width: 2; stroke: #000000" x="804" y="527" width="243" height="28"/>
    <rect style="fill: #ffffff" x="804" y="509" width="30" height="18"/>
    <rect style="fill: none; fill-opacity:0; stroke-width: 2; stroke: #000000" x="804" y="509" width="30" height="18"/>
    <text font-size="12.7998" style="fill: #000000;text-anchor:start;font-family:monospace;font-style:normal;font-weight:normal" x="810" y="544.9">
      <tspan x="810" y="544.9">fishingrodofdestiny.resources </tspan>
    </text>
  </g>
  <g>
    <line style="fill: none; fill-opacity:0; stroke-width: 2; stroke-dasharray: 4; stroke: #000000" x1="1291.06" y1="196.796" x2="1097.23" y2="605.209"/>
    <polygon style="fill: #000000" points="1294.27,190.021 1294.5,201.199 1291.06,196.796 1285.47,196.911 "/>
    <polygon style="fill: none; fill-opacity:0; stroke-width: 2; stroke: #000000" points="1294.27,190.021 1294.5,201.199 1291.06,196.796 1285.47,196.911 "/>
    <polygon style="fill: #000000" points="1094.02,611.984 1093.79,600.806 1097.23,605.209 1102.82,605.094 "/>
    <polygon style="fill: none; fill-opacity:0; stroke-width: 2; stroke: #000000" points="1094.02,611.984 1093.79,600.806 1097.23,605.209 1102.82,605.094 "/>
  </g>
  <g>
    <line style="fill: none; fill-opacity:0; stroke-width: 2; stroke-dasharray: 4; stroke: #000000" x1="925.5" y1="555" x2="1014.59" y2="608.961"/>
    <polygon style="fill: #000000" points="1021.01,612.846 1009.87,611.943 1014.59,608.961 1015.05,603.389 "/>
    <polygon style="fill: none; fill-opacity:0; stroke-width: 2; stroke: #000000" points="1021.01,612.846 1009.87,611.943 1014.59,608.961 1015.05,603.389 "/>
  </g>
  <g>
    <line style="fill: none; fill-opacity:0; stroke-width: 2; stroke-dasharray: 4; stroke: #000000" x1="578.47" y1="107.901" x2="892.972" y2="500.405"/>
    <polygon style="fill: #000000" points="897.662,506.257 887.507,501.58 892.972,500.405 895.311,495.327 "/>
    <polygon style="fill: none; fill-opacity:0; stroke-width: 2; stroke: #000000" points="897.662,506.257 887.507,501.58 892.972,500.405 895.311,495.327 "/>
  </g>
  <g>
    <line style="fill: none; fill-opacity:0; stroke-width: 2; stroke-dasharray: 4; stroke: #000000" x1="935.021" y1="207.905" x2="926.721" y2="498.272"/>
    <polygon style="fill: #000000" points="926.507,505.769 921.795,495.631 926.721,498.272 931.791,495.916 "/>
    <polygon style="fill: none; fill-opacity:0; stroke-width: 2; stroke: #000000" points="926.507,505.769 921.795,495.631 926.721,498.272 931.791,495.916 "/>
  </g>
  <g>
    <line style="fill: none; fill-opacity:0; stroke-width: 2; stroke-dasharray: 4; stroke: #000000" x1="615.559" y1="370.813" x2="856.866" y2="503.314"/>
    <polygon style="fill: #000000" points="863.441,506.923 852.268,506.493 856.866,503.314 857.082,497.728 "/>
    <polygon style="fill: none; fill-opacity:0; stroke-width: 2; stroke: #000000" points="863.441,506.923 852.268,506.493 856.866,503.314 857.082,497.728 "/>
  </g>
  <g>
    <line style="fill: none; fill-opacity:0; stroke-width: 2; stroke-dasharray: 4; stroke: #000000" x1="345.12" y1="489.362" x2="793.297" y2="529.237"/>
    <polygon style="fill: #000000" points="800.768,529.902 790.364,533.996 793.297,529.237 791.25,524.036 "/>
    <polygon style="fill: none; fill-opacity:0; stroke-width: 2; stroke: #000000" points="800.768,529.902 790.364,533.996 793.297,529.237 791.25,524.036 "/>
  </g>
  <g>
    <line style="fill: none; fill-opacity:0; stroke-width: 2; stroke-dasharray: 4; stroke: #000000" x1="692.804" y1="106.653" x2="1166.32" y2="158.193"/>
    <polygon style="fill: #000000" points="1173.77,159.005 1163.29,162.893 1166.32,158.193 1164.37,152.952 "/>
    <polygon style="fill: none; fill-opacity:0; stroke-width: 2; stroke: #000000" points="1173.77,159.005 1163.29,162.893 1166.32,158.193 1164.37,152.952 "/>
  </g>
  <g>
    <line style="fill: none; fill-opacity:0; stroke-width: 2; stroke-dasharray: 4; stroke: #000000" x1="1061.81" y1="186.047" x2="1166.27" y2="180.381"/>
    <polygon style="fill: #000000" points="1173.76,179.974 1164.05,185.509 1166.27,180.381 1163.5,175.523 "/>
    <polygon style="fill: none; fill-opacity:0; stroke-width: 2; stroke: #000000" points="1173.76,179.974 1164.05,185.509 1166.27,180.381 1163.5,175.523 "/>
  </g>
  <g>
    <line style="fill: none; fill-opacity:0; stroke-width: 2; stroke-dasharray: 4; stroke: #000000" x1="959.289" y1="508.005" x2="1280.07" y2="194.761"/>
    <polygon style="fill: #000000" points="1285.43,189.521 1281.77,200.085 1280.07,194.761 1274.78,192.93 "/>
    <polygon style="fill: none; fill-opacity:0; stroke-width: 2; stroke: #000000" points="1285.43,189.521 1281.77,200.085 1280.07,194.761 1274.78,192.93 "/>
  </g>
</svg>
