<?xml version="1.0" encoding="UTF-8" standalone="no"?>
<!DOCTYPE svg PUBLIC "-//W3C//DTD SVG 1.0//EN" "http://www.w3.org/TR/2001/PR-SVG-20010719/DTD/svg10.dtd">
<svg width="25cm" height="21cm" viewBox="28 106 500 412" xmlns="http://www.w3.org/2000/svg" xmlns:xlink="http://www.w3.org/1999/xlink">
  <g>
    <rect style="fill: #ffffff" x="89.45" y="267" width="89.1" height="38"/>
    <rect style="fill: none; fill-opacity:0; stroke-width: 2; stroke: #000000" x="89.45" y="267" width="89.1" height="38"/>
    <text font-size="12.8" style="fill: #000000;text-anchor:middle;font-family:sans-serif;font-style:normal;font-weight:normal" x="134" y="289.9">
      <tspan x="134" y="289.9">Mainmenu</tspan>
    </text>
  </g>
  <g>
    <rect style="fill: #ffffff" x="78.75" y="436" width="92.5" height="38"/>
    <rect style="fill: none; fill-opacity:0; stroke-width: 2; stroke: #000000" x="78.75" y="436" width="92.5" height="38"/>
    <text font-size="12.8" style="fill: #000000;text-anchor:middle;font-family:sans-serif;font-style:normal;font-weight:normal" x="125" y="458.9">
      <tspan x="125" y="458.9">Highscores</tspan>
    </text>
  </g>
  <g>
    <rect style="fill: #ffffff" x="289.25" y="143" width="141.5" height="54"/>
    <rect style="fill: none; fill-opacity:0; stroke-width: 2; stroke: #000000" x="289.25" y="143" width="141.5" height="54"/>
    <text font-size="12.8" style="fill: #000000;text-anchor:middle;font-family:sans-serif;font-style:normal;font-weight:normal" x="360" y="165.9">
      <tspan x="360" y="165.9">New game:</tspan>
      <tspan x="360" y="181.9">Character creation</tspan>
    </text>
  </g>
  <g>
    <rect style="fill: #ffffff" x="462.95" y="227" width="46.1" height="38"/>
    <rect style="fill: none; fill-opacity:0; stroke-width: 2; stroke: #000000" x="462.95" y="227" width="46.1" height="38"/>
    <text font-size="12.8" style="fill: #000000;text-anchor:middle;font-family:sans-serif;font-style:normal;font-weight:normal" x="486" y="249.9">
      <tspan x="486" y="249.9">Plot</tspan>
    </text>
  </g>
  <g>
    <rect style="fill: #ffffff" x="465.95" y="340" width="60.1" height="38"/>
    <rect style="fill: none; fill-opacity:0; stroke-width: 2; stroke: #000000" x="465.95" y="340" width="60.1" height="38"/>
    <text font-size="12.8" style="fill: #000000;text-anchor:middle;font-family:sans-serif;font-style:normal;font-weight:normal" x="496" y="362.9">
      <tspan x="496" y="362.9">Game</tspan>
    </text>
  </g>
  <text font-size="12.8" style="fill: #000000;text-anchor:start;font-family:sans-serif;font-style:normal;font-weight:normal" x="28" y="325">
    <tspan x="28" y="325">Highscores</tspan>
  </text>
  <g>
    <path style="fill: none; fill-opacity:0; stroke-width: 2; stroke: #000000" d="M 148.125,436 A 117.671,117.671 0 0 0 161.366,314.71"/>
    <polygon style="fill: #000000" points="166.146,311.968 156.78,305.863 157.516,317.019 "/>
    <polygon style="fill: none; fill-opacity:0; stroke-width: 2; stroke: #000000" points="166.146,311.968 156.78,305.863 157.516,317.019 "/>
  </g>
  <g>
    <path style="fill: none; fill-opacity:0; stroke-width: 2; stroke: #000000" d="M 111.725,305 A 117.863,117.863 0 0 0 96.9138,426.222"/>
    <polygon style="fill: #000000" points="92.098,428.9 101.382,435.13 100.796,423.965 "/>
    <polygon style="fill: none; fill-opacity:0; stroke-width: 2; stroke: #000000" points="92.098,428.9 101.382,435.13 100.796,423.965 "/>
  </g>
  <text font-size="12.8" style="fill: #000000;text-anchor:start;font-family:sans-serif;font-style:normal;font-weight:normal" x="162" y="426">
    <tspan x="162" y="426">Close</tspan>
  </text>
  <g>
    <path style="fill: none; fill-opacity:0; stroke-width: 2; stroke: #000000" d="M 279.071,174.134 A 193.258,193.258 0 0 0 178.55,276.5"/>
    <polygon style="fill: #000000" points="280.694,178.532 288.313,170.35 277.196,169.164 "/>
    <polygon style="fill: none; fill-opacity:0; stroke-width: 2; stroke: #000000" points="280.694,178.532 288.313,170.35 277.196,169.164 "/>
  </g>
  <text font-size="12.8" style="fill: #000000;text-anchor:start;font-family:sans-serif;font-style:normal;font-weight:normal" x="195" y="182">
    <tspan x="195" y="182">New game</tspan>
  </text>
  <g>
    <path style="fill: none; fill-opacity:0; stroke-width: 2; stroke: #000000" d="M 188.251,280.822 A 353.272,353.272 0 0 0 289.25,197"/>
    <polygon style="fill: #000000" points="186.048,276.525 179.439,285.543 190.619,285.419 "/>
    <polygon style="fill: none; fill-opacity:0; stroke-width: 2; stroke: #000000" points="186.048,276.525 179.439,285.543 190.619,285.419 "/>
  </g>
  <text font-size="12.8" style="fill: #000000;text-anchor:start;font-family:sans-serif;font-style:normal;font-weight:normal" x="280" y="221">
    <tspan x="280" y="221">Cancel</tspan>
  </text>
  <g>
    <path style="fill: none; fill-opacity:0; stroke-width: 2; stroke: #000000" d="M 481.562,216.989 A 100.225,100.225 0 0 0 430.75,170"/>
    <polygon style="fill: #000000" points="477.423,218.489 485.645,226.065 486.773,214.942 "/>
    <polygon style="fill: none; fill-opacity:0; stroke-width: 2; stroke: #000000" points="477.423,218.489 485.645,226.065 486.773,214.942 "/>
  </g>
  <text font-size="12.8" style="fill: #000000;text-anchor:start;font-family:sans-serif;font-style:normal;font-weight:normal" x="441" y="156">
    <tspan x="441" y="156">Start</tspan>
  </text>
  <g>
    <path style="fill: none; fill-opacity:0; stroke-width: 2; stroke: #000000" d="M 499.022,329.499 A 82.0203,82.0203 0 0 0 486,265"/>
    <polygon style="fill: #000000" points="495.037,327.955 496.34,339.06 504.442,331.355 "/>
    <polygon style="fill: none; fill-opacity:0; stroke-width: 2; stroke: #000000" points="495.037,327.955 496.34,339.06 504.442,331.355 "/>
  </g>
  <g>
    <path style="fill: none; fill-opacity:0; stroke-width: 2; stroke: #000000" d="M 188.188,310.299 A 568.983,568.983 0 0 0 465.95,378"/>
    <polygon style="fill: #000000" points="190.589,306.035 179.422,305.49 185.686,314.751 "/>
    <polygon style="fill: none; fill-opacity:0; stroke-width: 2; stroke: #000000" points="190.589,306.035 179.422,305.49 185.686,314.751 "/>
  </g>
  <text font-size="12.8" style="fill: #000000;text-anchor:start;font-family:sans-serif;font-style:normal;font-weight:normal" x="394" y="391">
    <tspan x="394" y="391">Quit/Save</tspan>
  </text>
  <g>
    <path style="fill: none; fill-opacity:0; stroke-width: 2; stroke: #000000" d="M 455.403,346.375 A 1377.76,1377.76 0 0 0 178.55,295.5"/>
    <polygon style="fill: #000000" points="453.976,351.121 464.992,349.212 456.855,341.545 "/>
    <polygon style="fill: none; fill-opacity:0; stroke-width: 2; stroke: #000000" points="453.976,351.121 464.992,349.212 456.855,341.545 "/>
  </g>
  <text font-size="12.8" style="fill: #000000;text-anchor:start;font-family:sans-serif;font-style:normal;font-weight:normal" x="284" y="305">
    <tspan x="284" y="305">Load saved game</tspan>
  </text>
  <g>
    <rect style="fill: #ffffff" x="383.25" y="479" width="137.5" height="38"/>
    <rect style="fill: none; fill-opacity:0; stroke-width: 2; stroke: #000000" x="383.25" y="479" width="137.5" height="38"/>
    <text font-size="12.8" style="fill: #000000;text-anchor:middle;font-family:sans-serif;font-style:normal;font-weight:normal" x="452" y="501.9">
      <tspan x="452" y="501.9">Game Completion</tspan>
    </text>
  </g>
  <g>
    <path style="fill: none; fill-opacity:0; stroke-width: 2; stroke: #000000" d="M 459.607,471.087 A 143.842,143.842 0 0 0 496,378"/>
    <polygon style="fill: #000000" points="456.451,467.766 452.72,478.306 463.39,474.967 "/>
    <polygon style="fill: none; fill-opacity:0; stroke-width: 2; stroke: #000000" points="456.451,467.766 452.72,478.306 463.39,474.967 "/>
  </g>
  <text font-size="12.8" style="fill: #000000;text-anchor:start;font-family:sans-serif;font-style:normal;font-weight:normal" x="373" y="450">
    <tspan x="373" y="450">Complete game</tspan>
  </text>
  <g>
    <path style="fill: none; fill-opacity:0; stroke-width: 2; stroke: #000000" d="M 181.234,459.611 A 446.173,446.173 0 0 0 383.25,498"/>
    <polygon style="fill: #000000" points="183.331,455.222 172.153,455.43 179.027,464.248 "/>
    <polygon style="fill: none; fill-opacity:0; stroke-width: 2; stroke: #000000" points="183.331,455.222 172.153,455.43 179.027,464.248 "/>
  </g>
  <g>
    <rect style="fill: #ffffff" x="54.775" y="107" width="80.45" height="38"/>
    <rect style="fill: none; fill-opacity:0; stroke-width: 2; stroke: #000000" x="54.775" y="107" width="80.45" height="38"/>
    <text font-size="12.7998" style="fill: #000000;text-anchor:middle;font-family:sans-serif;font-style:normal;font-weight:normal" x="95" y="129.9">
      <tspan x="95" y="129.9">Statistics</tspan>
    </text>
  </g>
  <g>
    <path style="fill: none; fill-opacity:0; stroke-width: 2; stroke: #000000" d="M 134,267 A 105.255,105.255 0 0 0 122.404,153.177"/>
    <polygon style="fill: #000000" points="126.404,149.301 115.816,145.711 119.297,156.335 "/>
    <polygon style="fill: none; fill-opacity:0; stroke-width: 2; stroke: #000000" points="126.404,149.301 115.816,145.711 119.297,156.335 "/>
  </g>
  <text font-size="12.7998" style="fill: #000000;text-anchor:start;font-family:sans-serif;font-style:normal;font-weight:normal" x="114" y="247">
    <tspan x="114" y="247">Statistics</tspan>
  </text>
  <g>
    <path style="fill: none; fill-opacity:0; stroke-width: 2; stroke: #000000" d="M 74.8875,145 A 111.506,111.506 0 0 0 103.474,259.786"/>
    <polygon style="fill: #000000" points="99.996,264.097 110.941,266.38 106.2,256.254 "/>
    <polygon style="fill: none; fill-opacity:0; stroke-width: 2; stroke: #000000" points="99.996,264.097 110.941,266.38 106.2,256.254 "/>
  </g>
  <text font-size="12.8" style="fill: #000000;text-anchor:start;font-family:sans-serif;font-style:normal;font-weight:normal" x="30" y="173.1">
    <tspan x="30" y="173.1">Close</tspan>
  </text>
</svg>
