<?xml version="1.0" encoding="UTF-8" standalone="no"?>
<!DOCTYPE svg PUBLIC "-//W3C//DTD SVG 1.0//EN" "http://www.w3.org/TR/2001/PR-SVG-20010719/DTD/svg10.dtd">
<svg width="35cm" height="21cm" viewBox="-110 106 685 419" xmlns="http://www.w3.org/2000/svg" xmlns:xlink="http://www.w3.org/1999/xlink">
  <g>
    <rect style="fill: #ffffff" x="89.45" y="267" width="89.1" height="38"/>
    <rect style="fill: none; fill-opacity:0; stroke-width: 2; stroke: #000000" x="89.45" y="267" width="89.1" height="38"/>
    <text font-size="12.8" style="fill: #000000;text-anchor:middle;font-family:sans-serif;font-style:normal;font-weight:normal" x="134" y="289.9">
      <tspan x="134" y="289.9">Mainmenu</tspan>
    </text>
  </g>
  <g>
    <rect style="fill: #ffffff" x="78.75" y="436" width="92.5" height="38"/>
    <rect style="fill: none; fill-opacity:0; stroke-width: 2; stroke: #000000" x="78.75" y="436" width="92.5" height="38"/>
    <text font-size="12.8" style="fill: #000000;text-anchor:middle;font-family:sans-serif;font-style:normal;font-weight:normal" x="125" y="458.9">
      <tspan x="125" y="458.9">Highscores</tspan>
    </text>
  </g>
  <g>
    <rect style="fill: #ffffff" x="295.25" y="113" width="141.5" height="54"/>
    <rect style="fill: none; fill-opacity:0; stroke-width: 2; stroke: #000000" x="295.25" y="113" width="141.5" height="54"/>
    <text font-size="12.8" style="fill: #000000;text-anchor:middle;font-family:sans-serif;font-style:normal;font-weight:normal" x="366" y="135.9">
      <tspan x="366" y="135.9">New game:</tspan>
      <tspan x="366" y="151.9">Character creation</tspan>
    </text>
  </g>
  <g>
    <rect style="fill: #ffffff" x="355.95" y="237" width="46.1" height="38"/>
    <rect style="fill: none; fill-opacity:0; stroke-width: 2; stroke: #000000" x="355.95" y="237" width="46.1" height="38"/>
    <text font-size="12.8" style="fill: #000000;text-anchor:middle;font-family:sans-serif;font-style:normal;font-weight:normal" x="379" y="259.9">
      <tspan x="379" y="259.9">Plot</tspan>
    </text>
  </g>
  <g>
    <rect style="fill: #ffffff" x="320.95" y="341" width="60.1" height="38"/>
    <rect style="fill: none; fill-opacity:0; stroke-width: 2; stroke: #000000" x="320.95" y="341" width="60.1" height="38"/>
    <text font-size="12.8" style="fill: #000000;text-anchor:middle;font-family:sans-serif;font-style:normal;font-weight:normal" x="351" y="363.9">
      <tspan x="351" y="363.9">Game</tspan>
    </text>
  </g>
  <text font-size="12.8" style="fill: #000000;text-anchor:start;font-family:sans-serif;font-style:normal;font-weight:normal" x="16" y="359">
    <tspan x="16" y="359">Highscores</tspan>
  </text>
  <g>
    <path style="fill: none; fill-opacity:0; stroke-width: 2; stroke: #000000" d="M 148.125,436 A 117.671,117.671 0 0 0 161.366,314.71"/>
    <polygon style="fill: #000000" points="166.146,311.968 156.78,305.863 157.516,317.019 "/>
    <polygon style="fill: none; fill-opacity:0; stroke-width: 2; stroke: #000000" points="166.146,311.968 156.78,305.863 157.516,317.019 "/>
  </g>
  <g>
    <path style="fill: none; fill-opacity:0; stroke-width: 2; stroke: #000000" d="M 111.725,305 A 117.863,117.863 0 0 0 96.9138,426.222"/>
    <polygon style="fill: #000000" points="92.098,428.9 101.382,435.13 100.796,423.965 "/>
    <polygon style="fill: none; fill-opacity:0; stroke-width: 2; stroke: #000000" points="92.098,428.9 101.382,435.13 100.796,423.965 "/>
  </g>
  <text font-size="12.8" style="fill: #000000;text-anchor:start;font-family:sans-serif;font-style:normal;font-weight:normal" x="162" y="426">
    <tspan x="162" y="426">Close</tspan>
  </text>
  <g>
    <path style="fill: none; fill-opacity:0; stroke-width: 2; stroke: #000000" d="M 285.785,145.591 A 261.218,261.218 0 0 0 178.55,276.5"/>
    <polygon style="fill: #000000" points="288.115,149.752 294.378,140.49 283.212,141.037 "/>
    <polygon style="fill: none; fill-opacity:0; stroke-width: 2; stroke: #000000" points="288.115,149.752 294.378,140.49 283.212,141.037 "/>
  </g>
  <text font-size="12.8" style="fill: #000000;text-anchor:start;font-family:sans-serif;font-style:normal;font-weight:normal" x="182" y="217">
    <tspan x="182" y="217">New game</tspan>
  </text>
  <g>
    <path style="fill: none; fill-opacity:0; stroke-width: 2; stroke: #000000" d="M 187.412,279.487 A 485.066,485.066 0 0 0 295.25,167"/>
    <polygon style="fill: #000000" points="184.571,275.524 179.362,285.417 190.402,283.648 "/>
    <polygon style="fill: none; fill-opacity:0; stroke-width: 2; stroke: #000000" points="184.571,275.524 179.362,285.417 190.402,283.648 "/>
  </g>
  <text font-size="12.8" style="fill: #000000;text-anchor:start;font-family:sans-serif;font-style:normal;font-weight:normal" x="287" y="191">
    <tspan x="287" y="191">Cancel</tspan>
  </text>
  <g>
    <path style="fill: none; fill-opacity:0; stroke-width: 2; stroke: #000000" d="M 381.189,226.296 A 81.4229,81.4229 0 0 0 366,167"/>
    <polygon style="fill: #000000" points="377.102,225.067 379.266,236.036 386.742,227.723 "/>
    <polygon style="fill: none; fill-opacity:0; stroke-width: 2; stroke: #000000" points="377.102,225.067 379.266,236.036 386.742,227.723 "/>
  </g>
  <text font-size="12.8" style="fill: #000000;text-anchor:start;font-family:sans-serif;font-style:normal;font-weight:normal" x="381" y="190">
    <tspan x="381" y="190">Start</tspan>
  </text>
  <g>
    <path style="fill: none; fill-opacity:0; stroke-width: 2; stroke: #000000" d="M 359.069,333.656 A 74.1116,74.1116 0 0 0 379,275"/>
    <polygon style="fill: #000000" points="356.574,330.279 351.787,340.383 362.742,338.15 "/>
    <polygon style="fill: none; fill-opacity:0; stroke-width: 2; stroke: #000000" points="356.574,330.279 351.787,340.383 362.742,338.15 "/>
  </g>
  <g>
    <path style="fill: none; fill-opacity:0; stroke-width: 2; stroke: #000000" d="M 185.133,313.792 A 173.603,173.603 0 0 0 320.95,379"/>
    <polygon style="fill: #000000" points="188.956,311.141 179.124,305.819 180.766,316.878 "/>
    <polygon style="fill: none; fill-opacity:0; stroke-width: 2; stroke: #000000" points="188.956,311.141 179.124,305.819 180.766,316.878 "/>
  </g>
  <text font-size="12.8" style="fill: #000000;text-anchor:start;font-family:sans-serif;font-style:normal;font-weight:normal" x="248" y="389">
    <tspan x="248" y="389">Quit/Save</tspan>
  </text>
  <g>
    <path style="fill: none; fill-opacity:0; stroke-width: 2; stroke: #000000" d="M 311.617,344.685 A 378.268,378.268 0 0 0 178.55,295.5"/>
    <polygon style="fill: #000000" points="308.994,348.753 320.109,349.959 314.405,340.343 "/>
    <polygon style="fill: none; fill-opacity:0; stroke-width: 2; stroke: #000000" points="308.994,348.753 320.109,349.959 314.405,340.343 "/>
  </g>
  <text font-size="12.8" style="fill: #000000;text-anchor:start;font-family:sans-serif;font-style:normal;font-weight:normal" x="216" y="302">
    <tspan x="216" y="302">Load saved game</tspan>
  </text>
  <g>
    <rect style="fill: #ffffff" x="246.25" y="486" width="137.5" height="38"/>
    <rect style="fill: none; fill-opacity:0; stroke-width: 2; stroke: #000000" x="246.25" y="486" width="137.5" height="38"/>
    <text font-size="12.8" style="fill: #000000;text-anchor:middle;font-family:sans-serif;font-style:normal;font-weight:normal" x="315" y="508.9">
      <tspan x="315" y="508.9">Game Completion</tspan>
    </text>
  </g>
  <g>
    <path style="fill: none; fill-opacity:0; stroke-width: 2; stroke: #000000" d="M 321.833,477.408 A 150.773,150.773 0 0 0 351,379"/>
    <polygon style="fill: #000000" points="318.358,474.393 315.651,485.241 325.953,480.898 "/>
    <polygon style="fill: none; fill-opacity:0; stroke-width: 2; stroke: #000000" points="318.358,474.393 315.651,485.241 325.953,480.898 "/>
  </g>
  <text font-size="12.8" style="fill: #000000;text-anchor:start;font-family:sans-serif;font-style:normal;font-weight:normal" x="278" y="445">
    <tspan x="278" y="445">Complete game</tspan>
  </text>
  <g>
    <path style="fill: none; fill-opacity:0; stroke-width: 2; stroke: #000000" d="M 133.847,480.501 A 153.77,153.77 0 0 0 246.25,505"/>
    <polygon style="fill: #000000" points="136.729,476.905 125.784,474.621 130.523,484.747 "/>
    <polygon style="fill: none; fill-opacity:0; stroke-width: 2; stroke: #000000" points="136.729,476.905 125.784,474.621 130.523,484.747 "/>
  </g>
  <g>
    <rect style="fill: #ffffff" x="54.775" y="107" width="80.45" height="38"/>
    <rect style="fill: none; fill-opacity:0; stroke-width: 2; stroke: #000000" x="54.775" y="107" width="80.45" height="38"/>
    <text font-size="12.7998" style="fill: #000000;text-anchor:middle;font-family:sans-serif;font-style:normal;font-weight:normal" x="95" y="129.9">
      <tspan x="95" y="129.9">Statistics</tspan>
    </text>
  </g>
  <g>
    <path style="fill: none; fill-opacity:0; stroke-width: 2; stroke: #000000" d="M 134,267 A 105.255,105.255 0 0 0 122.404,153.177"/>
    <polygon style="fill: #000000" points="126.404,149.301 115.816,145.711 119.297,156.335 "/>
    <polygon style="fill: none; fill-opacity:0; stroke-width: 2; stroke: #000000" points="126.404,149.301 115.816,145.711 119.297,156.335 "/>
  </g>
  <text font-size="12.7998" style="fill: #000000;text-anchor:start;font-family:sans-serif;font-style:normal;font-weight:normal" x="114" y="247">
    <tspan x="114" y="247">Statistics</tspan>
  </text>
  <g>
    <path style="fill: none; fill-opacity:0; stroke-width: 2; stroke: #000000" d="M 74.8875,145 A 111.506,111.506 0 0 0 103.474,259.786"/>
    <polygon style="fill: #000000" points="99.996,264.097 110.941,266.38 106.2,256.254 "/>
    <polygon style="fill: none; fill-opacity:0; stroke-width: 2; stroke: #000000" points="99.996,264.097 110.941,266.38 106.2,256.254 "/>
  </g>
  <text font-size="12.8" style="fill: #000000;text-anchor:start;font-family:sans-serif;font-style:normal;font-weight:normal" x="30" y="173.1">
    <tspan x="30" y="173.1">Close</tspan>
  </text>
  <g>
    <rect style="fill: #ffffff" x="-108.25" y="266" width="74.5" height="38"/>
    <rect style="fill: none; fill-opacity:0; stroke-width: 2; stroke: #000000" x="-108.25" y="266" width="74.5" height="38"/>
    <text font-size="12.7998" style="fill: #000000;text-anchor:middle;font-family:sans-serif;font-style:normal;font-weight:normal" x="-71" y="288.9">
      <tspan x="-71" y="288.9">Settings</tspan>
    </text>
  </g>
  <g>
    <path style="fill: none; fill-opacity:0; stroke-width: 2; stroke: #000000" d="M 89.45,276.5 A 104.87,104.87 0 0 0 -24.5122,269.612"/>
    <polygon style="fill: #000000" points="-27.6998,265.041 -32.936,274.919 -21.8916,273.181 "/>
    <polygon style="fill: none; fill-opacity:0; stroke-width: 2; stroke: #000000" points="-27.6998,265.041 -32.936,274.919 -21.8916,273.181 "/>
  </g>
  <g>
    <path style="fill: none; fill-opacity:0; stroke-width: 2; stroke: #000000" d="M -33.75,294.5 A 104.87,104.87 0 0 0 80.2122,301.388"/>
    <polygon style="fill: #000000" points="83.3998,305.959 88.636,296.081 77.5916,297.819 "/>
    <polygon style="fill: none; fill-opacity:0; stroke-width: 2; stroke: #000000" points="83.3998,305.959 88.636,296.081 77.5916,297.819 "/>
  </g>
  <text font-size="12.7998" style="fill: #000000;text-anchor:start;font-family:sans-serif;font-style:normal;font-weight:normal" x="0" y="253">
    <tspan x="0" y="253">Settings</tspan>
  </text>
  <text font-size="12.8" style="fill: #000000;text-anchor:start;font-family:sans-serif;font-style:normal;font-weight:normal" x="10" y="308.1">
    <tspan x="10" y="308.1">Close</tspan>
  </text>
  <text font-size="12.7998" style="fill: #000000;text-anchor:start;font-family:sans-serif;font-style:normal;font-weight:normal" x="381" y="294">
    <tspan x="381" y="294">Continue</tspan>
  </text>
  <g>
    <rect style="fill: #ffffff" x="500" y="347.2" width="74.5" height="38"/>
    <rect style="fill: none; fill-opacity:0; stroke-width: 2; stroke: #000000" x="500" y="347.2" width="74.5" height="38"/>
    <text font-size="12.7998" style="fill: #000000;text-anchor:middle;font-family:sans-serif;font-style:normal;font-weight:normal" x="537.25" y="370.1">
      <tspan x="537.25" y="370.1">Settings</tspan>
    </text>
  </g>
  <g>
    <path style="fill: none; fill-opacity:0; stroke-width: 2; stroke: #000000" d="M 489.3,354.172 A 302.589,302.589 0 0 0 381.05,350.5"/>
    <polygon style="fill: #000000" points="488.105,358.821 499.031,356.452 490.58,349.132 "/>
    <polygon style="fill: none; fill-opacity:0; stroke-width: 2; stroke: #000000" points="488.105,358.821 499.031,356.452 490.58,349.132 "/>
  </g>
  <g>
    <path style="fill: none; fill-opacity:0; stroke-width: 2; stroke: #000000" d="M 391.185,373.727 A 161.795,161.795 0 0 0 500,375.7"/>
    <polygon style="fill: #000000" points="393.133,369.529 381.959,369.916 388.973,378.623 "/>
    <polygon style="fill: none; fill-opacity:0; stroke-width: 2; stroke: #000000" points="393.133,369.529 381.959,369.916 388.973,378.623 "/>
  </g>
  <text font-size="12.7998" style="fill: #000000;text-anchor:start;font-family:sans-serif;font-style:normal;font-weight:normal" x="387.758" y="346.1">
    <tspan x="387.758" y="346.1">Settings</tspan>
  </text>
  <text font-size="12.8" style="fill: #000000;text-anchor:start;font-family:sans-serif;font-style:normal;font-weight:normal" x="450.758" y="397.2">
    <tspan x="450.758" y="397.2">Close</tspan>
  </text>
</svg>
